<svg width="39" height="22" viewBox="0 0 39 22" fill="none" xmlns="http://www.w3.org/2000/svg">
<path fill-rule="evenodd" clip-rule="evenodd" d="M36.9419 16.7611C35.1041 19.1196 24.9001 19.1196 19.4188 19.1196C13.9369 19.1196 3.73313 19.1196 1.89537 16.7611C1.69029 16.4983 1.45933 16.053 1.81444 15.225C1.97052 14.8606 2.3672 14.6678 2.96097 14.6678C3.42509 14.6678 3.98336 14.7828 4.62008 15.0105C5.03932 15.1599 5.48775 15.3439 5.96261 15.5389C8.51609 16.5856 12.0132 18.0193 19.4188 18.0193C26.8238 18.0193 30.3209 16.5856 32.8741 15.5389C33.349 15.3444 33.7979 15.1599 34.2166 15.0105C35.6679 14.4915 36.7448 14.5759 37.0228 15.225C37.3779 16.053 37.1467 16.4983 36.9419 16.7611ZM19.4188 1.4413C26.6159 1.4413 31.4853 5.50123 31.6381 11.5743C29.274 12.1352 25.961 12.8082 19.4188 12.8082C12.876 12.8082 9.5627 12.1352 7.19888 11.5743C7.35166 5.50123 12.2211 1.4413 19.4188 1.4413ZM19.4188 16.5783C12.8853 16.5783 9.56628 15.4127 7.19173 14.4528V13.0634C9.55224 13.6057 13.0711 14.2492 19.4188 14.2492C25.7659 14.2492 29.285 13.6057 31.645 13.0634V14.4528C29.2699 15.4127 25.9514 16.5783 19.4188 16.5783ZM38.5443 14.7131C38.1451 13.7824 37.1478 13.2267 35.876 13.2267C35.2024 13.2267 34.4391 13.3771 33.6074 13.674C33.4976 13.7132 33.3842 13.7586 33.273 13.801V11.8678C33.273 4.88015 27.5755 5.11411e-09 19.4188 5.11411e-09C11.2612 5.11411e-09 5.56428 4.88015 5.56428 11.8678V13.801C5.45252 13.7586 5.3391 13.7132 5.22927 13.674C4.3982 13.3771 3.63458 13.2267 2.96097 13.2267C1.68919 13.2267 0.691577 13.7824 0.292148 14.7131C-0.171696 15.7958 -0.0827813 16.7608 0.555865 17.5796C2.49025 20.0622 9.20731 20.5607 19.4188 20.5607C29.6297 20.5607 36.347 20.0622 38.2817 17.5796C38.9203 16.7601 39.0081 15.7958 38.5443 14.7131Z" transform="translate(0 0.564453)" fill="#525252"/>
</svg>
