<svg width="20" height="20" viewBox="0 0 20 20" fill="none" xmlns="http://www.w3.org/2000/svg">
<path d="M2.00113 4.00387C3.10441 4.00387 4.00387 3.10602 4.00387 2.00193C4.00387 1.5661 3.86128 1.1637 3.62523 0.835012C3.2615 0.330702 2.67019 3.62631e-07 2.00234 3.62631e-07C1.33409 3.62631e-07 0.743174 0.330299 0.378637 0.834609C0.141788 1.1633 0.000404162 1.5657 1.35864e-06 2.00153C-0.00120705 3.10562 0.897448 4.00387 2.00113 4.00387Z" transform="translate(7.99854 7.99805)" fill="#424242"/>
<path d="M1.92822 1.92782V0.249738V1.53657e-08L1.67727 0.000805564L3.01168e-07 0.00604221L0.00644469 1.93426L1.92822 1.92782Z" transform="translate(12.4431 5.62305)" fill="#424242"/>
<path d="M10 0C4.48602 0 0 4.48602 0 10C0 15.5136 4.48602 20 10 20C15.5136 20 20 15.5136 20 10C20 4.48602 15.5144 0 10 0ZM15.6872 8.83308V13.4895C15.6872 14.7023 14.7011 15.688 13.4891 15.688H6.51092C5.29848 15.688 4.31282 14.7023 4.31282 13.4895V8.83308V6.51132C4.31282 5.29888 5.29848 4.31322 6.51092 4.31322H13.4887C14.7011 4.31322 15.6872 5.29888 15.6872 6.51132V8.83308Z" fill="#424242"/>
<path d="M7.69032 1.16692C7.69032 2.88166 6.29501 4.27777 4.57947 4.27777C2.86393 4.27777 1.46902 2.88166 1.46902 1.16692C1.46902 0.754451 1.5512 0.360107 1.69782 3.44192e-07H-8.91213e-08V4.65641C-8.91213e-08 5.2582 0.488601 5.74559 1.08999 5.74559H8.06775C8.66833 5.74559 9.15774 5.2582 9.15774 4.65641V3.44192e-07H7.45912C7.60694 0.360107 7.69032 0.754451 7.69032 1.16692Z" transform="translate(5.42041 8.83301)" fill="#424242"/>
</svg>
