<svg width="26" height="26" viewBox="0 0 26 26" fill="none" xmlns="http://www.w3.org/2000/svg">
<path d="M12.0053 24C11.875 24 11.7693 23.8945 11.7693 23.7646V23.1656L10.6538 22.0528C10.5617 21.9608 10.5617 21.8118 10.6538 21.7199L11.7693 20.607V19.1168L10.8111 20.0727C10.7191 20.1646 10.5696 20.1646 10.4775 20.0727C10.3853 19.9808 10.3853 19.8317 10.4775 19.7398L11.7693 18.4508V17.0752L10.491 18.3506C10.399 18.4425 10.2495 18.4425 10.1574 18.3506C10.0652 18.2586 10.0652 18.1096 10.1574 18.0177L11.7693 16.4093V15.1704L10.0898 14.203L9.0076 15.2827V17.5475C9.0076 17.6775 8.90188 17.7829 8.77162 17.7829C8.64137 17.7829 8.53565 17.6775 8.53565 17.5475V15.7535L7.56074 16.7262V18.5394C7.56074 18.6693 7.45503 18.7748 7.32477 18.7748C7.19451 18.7748 7.0888 18.6693 7.0888 18.5394V17.1971L6.114 18.1696V19.6625C6.114 19.7924 6.00829 19.8979 5.87803 19.8979C5.74778 19.8979 5.64206 19.7924 5.64206 19.6625V18.6405L3.83122 20.4472C3.73919 20.5391 3.58959 20.5391 3.49756 20.4472C3.40541 20.3552 3.40541 20.2062 3.49756 20.1143L5.31312 18.3028H4.27921C4.14896 18.3028 4.04324 18.1973 4.04324 18.0673C4.04324 17.9374 4.14896 17.8319 4.27921 17.8319H5.78506L6.75986 16.8594H5.40491C5.27466 16.8594 5.16894 16.7539 5.16894 16.6239C5.16894 16.494 5.27466 16.3885 5.40491 16.3885H7.2318L8.20671 15.4158H6.39906C6.2688 15.4158 6.16309 15.3104 6.16309 15.1804C6.16309 15.0504 6.2688 14.945 6.39906 14.945H8.67865L9.66666 13.9592L9.23389 13.71C9.16086 13.668 9.11591 13.5902 9.11591 13.5062V12.2132H7.4929L5.88429 13.8181C5.79226 13.91 5.64277 13.91 5.55062 13.8181C5.45848 13.7262 5.45848 13.5771 5.55062 13.4852L6.82546 12.2132H5.44668L4.15816 13.4987C4.06613 13.5907 3.91664 13.5907 3.8245 13.4987C3.73235 13.4068 3.73235 13.2578 3.8245 13.1658L4.77923 12.2132H3.36235L2.24373 13.3291C2.1517 13.421 2.00209 13.421 1.91007 13.3291L0.791446 12.2132H0.235971C0.105715 12.2132 -5.48533e-10 12.1077 -5.48533e-10 11.9778C-5.48533e-10 11.8478 0.105715 11.7423 0.235971 11.7423H0.791446L1.91007 10.6264C2.00209 10.5345 2.1517 10.5345 2.24373 10.6264L3.36235 11.7423H4.77923L3.8245 10.7898C3.73235 10.6978 3.73235 10.5488 3.8245 10.4569C3.91653 10.365 4.06601 10.365 4.15816 10.4569L5.44668 11.7423H6.82546L5.55062 10.4703C5.45848 10.3784 5.45848 10.2293 5.55062 10.1374C5.64265 10.0455 5.79214 10.0455 5.88429 10.1374L7.4929 11.7422H9.11579V10.4492C9.11579 10.3651 9.16074 10.2874 9.23377 10.2454L9.66654 9.99615L8.62886 8.96086H6.3541C6.22385 8.96086 6.11813 8.85539 6.11813 8.72543C6.11813 8.59548 6.22385 8.49 6.3541 8.49H8.15704L7.18201 7.51722H5.35996C5.2297 7.51722 5.12399 7.41174 5.12399 7.28179C5.12399 7.15183 5.2297 7.04636 5.35996 7.04636H6.71018L5.73539 6.07381H4.23438C4.10412 6.07381 3.99841 5.96833 3.99841 5.83838C3.99841 5.70842 4.10412 5.60295 4.23438 5.60295H5.26345L3.49756 3.84113C3.40541 3.74919 3.40541 3.60016 3.49756 3.50823C3.58959 3.4163 3.73919 3.4163 3.83122 3.50823L5.59711 5.27006V4.24335C5.59711 4.1134 5.70282 4.00793 5.83308 4.00793C5.96334 4.00793 6.06905 4.1134 6.06905 4.24335V5.74091L7.04385 6.71346V5.36623C7.04385 5.23627 7.14956 5.1308 7.27982 5.1308C7.41007 5.1308 7.51579 5.23627 7.51579 5.36623V7.1842L8.4907 8.15687V6.3582C8.4907 6.22825 8.59642 6.12278 8.72667 6.12278C8.85693 6.12278 8.96264 6.22825 8.96264 6.3582V8.62773L10.0898 9.75225L11.7693 8.78488V7.54594L10.1574 5.93749C10.0652 5.84556 10.0652 5.69653 10.1574 5.6046C10.2494 5.51266 10.3989 5.51266 10.491 5.6046L11.7693 6.87991V5.50442L10.4776 4.21557C10.3854 4.12364 10.3854 3.97461 10.4776 3.88268C10.5696 3.79074 10.7191 3.79074 10.8112 3.88268L11.7694 4.83852V3.34826L10.654 2.23539C10.5618 2.14345 10.5618 1.99443 10.654 1.90249L11.7694 0.789625V0.235428C11.7694 0.105472 11.8751 0 12.0054 0C12.1356 0 12.2413 0.105472 12.2413 0.235428V0.783387L13.363 1.90249C13.4552 1.99443 13.4552 2.14345 13.363 2.23539L12.2413 3.3545V4.83169L13.1927 3.88256C13.2848 3.79063 13.4342 3.79063 13.5263 3.88256C13.6185 3.9745 13.6185 4.12352 13.5263 4.21546L12.2412 5.4976V6.8732L13.5126 5.60472C13.6048 5.51278 13.7541 5.51278 13.8463 5.60472C13.9384 5.69665 13.9384 5.84568 13.8463 5.93761L12.2412 7.53911V8.78488L13.897 9.73871L14.9607 8.67752V6.40305C14.9607 6.2731 15.0664 6.16762 15.1966 6.16762C15.3269 6.16762 15.4326 6.2731 15.4326 6.40305V8.20655L16.4076 7.23376V5.41119C16.4076 5.28124 16.5134 5.17577 16.6436 5.17577C16.7739 5.17577 16.8796 5.28124 16.8796 5.41119V6.7629L17.8544 5.79035V4.2882C17.8544 4.15825 17.9601 4.05278 18.0903 4.05278C18.2206 4.05278 18.3263 4.15825 18.3263 4.2882V5.31961L20.1419 3.50823C20.234 3.4163 20.3834 3.4163 20.4755 3.50823C20.5677 3.60016 20.5677 3.74919 20.4755 3.84113L18.6648 5.6478H19.6891C19.8193 5.6478 19.925 5.75327 19.925 5.88323C19.925 6.01318 19.8193 6.11866 19.6891 6.11866H18.1929L17.2181 7.09121H18.5634C18.6936 7.09121 18.7993 7.19668 18.7993 7.32664C18.7993 7.45659 18.6936 7.56206 18.5634 7.56206H16.7461L15.7711 8.53485H17.5692C17.6995 8.53485 17.8052 8.64032 17.8052 8.77028C17.8052 8.90024 17.6995 9.00571 17.5692 9.00571H15.2992L14.3202 9.9825L14.7767 10.2454C14.8498 10.2874 14.8947 10.3652 14.8947 10.4492V11.7422H16.3837L17.9923 10.1374C18.0844 10.0455 18.2338 10.0455 18.326 10.1374C18.4181 10.2293 18.4181 10.3784 18.326 10.4703L17.0511 11.7422H18.4299L19.7183 10.4568C19.8105 10.3648 19.9598 10.3648 20.052 10.4568C20.1441 10.5487 20.1441 10.6977 20.052 10.7897L19.0972 11.7422H20.6544L21.7729 10.6263C21.8651 10.5343 22.0144 10.5343 22.1066 10.6263L23.2251 11.7422H23.764C23.8943 11.7422 24 11.8477 24 11.9776C24 12.1076 23.8943 12.2131 23.764 12.2131H23.2251L22.1066 13.329C22.0144 13.4209 21.8651 13.4209 21.7729 13.329L20.6544 12.2131H19.0972L20.052 13.1657C20.1441 13.2577 20.1441 13.4067 20.052 13.4986C19.9598 13.5906 19.8105 13.5906 19.7183 13.4986L18.4299 12.2131H17.051L18.326 13.4851C18.4181 13.577 18.4181 13.726 18.326 13.818C18.2338 13.9099 18.0844 13.9099 17.9923 13.818L16.3837 12.2131H14.8947V13.506C14.8947 13.5902 14.8498 13.6679 14.7767 13.7099L14.3202 13.9728L15.2494 14.8999H17.5243C17.6545 14.8999 17.7602 15.0054 17.7602 15.1353C17.7602 15.2653 17.6545 15.3707 17.5243 15.3707H15.7213L16.6963 16.3435H18.5184C18.6487 16.3435 18.7544 16.449 18.7544 16.579C18.7544 16.7089 18.6487 16.8144 18.5184 16.8144H17.1683L18.1431 17.7869H19.6441C19.7744 17.7869 19.8801 17.8924 19.8801 18.0224C19.8801 18.1523 19.7744 18.2578 19.6441 18.2578H18.615L20.4755 20.1141C20.5677 20.2061 20.5677 20.3551 20.4755 20.447C20.3834 20.539 20.234 20.539 20.1419 20.447L18.2812 18.5907V19.6174C18.2812 19.7473 18.1755 19.8528 18.0453 19.8528C17.915 19.8528 17.8093 19.7473 17.8093 19.6174V18.1198L16.8345 17.1473V18.4944C16.8345 18.6244 16.7288 18.7298 16.5985 18.7298C16.4683 18.7298 16.3626 18.6244 16.3626 18.4944V16.6765L15.3877 15.7039V17.5025C15.3877 17.6325 15.2819 17.738 15.1517 17.738C15.0214 17.738 14.9157 17.6325 14.9157 17.5025V15.2329L13.897 14.2166L12.2412 15.1704V16.4162L13.8463 18.0177C13.9384 18.1096 13.9384 18.2586 13.8463 18.3506C13.7541 18.4425 13.6048 18.4425 13.5126 18.3506L12.2412 17.0821V18.4577L13.5263 19.7399C13.6185 19.8319 13.6185 19.9809 13.5263 20.0728C13.4342 20.1648 13.2848 20.1648 13.1927 20.0728L12.2413 19.1237V20.6009L13.363 21.72C13.4552 21.8119 13.4552 21.961 13.363 22.0529L12.2413 23.172V23.7647C12.2412 23.8945 12.1356 24 12.0053 24ZM12.2412 21.2666V22.506L12.8624 21.8862L12.2412 21.2666ZM11.1545 21.8863L11.7693 22.4999V21.2728L11.1545 21.8863ZM9.58785 13.3702L12.0054 14.7626L14.4229 13.3702V12.0465C14.4162 12.0247 14.4126 12.0015 14.4126 11.9776C14.4126 11.9537 14.4162 11.9305 14.4229 11.9088V10.5851L12.0191 9.20053C12.01 9.201 12.0008 9.201 11.9917 9.20053L9.58785 10.5851V13.3702ZM1.45901 12.2131L2.07702 12.8296L2.69502 12.2131H1.45901ZM21.3219 12.2131L21.9399 12.8296L22.5579 12.2131H21.3219ZM21.3219 11.7422H22.558L21.94 11.1256L21.3219 11.7422ZM1.45901 11.7422H2.69502L2.07702 11.1256L1.45901 11.7422ZM12.2412 1.44929V2.68871L12.8624 2.06894L12.2412 1.44929ZM11.1545 2.06894L11.7693 2.68247V1.45542L11.1545 2.06894ZM12.0019 13.8142C11.9612 13.8142 11.9205 13.8037 11.884 13.7827L10.4942 12.9821C10.4212 12.9401 10.3762 12.8623 10.3762 12.7782V11.1772C10.3762 11.093 10.4212 11.0153 10.4942 10.9733L11.884 10.1727C11.957 10.1307 12.0468 10.1307 12.1199 10.1727L13.5096 10.9733C13.5826 11.0153 13.6275 11.0931 13.6275 11.1772V12.7782C13.6275 12.8624 13.5826 12.9401 13.5096 12.9821L12.1199 13.7827C12.0834 13.8037 12.0427 13.8142 12.0019 13.8142ZM10.8482 12.6422L12.0019 13.3069L13.1557 12.6422V11.313L12.0019 10.6484L10.8482 11.313V12.6422Z" transform="translate(1 1)" fill="black" stroke="black" stroke-width="0.5"/>
</svg>
