<svg width="20" height="20" viewBox="0 0 20 20" fill="none" xmlns="http://www.w3.org/2000/svg">
<circle cx="10" cy="10" r="10" fill="#424242"/>
<path d="M12.8841 6.24356C12.8492 6.18835 12.633 5.74512 11.593 4.83413C10.5041 3.8802 10.6504 4.0351 11.9619 2.38566C12.7606 1.38112 13.08 0.767657 12.98 0.505403C12.8849 0.255418 12.2975 0.321365 12.2975 0.321365L10.3441 0.3321C10.3441 0.3321 10.1994 0.313697 10.0914 0.374276C9.98654 0.434088 9.9191 0.572117 9.9191 0.572117C9.9191 0.572117 9.60951 1.34968 9.19673 2.01068C8.32648 3.40554 7.97789 3.47915 7.83569 3.3925C7.50498 3.19083 7.58786 2.5812 7.58786 2.14871C7.58786 0.796797 7.80482 0.23318 7.16452 0.087483C6.95163 0.039173 6.79562 0.00696633 6.25201 0.00159855C5.55484 -0.00530288 4.96411 0.00389902 4.63015 0.158031C4.4075 0.260786 4.23605 0.490067 4.34087 0.503103C4.47007 0.519206 4.76259 0.577485 4.91779 0.776859C5.11849 1.03375 5.11118 1.61193 5.11118 1.61193C5.11118 1.61193 5.22656 3.2031 4.84222 3.40094C4.57814 3.53666 4.21655 3.25984 3.44056 1.99381C3.04322 1.34584 2.74257 0.628862 2.74257 0.628862C2.74257 0.628862 2.68488 0.495434 2.58168 0.42412C2.45655 0.337468 2.28104 0.309863 2.28104 0.309863L0.423525 0.320598C0.423525 0.320598 0.144817 0.328266 0.0424345 0.442523C-0.0485722 0.544511 0.0351215 0.754621 0.0351215 0.754621C0.0351215 0.754621 1.4896 3.96532 3.13585 5.58409C4.6464 7.0679 6.3609 6.97051 6.3609 6.97051H7.13771C7.13771 6.97051 7.37253 6.94597 7.49198 6.82405C7.60249 6.71209 7.59843 6.50198 7.59843 6.50198C7.59843 6.50198 7.58299 5.51814 8.06727 5.37321C8.54425 5.23058 9.15692 6.32408 9.80615 6.74506C10.2969 7.0633 10.6699 6.99351 10.6699 6.99351L12.4063 6.97051C12.4063 6.97051 13.3148 6.9176 12.8841 6.24356Z" transform="translate(3 7)" fill="#FBF4FB"/>
</svg>
