<svg width="15" height="15" viewBox="0 0 15 15" fill="none" xmlns="http://www.w3.org/2000/svg">
<path d="M14.0515 13.6626L10.5341 9.94962C11.4385 8.85844 11.934 7.48552 11.934 6.05624C11.934 2.71688 9.25716 0 5.96701 0C2.67685 0 7.05137e-09 2.71688 7.05137e-09 6.05624C7.05137e-09 9.3956 2.67685 12.1125 5.96701 12.1125C7.20218 12.1125 8.37924 11.7344 9.38558 11.0166L12.9297 14.7578C13.0779 14.9139 13.2771 15 13.4906 15C13.6927 15 13.8844 14.9218 14.03 14.7796C14.3392 14.4776 14.3491 13.9768 14.0515 13.6626ZM5.96701 1.57989C8.39895 1.57989 10.3774 3.58793 10.3774 6.05624C10.3774 8.52456 8.39895 10.5326 5.96701 10.5326C3.53506 10.5326 1.55661 8.52456 1.55661 6.05624C1.55661 3.58793 3.53506 1.57989 5.96701 1.57989Z" fill="#616161"/>
</svg>
