<svg width="16" height="16" viewBox="0 0 16 16" fill="none" xmlns="http://www.w3.org/2000/svg">
<path d="M3.49068 0C3.16925 0 2.85262 0.115267 2.58876 0.32659L2.55038 0.345801L2.53119 0.365012L0.612216 2.34376L0.631406 2.36297C0.0389225 2.91049 -0.14338 3.72937 0.113283 4.43778C0.115681 4.44258 0.110884 4.45219 0.113283 4.45699C0.633805 5.94826 1.96509 8.82753 4.56531 11.4306C7.17511 14.0434 10.0896 15.3233 11.5312 15.8876H11.5504C12.2964 16.1374 13.1047 15.9597 13.6804 15.465L15.6186 13.5247C16.1271 13.0156 16.1271 12.1319 15.6186 11.6228L13.1239 9.12531L13.1047 9.08688C12.5962 8.57779 11.6943 8.57779 11.1858 9.08688L9.95763 10.3164C9.51386 10.1027 8.45603 9.55516 7.44377 8.58739C6.4387 7.62683 5.92538 6.52219 5.73588 6.08994L6.96402 4.86043C7.47975 4.34413 7.48934 3.48443 6.94483 2.97773L6.96402 2.95852L6.90646 2.90089L4.45017 0.365012L4.43098 0.345801L4.3926 0.32659C4.12874 0.115267 3.81211 0 3.49068 0ZM3.49068 1.22951C3.53626 1.22951 3.58183 1.25113 3.62501 1.28715L6.0813 3.80381L6.13887 3.86145C6.13407 3.85664 6.17485 3.92148 6.10049 3.99592L4.56531 5.53282L4.27746 5.80177L4.41179 6.186C4.41179 6.186 5.11701 8.0759 6.59942 9.49032L6.73375 9.60559C8.16099 10.9095 9.84249 11.6228 9.84249 11.6228L10.2263 11.7957L12.0493 9.9706C12.1549 9.86494 12.1357 9.86494 12.2412 9.9706L14.7551 12.4873C14.8606 12.5929 14.8606 12.5545 14.7551 12.6602L12.8745 14.5429C12.5914 14.7854 12.2916 14.8358 11.9342 14.7158C10.5429 14.1682 7.83956 12.9795 5.42884 10.5661C2.99894 8.13353 1.73002 5.37433 1.26467 4.03435C1.17112 3.7846 1.23828 3.41479 1.45657 3.22748L1.49495 3.18905L3.35635 1.28715C3.39953 1.25113 3.4451 1.22951 3.49068 1.22951Z" fill="#616161"/>
</svg>
