<svg width="24" height="24" viewBox="0 0 24 24" fill="none" xmlns="http://www.w3.org/2000/svg">
<path d="M12.7801 19.4396V4.51993C12.7801 3.79994 12.1791 3.19995 11.458 3.19995H9.61513V1.31997C9.61513 0.599988 9.01418 0 8.253 0H4.52714C3.806 0 3.20506 0.599988 3.20506 1.31997V3.19995H1.32208C0.600945 3.19995 -1.71932e-07 3.79994 -1.71932e-07 4.51993V19.4796C-1.71932e-07 20.1996 0.600945 20.7996 1.32208 20.7996H3.24511V22.6796C3.24511 23.3996 3.84605 23.9996 4.56719 23.9996H8.29305C9.01418 23.9996 9.61513 23.3996 9.65518 22.6796V20.7996H11.4981C12.2192 20.7996 12.8201 20.1996 12.7801 19.4396ZM0.801276 19.4396V17.7561L2.82224 18.4286L0.811088 19.5357C0.804844 19.5044 0.801276 19.4723 0.801276 19.4396ZM11.86 4.15647C11.9492 4.25134 11.9988 4.38062 11.9789 4.51993V5.79537L3.48295 10.8086L1.42973 10.262L11.86 4.15647ZM11.3548 13.7318L9.28738 14.8699L0.801276 12.5167V10.9226L11.3548 13.7318ZM4.56817 11.0974L11.9788 6.7246V8.19725L6.34829 11.5712L4.56817 11.0974ZM8.28436 15.4219L6.49261 16.4082L0.80123 14.8926V13.3469L8.28436 15.4219ZM3.77694 17.9031L0.80123 16.9129V15.7206L5.47889 16.9663L3.77694 17.9031ZM3.85647 18.7728L3.89915 18.787L3.91455 18.7408L11.9789 14.3018V16.1967L5.56654 19.9596H1.70044L3.85647 18.7728ZM11.9789 13.07L10.2676 12.6145L11.9789 11.5456V13.07ZM11.9789 10.602L9.20827 12.3326L7.42642 11.8583L11.9789 9.13027V10.602V10.602ZM10.5432 3.99991L0.801276 9.70247V7.83533L7.71112 3.99991H9.61513H10.5432V3.99991ZM4.00629 1.31997C4.00629 1.04 4.24667 0.8 4.56719 0.8H8.29305C8.57347 0.8 8.81385 1.04 8.81385 1.31997V3.19995H4.00629V1.31997ZM1.32208 3.99991H3.20506H6.06213L0.801276 6.92002V4.51993C0.801276 4.2399 1.04161 3.99991 1.32208 3.99991ZM8.7738 22.6796C8.7738 22.9595 8.53343 23.1995 8.253 23.1995H4.52714C4.24671 23.1995 4.00634 22.9595 4.00634 22.6796V20.7996H8.7738V22.6796ZM11.458 19.9596H7.14778L11.9789 17.1246V19.4396C11.9789 19.7196 11.7385 19.9596 11.458 19.9596Z" transform="translate(11.218)" fill="#393939"/>
<path d="M10.4164 0.400023C10.4164 0.160028 10.2561 4.68741e-05 10.0157 4.68741e-05C9.77537 4.68741e-05 9.61513 0.160028 9.61513 0.400023C9.61513 1.59602 8.72714 2.59495 7.57689 2.77204L7.61196 2.39995C7.61196 1.07998 6.53026 -2.19043e-09 5.20818 -2.19043e-09C3.8861 -2.19043e-09 2.8044 1.07998 2.8044 2.43994L2.83844 2.79993H2.40378C1.0817 2.79993 2.46257e-10 3.87991 2.46257e-10 5.19988C2.46257e-10 6.51986 1.0817 7.59984 2.40378 7.59984H3.29196L3.9723 14.7997H2.40378C1.0817 14.7997 2.46257e-10 15.8797 2.46257e-10 17.1996C2.46257e-10 18.5196 1.0817 19.5996 2.40378 19.5996H4.42582L4.80756 23.6395C4.84761 23.8395 5.0079 23.9995 5.20818 23.9995C5.40846 23.9995 5.56875 23.8395 5.60879 23.6395L5.98978 19.5996H8.81381C9.05418 19.5996 9.21442 19.4396 9.21442 19.1996C9.21442 18.9596 9.05418 18.7996 8.81381 18.7996H6.06523L6.55566 13.5998H8.01258C9.33466 13.5998 10.4164 12.5198 10.4164 11.1998C10.4164 9.87984 9.33466 8.79986 8.01258 8.79986H7.00834L7.50004 3.58624C9.12883 3.4392 10.4164 2.06279 10.4164 0.400023ZM2.40378 6.79993C1.52241 6.79993 0.801277 6.07994 0.801277 5.19998C0.801277 4.32001 1.52236 3.59998 2.40378 3.59998H2.91402L3.21637 6.79993H2.40378ZM2.40378 18.7997C1.52241 18.7997 0.801277 18.0797 0.801277 17.1997C0.801277 16.3198 1.52236 15.5997 2.40378 15.5997H4.04789L4.35024 18.7997H2.40378ZM5.15527 18.7997L3.71906 3.59998H4.80756V3.99995C4.80756 4.23995 4.9678 4.39993 5.20818 4.39993C5.44856 4.39993 5.60879 4.23995 5.60879 3.99995V2.4C5.60879 2.16 5.44856 2.00002 5.20818 2.00002C4.9678 2.00002 4.80756 2.16 4.80756 2.4V2.79998H3.64347L3.60563 2.4C3.60563 1.52003 4.32676 0.800047 5.20813 0.800047C6.0895 0.800047 6.81064 1.52003 6.81064 2.36002L5.2609 18.7997H5.15527ZM8.01258 9.59986C8.89395 9.59986 9.61508 10.3198 9.61508 11.1998C9.61508 12.0798 8.89395 12.7998 8.01258 12.7998H6.63111L6.93289 9.59981H8.01258V9.59986Z" fill="#393939"/>
</svg>
