<svg width="14" height="9" viewBox="0 0 14 9" fill="none" xmlns="http://www.w3.org/2000/svg">
<path d="M13.955 4.33929C12.4977 1.67205 9.85172 4.71597e-08 7 4.71597e-08C4.14828 4.71597e-08 1.49944 1.67205 0.0450046 4.33929C-0.0150015 4.4351 -0.0150015 4.5649 0.0450046 4.66071C1.5023 7.32795 4.14828 9 7 9C9.85172 9 12.5006 7.32795 13.955 4.66071C14.015 4.5649 14.015 4.4351 13.955 4.33929ZM7 8.35714C4.41402 8.35714 2.0052 6.87981 0.667925 4.5C2.0052 2.12019 4.41402 0.642857 7 0.642857C9.58598 0.642857 11.9948 2.12019 13.3321 4.5C11.9948 6.87981 9.58598 8.35714 7 8.35714Z" fill="#808080"/>
<path d="M2.67456 -1.88639e-07C1.18869 -1.88639e-07 -1.74404e-07 1.28571 -1.74404e-07 2.89286C-1.74404e-07 4.5 1.18869 5.78571 2.67456 5.78571C4.16042 5.78571 5.34912 4.5 5.34912 2.89286C5.34912 1.28571 4.16042 -1.88639e-07 2.67456 -1.88639e-07ZM2.67456 5.14286C1.51444 5.14286 0.594346 4.14457 0.594346 2.89286C0.594346 1.64114 1.5173 0.642857 2.67456 0.642857C3.83182 0.642857 4.75477 1.64114 4.75477 2.89286C4.75477 4.14457 3.83468 5.14286 2.67456 5.14286Z" transform="translate(4.32568 1.60742)" fill="#808080"/>
<path d="M1.18869 -1.88639e-07V0.642857C1.51444 0.642857 1.78304 0.933379 1.78304 1.28571C1.78304 1.63805 1.51444 1.92857 1.18869 1.92857C0.862945 1.92857 0.594346 1.63805 0.594346 1.28571H-1.74404e-07C-1.74404e-07 1.99348 0.53434 2.57143 1.18869 2.57143C1.84305 2.57143 2.37739 1.99348 2.37739 1.28571C2.37739 0.577953 1.84305 -1.88639e-07 1.18869 -1.88639e-07Z" transform="translate(5.81152 3.21387)" fill="#808080"/>
</svg>
