<svg width="124" height="124" viewBox="0 0 124 124" fill="none" xmlns="http://www.w3.org/2000/svg">
<path d="M31.9507 48.5998V11.3C31.9507 9.5 30.4483 8.00001 28.6455 8.00001H24.0382V3.29999C24.0382 1.49999 22.5358 0 20.6328 0H11.318C9.51516 0 8.01277 1.49999 8.01277 3.29999V8.00001H3.30525C1.50239 8.00001 -4.29837e-07 9.5 -4.29837e-07 11.3V48.6999C-4.29837e-07 50.4999 1.50239 51.9999 3.30525 51.9999H8.11289V56.6999C8.11289 58.4999 9.61528 59.9999 11.4181 59.9999H20.733C22.5358 59.9999 24.0382 58.4999 24.1383 56.6999V51.9999H28.7456C30.5486 51.9998 32.0509 50.4998 31.9507 48.5998ZM2.00322 48.5998V44.391L7.05571 46.0723L2.02775 48.8399C2.01214 48.7618 2.00322 48.6815 2.00322 48.5998ZM29.6504 10.3913C29.8736 10.6285 29.9974 10.9517 29.9476 11.3V14.4887L8.70751 27.0218L3.57439 25.6554L29.6504 10.3913ZM28.3875 34.3301L23.2188 37.1753L2.00322 31.2922V27.3069L28.3875 34.3301ZM11.4206 27.7439L29.9475 16.8118V20.4934L15.871 28.9286L11.4206 27.7439ZM20.7112 38.5555L16.2318 41.0212L2.00311 37.2322V33.3678L20.7112 38.5555ZM9.44251 44.7584L2.00311 42.2828V39.3022L13.6974 42.4163L9.44251 44.7584ZM9.64134 46.9327L9.74803 46.9682L9.78653 46.8528L29.9476 35.7551V40.4925L13.9166 49.8998H4.25117L9.64134 46.9327ZM29.9476 32.6756L25.6695 31.5368L29.9476 28.8646V32.6756ZM29.9476 26.5054L23.021 30.8319L18.5663 29.6461L29.9476 22.826V26.5054ZM26.3583 9.99992L2.00322 24.2565V19.5886L19.2781 9.99992H24.0382H26.3583ZM10.0159 3.29999C10.0159 2.60003 10.6168 2.00003 11.4181 2.00003H20.733C21.434 2.00003 22.035 2.60003 22.035 3.29999V8.00001H10.0159V3.29999ZM3.30525 9.99992H8.01277H15.1556L2.00322 17.3003V11.3C2.00322 10.5999 2.60406 9.99992 3.30525 9.99992ZM21.9349 56.6998C21.9349 57.3997 21.3339 57.9997 20.6328 57.9997H11.318C10.617 57.9997 10.016 57.3997 10.016 56.6998V51.9998H21.9349V56.6998ZM28.6455 49.8998H17.8697L29.9476 42.8123V48.5998C29.9476 49.2998 29.3467 49.8998 28.6455 49.8998Z" transform="translate(58.0889 2) scale(2)" fill="#393939" stroke="white" stroke-width="0.7"/>
<path d="M26.0413 1.00007C26.0413 0.400077 25.6407 0.000117187 25.0398 0.000117187C24.4388 0.000117187 24.0382 0.400077 24.0382 1.00007C24.0382 3.9901 21.8182 6.48748 18.9425 6.93021L19.0302 5.99998C19.0302 2.69999 16.3259 -5.47616e-09 13.0207 -5.47616e-09C9.7154 -5.47616e-09 7.0111 2.69999 7.0111 6.09994L7.0962 6.99993H6.00955C2.7043 6.99993 6.15652e-10 9.69992 6.15652e-10 12.9999C6.15652e-10 16.2999 2.7043 18.9999 6.00955 18.9999H8.23003L9.9309 36.9998H6.00955C2.7043 36.9998 6.15652e-10 39.6998 6.15652e-10 42.9998C6.15652e-10 46.2998 2.7043 48.9998 6.00955 48.9998H11.0647L12.0191 59.0998C12.1192 59.5998 12.5199 59.9998 13.0207 59.9998C13.5214 59.9998 13.9221 59.5998 14.0222 59.0998L14.9747 48.9998H22.0349C22.6358 48.9998 23.0364 48.5998 23.0364 47.9998C23.0364 47.3998 22.6358 46.9999 22.0349 46.9999H15.1633L16.3894 34H20.0318C23.337 34 26.0413 31.3 26.0413 28C26.0413 24.7 23.337 22 20.0318 22H17.5211L18.7504 8.96575C22.8224 8.59813 26.0413 5.15705 26.0413 1.00007ZM6.00955 17.0001C3.80609 17.0001 2.00322 15.2001 2.00322 13.0001C2.00322 10.8002 3.80597 9.00008 6.00955 9.00008H7.28517L8.04106 17.0001H6.00955ZM6.00955 47C3.80609 47 2.00322 45.2 2.00322 43C2.00322 40.8001 3.80597 39 6.00955 39H10.1199L10.8758 47H6.00955ZM12.8884 47L9.29778 9.00008H12.0191V10C12.0191 10.6 12.4197 11 13.0207 11C13.6216 11 14.0222 10.6 14.0222 10V6.00009C14.0222 5.4001 13.6216 5.00014 13.0207 5.00014C12.4197 5.00014 12.0191 5.4001 12.0191 6.00009V7.00005H9.10881L9.01421 6.00009C9.01421 3.80014 10.8171 2.00015 13.0205 2.00015C15.224 2.00015 17.0269 3.80014 17.0269 5.90013L13.1525 47H12.8884ZM20.0318 24C22.2352 24 24.0381 25.8 24.0381 28C24.0381 30.1999 22.2352 31.9999 20.0318 31.9999H16.578L17.3325 23.9999H20.0318V24Z" transform="translate(2 2) scale(2)" fill="#393939" stroke="white" stroke-width="0.7"/>
</svg>
