<svg xmlns="http://www.w3.org/2000/svg" viewBox="0 0 332.19 178"><defs><style>.cls-1{fill:#494949;}</style></defs><title>Ресурс 4</title><g id="Слой_2" data-name="Слой 2"><g id="Слой_1-2" data-name="Слой 1"><path class="cls-1" d="M58.77,147a6.48,6.48,0,0,1-2.34-.44,99.64,99.64,0,0,1-33.57-21.35C14.38,117,1.56,104.56.13,88.81c-2.73-30,37.29-53.35,52.36-62.12C94.54,2.2,136.34.94,158.8.26c22.13-.67,74-2.24,125.11,27.39,15.12,8.76,50.53,29.28,48.18,56.14C331,96,322.35,105.7,314.7,114.27l-.25.27a101,101,0,0,1-32.17,24,6.5,6.5,0,0,1-5.59-11.74,88.06,88.06,0,0,0,28.06-20.92l.25-.27c6.61-7.41,13.44-15.06,14.13-23,1.63-18.62-31-37.54-41.74-43.75-47.94-27.77-97.17-26.28-118.2-25.65-22.8.69-61,1.84-100.16,24.67-11.86,6.9-47.93,27.91-46,49.71,1,10.94,11.29,20.91,18.82,28.18a86.72,86.72,0,0,0,29.22,18.57A6.5,6.5,0,0,1,58.77,147Z"/><path class="cls-1" d="M162.28,178h-1.08A305.4,305.4,0,0,1,53.94,158.18a5,5,0,0,1-2.6-2.24l-12-21.5a5,5,0,0,1,8.73-4.87l11.11,19.9a295.36,295.36,0,0,0,102,18.54h1a295,295,0,0,0,114.9-23.22l6.74-20.21a5,5,0,0,1,9.49,3.16L286,150.08a5,5,0,0,1-2.77,3A305,305,0,0,1,162.28,178Z"/><path class="cls-1" d="M148.62,40.35c-1.54-4.47,7.52-15.64,19.15-14.69,9.39.76,17.17,9.15,15.83,13.49C181.32,46.54,151,47.24,148.62,40.35Z"/><path class="cls-1" d="M160.22,165.58A288.22,288.22,0,0,1,51.71,144.43a6.5,6.5,0,0,1,4.87-12.05,275.27,275.27,0,0,0,103.64,20.2h.43a278.76,278.76,0,0,0,116.11-25.79,6.5,6.5,0,1,1,5.47,11.79,291.84,291.84,0,0,1-121.56,27Z"/><path class="cls-1" d="M318.91,53.31a39.61,39.61,0,0,1,6.32,8.12,24.67,24.67,0,0,1,3.35,11,22.63,22.63,0,0,1-2.68,11.4,34.74,34.74,0,0,1-6.23,8.34,70.25,70.25,0,0,1-15.12,11.13,143,143,0,0,1-16.18,7.76,251.61,251.61,0,0,1-33.49,10.77c-11.32,2.85-22.75,5.08-34.25,6.78a341.83,341.83,0,0,1-34.7,3.38,293.26,293.26,0,0,1-34.86-.68,290.79,290.79,0,0,1-34.44-4.86,289.55,289.55,0,0,1-33.51-9,1.7,1.7,0,0,1,1-3.25h0A298.31,298.31,0,0,0,151.45,125a311.09,311.09,0,0,0,67.75-5.07c11.17-2,22.23-4.55,33.1-7.65A241.26,241.26,0,0,0,284,100.94a131.88,131.88,0,0,0,14.64-7.6A61,61,0,0,0,311,83.79a22.66,22.66,0,0,0,3.93-5.49,10.14,10.14,0,0,0,1.14-5.19,12.15,12.15,0,0,0-1.85-5.23,27,27,0,0,0-4.41-5.3,6.5,6.5,0,0,1,9-9.4Z"/></g></g></svg>