<?xml version="1.0" encoding="utf-8"?>
<!-- Generator: Adobe Illustrator 21.1.0, SVG Export Plug-In . SVG Version: 6.00 Build 0)  -->
<svg version="1.1" xmlns="http://www.w3.org/2000/svg" xmlns:xlink="http://www.w3.org/1999/xlink" x="0px" y="0px"
	 viewBox="0 0 337.3 338" style="enable-background:new 0 0 337.3 338;" xml:space="preserve">
<style type="text/css">
	.st0{fill:none;stroke:#494949;stroke-width:13;stroke-linecap:round;stroke-linejoin:round;stroke-miterlimit:10;}
	.st1{fill:none;stroke:#494949;stroke-width:14.6363;stroke-linejoin:round;stroke-miterlimit:10;}
	.st2{fill:#494949;}
	.st3{fill:none;stroke:#494949;stroke-width:13;stroke-linejoin:round;stroke-miterlimit:10;}
	.st4{fill:none;stroke:#494949;stroke-width:13.34;stroke-linejoin:round;stroke-miterlimit:10;}
	.st5{fill:none;stroke:#000000;stroke-width:13;stroke-linejoin:round;stroke-miterlimit:10;}
	.st6{fill:none;stroke:#000000;stroke-width:14.6363;stroke-linejoin:round;stroke-miterlimit:10;}
	.st7{fill:none;stroke:#000000;stroke-width:13;stroke-linecap:round;stroke-linejoin:round;stroke-miterlimit:10;}
	.st8{fill:none;stroke:#000000;stroke-width:14.636;stroke-linecap:round;stroke-linejoin:round;stroke-miterlimit:10;}
	.st9{fill:none;stroke:#000000;stroke-width:12.4844;stroke-linejoin:round;stroke-miterlimit:10;}
	.st10{fill:none;stroke:#494949;stroke-width:12.1445;stroke-linejoin:round;stroke-miterlimit:10;}
	.st11{fill:none;stroke:#000000;stroke-width:12.1445;stroke-linejoin:round;stroke-miterlimit:10;}
	.st12{fill:none;stroke:#000000;stroke-width:11.2103;stroke-linejoin:round;stroke-miterlimit:10;}
	.st13{fill:none;stroke:#000000;stroke-width:12.3133;stroke-linecap:round;stroke-linejoin:round;stroke-miterlimit:10;}
	.st14{fill:none;stroke:#000000;stroke-width:10.2152;stroke-linejoin:round;stroke-miterlimit:10;}
	.st15{fill:none;stroke:#494949;stroke-width:14.636;stroke-linecap:round;stroke-linejoin:round;stroke-miterlimit:10;}
	.st16{fill:none;stroke:#000000;stroke-width:10;stroke-linecap:round;stroke-miterlimit:10;}
	.st17{filter:url(#Adobe_OpacityMaskFilter);}
	.st18{mask:url(#SVGID_1_);}
	.st19{filter:url(#Adobe_OpacityMaskFilter_1_);}
	.st20{mask:url(#SVGID_2_);}
	.st21{fill:none;stroke:#000000;stroke-width:13;stroke-linecap:round;stroke-miterlimit:10;}
	.st22{fill:none;stroke:#000000;stroke-width:11.0297;stroke-linecap:round;stroke-linejoin:round;stroke-miterlimit:10;}
	.st23{filter:url(#Adobe_OpacityMaskFilter_2_);}
	.st24{mask:url(#SVGID_3_);fill:none;stroke:#000000;stroke-width:11.0297;stroke-linecap:round;stroke-miterlimit:10;}
	.st25{fill:none;stroke:#000000;stroke-width:11.0297;stroke-linecap:round;stroke-miterlimit:10;}
	.st26{fill:none;stroke:#000000;stroke-width:11.9488;stroke-linecap:round;stroke-miterlimit:10;}
	.st27{filter:url(#Adobe_OpacityMaskFilter_3_);}
	.st28{fill:none;stroke:#FFFFFF;stroke-width:13;stroke-linejoin:round;stroke-miterlimit:10;}
	.st29{fill:none;stroke:#FFFFFF;stroke-width:10;stroke-linejoin:round;stroke-miterlimit:10;}
	.st30{mask:url(#SVGID_4_);fill:#020202;}
	.st31{fill:none;stroke:#000000;stroke-width:10;stroke-linecap:round;stroke-linejoin:round;stroke-miterlimit:10;}
	.st32{fill:none;stroke:#FFFFFF;stroke-width:10;stroke-linecap:round;stroke-linejoin:round;}
	.st33{fill:#FFFFFF;}
	.st34{fill:none;stroke:#000000;stroke-width:10;stroke-linecap:round;stroke-linejoin:round;}
	.st35{fill:none;stroke:#494949;stroke-width:10;stroke-linecap:round;stroke-miterlimit:10;}
	.st36{fill:none;stroke:#494949;stroke-width:12;stroke-linecap:round;stroke-miterlimit:10;}
	.st37{fill:none;stroke:#494949;stroke-width:12.9013;stroke-miterlimit:10;}
	.st38{fill:none;stroke:#494949;stroke-width:10;stroke-miterlimit:10;}
	.st39{fill:none;stroke:#00F9F2;stroke-width:5;stroke-miterlimit:10;}
	.st40{fill:#00F9F2;}
	.st41{fill:none;stroke:#494949;stroke-width:11;stroke-miterlimit:10;}
	.st42{fill:none;stroke:#494949;stroke-width:10;stroke-linejoin:round;stroke-miterlimit:10;}
	.st43{fill:none;stroke:#494949;stroke-width:12.8445;stroke-linecap:round;stroke-linejoin:round;stroke-miterlimit:10;}
	.st44{fill:none;stroke:#000000;stroke-width:9.9006;stroke-linecap:round;stroke-linejoin:round;}
	
		.st45{fill:none;stroke:#000000;stroke-width:9.9006;stroke-linecap:round;stroke-linejoin:round;stroke-dasharray:25.9068,25.9068;}
	
		.st46{fill:none;stroke:#000000;stroke-width:9.9006;stroke-linecap:round;stroke-linejoin:round;stroke-dasharray:39.7013,39.7013;}
	
		.st47{fill:none;stroke:#000000;stroke-width:9.9006;stroke-linecap:round;stroke-linejoin:round;stroke-dasharray:39.6982,39.6982;}
	.st48{fill:none;}
	.st49{fill:none;stroke:#494949;stroke-width:10;stroke-linecap:round;stroke-linejoin:round;}
	.st50{fill:none;stroke:#494949;stroke-width:10;stroke-linecap:round;stroke-linejoin:round;stroke-dasharray:29.277,27.7361;}
	.st51{fill:none;stroke:#494949;stroke-width:10;stroke-linecap:round;stroke-linejoin:round;stroke-dasharray:20.9682,19.8646;}
	.st52{fill:none;stroke:#494949;stroke-width:10;stroke-linecap:round;stroke-linejoin:round;stroke-dasharray:18.011,17.0631;}
	.st53{fill:none;stroke:#494949;stroke-width:13;stroke-linecap:round;stroke-miterlimit:10;}
	.st54{fill:none;stroke:#494949;stroke-width:10;stroke-linecap:round;stroke-linejoin:round;stroke-miterlimit:10;}
	.st55{fill:none;stroke:#494949;stroke-width:11.2762;stroke-linecap:round;stroke-linejoin:round;stroke-miterlimit:10;}
	.st56{fill:none;stroke:#494949;stroke-width:12.901;stroke-linecap:round;stroke-miterlimit:10;}
	.st57{fill:none;stroke:#494949;stroke-width:11.2103;stroke-linejoin:round;stroke-miterlimit:10;}
	.st58{fill:none;stroke:#494949;stroke-width:13;stroke-linecap:round;stroke-linejoin:round;}
	.st59{fill:none;stroke:#494949;stroke-width:9;stroke-linecap:round;stroke-miterlimit:10;}
	.st60{fill:none;stroke:#494949;stroke-width:12.5238;stroke-linecap:round;stroke-linejoin:round;stroke-miterlimit:10;}
	.st61{fill:none;stroke:#494949;stroke-width:13;stroke-linecap:round;stroke-linejoin:round;stroke-dasharray:0,24.2514,0,0,0,0;}
	.st62{fill:none;stroke:#494949;stroke-width:13;stroke-linecap:round;stroke-linejoin:round;stroke-dasharray:0,24.2003,0,0,0,0;}
	.st63{filter:url(#Adobe_OpacityMaskFilter_4_);}
	.st64{mask:url(#SVGID_5_);}
	.st65{filter:url(#Adobe_OpacityMaskFilter_5_);}
	.st66{mask:url(#SVGID_6_);}
	.st67{filter:url(#Adobe_OpacityMaskFilter_6_);}
	.st68{mask:url(#SVGID_7_);}
	.st69{filter:url(#Adobe_OpacityMaskFilter_7_);}
	.st70{fill:none;stroke:#494949;stroke-width:13.7883;stroke-linecap:round;stroke-linejoin:round;stroke-miterlimit:10;}
	.st71{fill:#494949;stroke:#494949;stroke-width:5;stroke-linecap:round;stroke-linejoin:round;stroke-miterlimit:10;}
	.st72{fill:#494949;stroke:#494949;stroke-width:10;stroke-linecap:round;stroke-linejoin:round;stroke-miterlimit:10;}
	.st73{fill:none;stroke:#494949;stroke-width:13.4738;stroke-linecap:round;stroke-linejoin:round;stroke-miterlimit:10;}
	.st74{fill:none;stroke:#494949;stroke-width:13.3712;stroke-linecap:round;stroke-miterlimit:10;}
	.st75{filter:url(#Adobe_OpacityMaskFilter_8_);}
	.st76{fill:none;stroke:#000000;stroke-width:11.6846;stroke-linecap:round;stroke-miterlimit:10;}
	.st77{fill:none;stroke:#000000;stroke-width:11.6846;stroke-linejoin:round;stroke-miterlimit:10;}
	.st78{mask:url(#SVGID_8_);fill:#494949;stroke:#494949;stroke-width:13;stroke-linejoin:round;stroke-miterlimit:10;}
	.st79{filter:url(#Adobe_OpacityMaskFilter_9_);}
	.st80{mask:url(#SVGID_9_);fill:#494949;stroke:#494949;stroke-width:13;stroke-linejoin:round;stroke-miterlimit:10;}
	.st81{fill:none;stroke:#494949;stroke-width:12.2229;stroke-linecap:round;stroke-linejoin:round;stroke-miterlimit:10;}
	.st82{filter:url(#Adobe_OpacityMaskFilter_10_);}
	.st83{mask:url(#SVGID_10_);}
	.st84{filter:url(#Adobe_OpacityMaskFilter_11_);}
	.st85{filter:url(#Adobe_OpacityMaskFilter_12_);}
	.st86{mask:url(#SVGID_11_);}
	.st87{filter:url(#Adobe_OpacityMaskFilter_13_);}
	.st88{mask:url(#SVGID_12_);}
	.st89{filter:url(#Adobe_OpacityMaskFilter_14_);}
	
		.st90{mask:url(#SVGID_13_);fill:none;stroke:#494949;stroke-width:13;stroke-linecap:round;stroke-linejoin:round;stroke-miterlimit:10;}
	.st91{filter:url(#Adobe_OpacityMaskFilter_15_);}
	
		.st92{mask:url(#SVGID_14_);fill:none;stroke:#494949;stroke-width:13;stroke-linecap:round;stroke-linejoin:round;stroke-miterlimit:10;}
	.st93{fill:none;stroke:#494949;stroke-width:13.54;stroke-linecap:round;stroke-linejoin:round;stroke-miterlimit:10;}
	.st94{fill:none;stroke:#494949;stroke-width:11.8606;stroke-linecap:round;stroke-linejoin:round;stroke-miterlimit:10;}
	.st95{fill:none;stroke:#494949;stroke-width:9.856;stroke-linecap:round;stroke-miterlimit:10;}
	.st96{fill:none;stroke:#494949;stroke-width:9.9275;stroke-linecap:round;stroke-miterlimit:10;}
	.st97{fill:none;stroke:#494949;stroke-width:10.0726;stroke-linecap:round;stroke-miterlimit:10;}
	.st98{fill:none;stroke:#494949;stroke-width:14.2824;stroke-linecap:round;stroke-linejoin:round;stroke-miterlimit:10;}
	.st99{fill:none;stroke:#494949;stroke-width:14.3433;stroke-linecap:round;stroke-linejoin:round;stroke-miterlimit:10;}
	.st100{fill:none;stroke:#494949;stroke-width:13;stroke-miterlimit:10;}
	.st101{filter:url(#Adobe_OpacityMaskFilter_16_);}
	
		.st102{mask:url(#SVGID_15_);fill:none;stroke:#494949;stroke-width:13;stroke-linecap:round;stroke-linejoin:round;stroke-miterlimit:10;}
	.st103{filter:url(#Adobe_OpacityMaskFilter_17_);}
	.st104{mask:url(#SVGID_16_);}
	.st105{fill:none;stroke:#494949;stroke-width:8;stroke-linecap:round;stroke-linejoin:round;stroke-miterlimit:10;}
	.st106{fill:none;stroke:#FFCB00;stroke-width:10;stroke-linecap:round;stroke-miterlimit:10;}
	.st107{fill:none;stroke:#038057;stroke-width:10;stroke-linecap:round;stroke-linejoin:round;stroke-miterlimit:10;}
	.st108{fill:none;stroke:#038057;stroke-width:9;stroke-linecap:round;stroke-linejoin:round;stroke-miterlimit:10;}
	.st109{fill:none;stroke:#FFCB00;stroke-width:10;stroke-linecap:round;stroke-linejoin:round;stroke-miterlimit:10;}
	.st110{filter:url(#Adobe_OpacityMaskFilter_18_);}
	
		.st111{mask:url(#SVGID_17_);fill:none;stroke:#038057;stroke-width:9;stroke-linecap:round;stroke-linejoin:round;stroke-miterlimit:10;}
	.st112{filter:url(#Adobe_OpacityMaskFilter_19_);}
	
		.st113{mask:url(#SVGID_18_);fill:none;stroke:#038057;stroke-width:9;stroke-linecap:round;stroke-linejoin:round;stroke-miterlimit:10;}
	.st114{fill:none;stroke:#FFCB00;stroke-width:9;stroke-linecap:round;stroke-linejoin:round;stroke-miterlimit:10;}
	.st115{filter:url(#Adobe_OpacityMaskFilter_20_);}
	.st116{mask:url(#SVGID_19_);}
	.st117{filter:url(#Adobe_OpacityMaskFilter_21_);}
	.st118{filter:url(#Adobe_OpacityMaskFilter_22_);}
	.st119{filter:url(#Adobe_OpacityMaskFilter_23_);}
	
		.st120{mask:url(#SVGID_20_);fill:none;stroke:#038057;stroke-width:9;stroke-linecap:round;stroke-linejoin:round;stroke-miterlimit:10;}
	.st121{fill:#FCFCFC;}
	.st122{fill:none;stroke:#FFCB00;stroke-width:8;stroke-linecap:round;stroke-linejoin:round;stroke-miterlimit:10;}
	.st123{fill:none;stroke:#FFCB00;stroke-width:7;stroke-linecap:round;stroke-linejoin:round;stroke-miterlimit:10;}
	.st124{fill:none;stroke:#FFCB00;stroke-width:5;stroke-linecap:round;stroke-miterlimit:10;}
	.st125{filter:url(#Adobe_OpacityMaskFilter_24_);}
	.st126{mask:url(#SVGID_21_);}
	.st127{filter:url(#Adobe_OpacityMaskFilter_25_);}
	.st128{filter:url(#Adobe_OpacityMaskFilter_26_);}
	.st129{fill:none;stroke:#038057;stroke-width:11;stroke-linecap:round;stroke-linejoin:round;stroke-miterlimit:10;}
	.st130{filter:url(#Adobe_OpacityMaskFilter_27_);}
	
		.st131{mask:url(#SVGID_22_);fill:none;stroke:#038057;stroke-width:11;stroke-linecap:round;stroke-linejoin:round;stroke-miterlimit:10;}
	.st132{fill:none;stroke:#FFCB00;stroke-width:11;stroke-linecap:round;stroke-linejoin:round;stroke-miterlimit:10;}
	.st133{fill:none;stroke:#038057;stroke-width:8;stroke-linecap:round;stroke-linejoin:round;stroke-miterlimit:10;}
	.st134{fill:#038057;}
	.st135{fill:#FFCB00;}
	.st136{fill:none;stroke:#494949;stroke-width:13;stroke-linecap:round;stroke-linejoin:round;stroke-dasharray:22.6216,22.6216;}
	.st137{fill:none;stroke:#494949;stroke-width:13;stroke-linecap:round;stroke-linejoin:round;stroke-dasharray:26.985,26.985;}
	.st138{fill:none;stroke:#494949;stroke-width:13;stroke-linecap:round;stroke-linejoin:round;stroke-dasharray:26.9622,26.9622;}
	.st139{fill:none;stroke:#494949;stroke-width:11.0534;stroke-linecap:round;stroke-linejoin:round;stroke-miterlimit:10;}
	.st140{fill:none;stroke:#494949;stroke-width:11.7237;stroke-linecap:round;stroke-linejoin:round;stroke-miterlimit:10;}
	.st141{fill:none;stroke:#494949;stroke-width:8.8696;stroke-linecap:round;stroke-linejoin:round;stroke-miterlimit:10;}
	.st142{filter:url(#Adobe_OpacityMaskFilter_28_);}
	.st143{mask:url(#SVGID_23_);fill:none;stroke:#494949;stroke-width:13;stroke-miterlimit:10;}
	.st144{filter:url(#Adobe_OpacityMaskFilter_29_);}
	.st145{mask:url(#SVGID_24_);}
	.st146{filter:url(#Adobe_OpacityMaskFilter_30_);}
	.st147{mask:url(#SVGID_25_);}
	.st148{filter:url(#Adobe_OpacityMaskFilter_31_);}
	.st149{fill:#494949;stroke:#494949;stroke-width:13;stroke-linejoin:round;stroke-miterlimit:10;}
	.st150{filter:url(#Adobe_OpacityMaskFilter_32_);}
	.st151{mask:url(#SVGID_26_);fill:#494949;stroke:#494949;stroke-width:13;stroke-linejoin:round;stroke-miterlimit:10;}
	.st152{fill:none;stroke:#FFFFFF;stroke-width:11.6846;stroke-linecap:round;stroke-miterlimit:10;}
	.st153{filter:url(#Adobe_OpacityMaskFilter_33_);}
	.st154{mask:url(#SVGID_27_);}
	.st155{fill:none;stroke:#494949;stroke-width:11.6846;stroke-linecap:round;stroke-miterlimit:10;}
</style>
<g id="Слой_1">
	<g>
		<path class="st2" d="M139.7,289.9c-19.5,0-35.9-2.4-46.1-3.8c-23.9-3.4-37-7.8-44.7-10.8c-17-6.6-38.2-14.7-41-31.9
			c-1-6.2,0.5-12.7,4.5-19.3c1.4-2.4,4.5-3.1,6.9-1.7c2.4,1.4,3.1,4.5,1.7,6.9c-2.7,4.5-3.8,8.7-3.2,12.5
			c1.9,11.5,20.1,18.5,34.7,24.1c7.3,2.8,19.7,6.9,42.5,10.2c11.4,1.6,30.4,4.4,52.5,3.6c50.8-1.8,89-20.8,107.4-29.9
			c21.2-10.5,41.3-23.6,59.8-38.9c3.3-4.7,5.7-9.9,7.2-15.5c2.6-9.9,1.3-18.7-0.2-24.2c-0.7-2.7,0.9-5.4,3.6-6.2
			c2.7-0.7,5.4,0.9,6.2,3.6c1.8,6.7,3.3,17.3,0.2,29.4c-1.8,7-4.9,13.5-9.1,19.4l-0.4,0.5l-0.5,0.4c-19.2,16-40.2,29.6-62.2,40.6
			c-19,9.4-58.6,29.1-111.5,30.9C145.1,289.8,142.4,289.9,139.7,289.9z"/>
	</g>
	<g>
		<path class="st2" d="M89.3,266c-8.1-1.6-16.3-3.3-24.5-5.2c-8.2-1.9-16.4-3.9-24.5-6.8c-4-1.5-8.1-3.3-12-5.5
			c-3.9-2.3-7.6-5.1-10.7-8.9c-1.5-1.9-2.8-4-3.9-6.3c-0.2-0.6-0.5-1.1-0.7-1.7l-0.6-1.8c-0.4-1.2-0.6-2.5-0.8-3.7
			c-0.7-5.1,0.2-10,1.5-14.4c2.8-8.8,7.2-16.2,11.5-23.5c4.4-7.2,9.1-14.1,13.7-21.1c2.3-3.4,4.7-6.9,7.2-10.4
			c2.5-3.4,5-6.8,7.7-10.2c5.3-6.7,10.8-13.1,16.7-19.2c5.9-6.2,12-12.1,18.4-17.7l4.9-4.1l4.8-4c3.2-2.7,6.6-5.3,10.1-7.9
			c6.9-5.2,14.7-9.8,22.8-13.2c8.1-3.5,16.5-6.1,25.1-7.7c8.6-1.7,17.3-2.4,25.6-2.8c8.6-0.5,17.2-0.3,25.7,0.3
			c8.6,0.6,17.1,1.9,25.5,3.7c4.2,0.9,8.4,1.9,12.6,3.2c4,1.2,8,2.4,12.1,3.7c8.1,2.6,16.3,5.6,24.1,9.7c3.9,2,7.7,4.3,11.4,6.8
			l2.7,2l1.4,1l1.3,1.1l2.6,2.1c0.8,0.7,1.6,1.5,2.5,2.3c6.5,6.2,12.1,13.4,16.3,21.3c4.3,7.9,7.2,16.4,9.3,24.7
			c0.5,2.1,1,4.2,1.5,6.2c0.5,2.1,0.9,4,1.4,6.2c0.9,4.3,1.6,8.7,1.9,13.3c0.3,4.6,0.1,9.5-1.2,14.5c-0.7,2.5-1.6,4.7-2.7,6.9
			c-1.1,2.2-2.4,4.3-3.8,6.2c-2.8,3.9-6.2,7.2-9.7,10.1c-1.8,1.5-3.4,2.6-5.1,4l-2.5,1.9l-2.6,1.9c-6.9,5-14.1,9.5-21.5,13.7
			c-14.8,8.4-30.3,15.3-46.3,20.8c-8,2.8-16.1,5.2-24.2,7.3c-8.2,2.1-16.4,3.9-24.7,5.4c-4.2,0.7-8.3,1.3-12.5,1.9
			c-2.1,0.3-4.2,0.5-6.3,0.7l-1.6,0.1l-0.9,0.1l-0.8,0l-3.1,0.1c-8.3,0.3-16.8,0.4-25.2,0c-8.4-0.4-16.8-1.2-25.1-2.4
			C105.7,269.3,97.4,267.7,89.3,266z M90.6,259.6c16.2,3.4,32.4,5.9,48.8,6.3c8.2,0.2,16.3,0.1,24.6-0.5l3.1-0.2l0.7-0.1l0.1,0
			l0.2,0l0.4,0l1.5-0.2c2-0.2,4-0.5,6-0.8c4-0.6,8.1-1.3,12.1-2.1c32.1-6.5,63.1-18.4,90.9-35.2c7-4.2,13.7-8.7,20.1-13.6l2.4-1.8
			l2.4-1.9c1.5-1.3,3.2-2.5,4.6-3.8c2.9-2.5,5.4-5.1,7.3-8c1-1.4,1.9-2.9,2.6-4.5c0.7-1.5,1.3-3.2,1.7-4.7c0.8-3.1,1-6.6,0.7-10.3
			c-0.2-3.7-0.9-7.5-1.7-11.4c-0.4-1.9-0.9-4-1.3-5.9c-0.5-2-0.9-3.9-1.5-5.9c-2-7.7-4.6-15.1-8.3-21.8c-1.8-3.4-3.9-6.6-6.2-9.6
			c-2.4-3-4.8-5.9-7.6-8.5c-0.7-0.6-1.4-1.3-2.1-2l-2.2-1.8l-1.1-0.9l-1.2-0.9l-2.3-1.7c-3.2-2.1-6.5-4.2-10-6
			c-6.9-3.6-14.4-6.4-22.1-8.9c-3.9-1.2-7.8-2.4-11.8-3.6c-3.8-1.1-7.7-2.1-11.6-2.9c-7.8-1.7-15.8-2.8-23.8-3.4
			c-8-0.6-16-0.7-24-0.3c-8.2,0.4-16.1,1.1-23.9,2.6c-7.7,1.5-15.2,3.8-22.4,6.9c-7.2,3.1-13.8,7-20.2,11.7
			c-3.2,2.4-6.4,4.9-9.5,7.5l-4.8,3.9l-4.6,3.9c-6.1,5.3-12,10.9-17.7,16.7c-5.7,5.8-11.1,11.9-16.2,18.2c-2.6,3.2-5,6.4-7.5,9.6
			c-2.4,3.3-4.7,6.6-7.1,10c-4.8,6.8-9.5,13.5-14,20.3C30,201,25.7,208,23.1,214.9c-1.3,3.5-2,6.9-1.8,10.1c0.1,0.8,0.1,1.6,0.4,2.4
			l0.3,1.2c0.1,0.4,0.3,0.8,0.4,1.2c0.6,1.5,1.4,3,2.4,4.4c2,2.8,4.8,5.2,8,7.3c3.2,2.1,6.7,3.9,10.4,5.4c7.4,3.1,15.3,5.3,23.3,7.4
			C74.4,256.2,82.5,257.9,90.6,259.6z"/>
	</g>
	<g>
		<path class="st2" d="M226.8,251.8c8.1-2.6,16.1-5.7,23.5-9.8c7.4-4.1,14.3-9.1,19.9-15.3c1.4-1.5,2.7-3.2,4.1-4.9
			c1.4-1.7,2.8-3.4,4.3-5.1c2.9-3.3,6-6.6,9.3-9.6c6.5-6.1,13.6-11.5,21.1-16.2c0.7-0.4,1.5-0.2,2,0.5c0.4,0.6,0.2,1.5-0.4,1.9
			c-7.1,5-13.7,10.6-19.7,16.9c-3,3.1-5.8,6.4-8.5,9.8c-1.3,1.7-2.6,3.4-3.9,5.2c-1.3,1.7-2.6,3.6-4,5.4c-5.8,7.1-13,12.9-20.6,17.8
			c-7.7,4.8-15.9,8.6-24.3,11.8c-2.2,0.8-4.7-0.3-5.5-2.5c-0.8-2.2,0.3-4.7,2.5-5.5C226.6,251.8,226.6,251.8,226.8,251.8
			L226.8,251.8z"/>
	</g>
</g>
<g id="Слой_2">
</g>
</svg>
