<svg width="17" height="15" viewBox="0 0 17 15" fill="none" xmlns="http://www.w3.org/2000/svg">
<path d="M1.45932 9.27562e-08C0.65465 9.27562e-08 1.89893e-07 0.639548 1.89893e-07 1.42565C1.89893e-07 2.21176 0.65465 2.85131 1.45932 2.85131C2.26399 2.85131 2.91864 2.21176 2.91864 1.42565C2.9186 0.639548 2.26395 9.27562e-08 1.45932 9.27562e-08ZM1.45932 2.05523C1.10393 2.05523 0.814812 1.77275 0.814812 1.42559C0.814812 1.0784 1.10396 0.795952 1.45932 0.795952C1.81468 0.795952 2.10382 1.07843 2.10382 1.42559C2.10382 1.77281 1.81468 2.05523 1.45932 2.05523Z" transform="translate(5.49854 12.1484)" fill="#616161"/>
<path d="M1.45932 9.27562e-08C0.65465 9.27562e-08 4.27259e-07 0.639548 4.27259e-07 1.42565C4.27259e-07 2.21176 0.65465 2.85131 1.45932 2.85131C2.26399 2.85131 2.91864 2.21176 2.91864 1.42565C2.9186 0.639548 2.26395 9.27562e-08 1.45932 9.27562e-08ZM1.45932 2.05523C1.10393 2.05523 0.814813 1.77275 0.814813 1.42559C0.814813 1.0784 1.10396 0.795952 1.45932 0.795952C1.81471 0.795952 2.10382 1.07843 2.10382 1.42559C2.10382 1.77281 1.81468 2.05523 1.45932 2.05523Z" transform="translate(10.6172 12.1484)" fill="#616161"/>
<path d="M6.24575 1.54594e-07H0.407406C0.182395 1.54594e-07 7.12099e-08 0.178187 7.12099e-08 0.398008C7.12099e-08 0.617828 0.182427 0.796015 0.407406 0.796015H6.24575C6.47076 0.796015 6.65315 0.617828 6.65315 0.398008C6.65315 0.178155 6.47076 1.54594e-07 6.24575 1.54594e-07Z" transform="translate(6.18994 4.64258)" fill="#616161"/>
<path d="M5.61019 1.15945e-07H0.407406C0.182395 1.15945e-07 6.32977e-08 0.178187 6.32977e-08 0.398008C6.32977e-08 0.617828 0.182395 0.796015 0.407406 0.796015H5.61016C5.83517 0.796015 6.01756 0.617828 6.01756 0.398008C6.01756 0.178219 5.83517 1.15945e-07 5.61019 1.15945e-07Z" transform="translate(6.50781 6.70996)" fill="#616161"/>
<path d="M16.4097 2.86942C16.2544 2.68312 16.0241 2.5763 15.7781 2.5763H3.08782L2.83154 1.36088C2.77803 1.10734 2.60102 0.894449 2.35792 0.79133L0.569722 0.0330546C0.36328 -0.0545508 0.123361 0.0379936 0.0338166 0.239609C-0.0558251 0.441289 0.0389047 0.675705 0.245249 0.763184L2.03348 1.52149L4.00475 10.8697C4.0824 11.2378 4.41803 11.5051 4.80281 11.5051H14.5631C14.7881 11.5051 14.9705 11.3269 14.9705 11.107C14.9705 10.8872 14.7881 10.709 14.5631 10.709H4.80284L4.56305 9.57191H14.6386C15.0233 9.57191 15.359 9.30469 15.4366 8.93654L16.5762 3.53284C16.6258 3.29753 16.5651 3.05568 16.4097 2.86942ZM14.6386 8.77596H4.39521L3.2557 3.37228L15.7781 3.37232L14.6386 8.77596Z" fill="#616161"/>
</svg>
