<svg width="13" height="11" viewBox="0 0 13 11" fill="none" xmlns="http://www.w3.org/2000/svg">
<path d="M12.0515 1.08057C11.4103 0.383748 10.5208 1.07611e-08 9.54688 1.07611e-08C8.1771 1.07611e-08 7.30988 0.783546 6.8236 1.44088C6.69744 1.61145 6.59011 1.78248 6.5 1.94342C6.40989 1.78248 6.30259 1.61145 6.1764 1.44088C5.69012 0.783546 4.8229 1.07611e-08 3.45312 1.07611e-08C2.47919 1.07611e-08 1.58968 0.383773 0.948467 1.0806C0.336857 1.74532 0 2.63558 0 3.58736C0 4.62341 0.422322 5.58704 1.32907 6.6199C2.13946 7.54303 3.30533 8.49457 4.65537 9.59643C5.15844 10.007 5.67866 10.4316 6.23251 10.8957L6.24914 10.9097C6.32095 10.9699 6.41047 11 6.5 11C6.58953 11 6.67905 10.9699 6.75086 10.9097L6.76749 10.8957C7.32134 10.4316 7.84156 10.007 8.34471 9.59638C9.69467 8.4946 10.8605 7.54306 11.6709 6.6199C12.5777 5.58701 13 4.62341 13 3.58736C13 2.63558 12.6631 1.74532 12.0515 1.08057ZM7.8506 9.04113C7.41693 9.39507 6.97062 9.75934 6.5 10.1512C6.02941 9.75939 5.58307 9.39509 5.14932 9.04109C2.5072 6.88468 0.761719 5.46007 0.761719 3.58736C0.761719 2.8133 1.03099 2.09435 1.51993 1.56296C2.01449 1.02554 2.70103 0.729559 3.45312 0.729559C4.49742 0.729559 5.17248 1.34574 5.55486 1.86266C5.89786 2.32627 6.07684 2.79363 6.13788 2.97303C6.18894 3.12319 6.33511 3.22482 6.5 3.22482C6.66489 3.22482 6.81106 3.12319 6.86212 2.97303C6.92316 2.79363 7.10214 2.32627 7.44514 1.86264C7.82752 1.34574 8.50258 0.729559 9.54688 0.729559C10.299 0.729559 10.9855 1.02554 11.48 1.56296C11.969 2.09435 12.2383 2.8133 12.2383 3.58736C12.2383 5.46007 10.4928 6.88468 7.8506 9.04113Z" fill="#808080"/>
</svg>
