<svg width="16" height="15" viewBox="0 0 16 15" fill="none" xmlns="http://www.w3.org/2000/svg">
<path d="M14.8326 1.47351C14.0435 0.523293 12.9487 0 11.75 0C10.0641 0 8.99678 1.06847 8.39828 1.96484C8.243 2.19743 8.11091 2.43066 8 2.65012C7.88909 2.43066 7.75703 2.19743 7.60172 1.96484C7.00322 1.06847 5.93587 0 4.25 0C3.05131 0 1.95653 0.523326 1.16734 1.47354C0.414594 2.37999 0 3.59397 0 4.89186C0 6.30465 0.519781 7.61869 1.63578 9.02713C2.63319 10.286 4.06809 11.5835 5.72969 13.086C6.34884 13.6459 6.98912 14.2249 7.67078 14.8578L7.69125 14.8769C7.77962 14.959 7.88981 15 8 15C8.11019 15 8.22038 14.9589 8.30875 14.8769L8.32922 14.8578C9.01087 14.2249 9.65116 13.646 10.2704 13.086C11.9319 11.5835 13.3668 10.286 14.3642 9.02713C15.4802 7.61865 16 6.30465 16 4.89186C16 3.59397 15.5854 2.37999 14.8326 1.47351ZM9.66228 12.3288C9.12853 12.8115 8.57922 13.3082 8 13.8425C7.42081 13.3083 6.87147 12.8115 6.33763 12.3288C3.08578 9.3882 0.9375 7.44555 0.9375 4.89186C0.9375 3.83632 1.26891 2.85593 1.87069 2.13131C2.47937 1.39847 3.32434 0.994853 4.25 0.994853C5.53528 0.994853 6.36613 1.83511 6.83675 2.53999C7.25891 3.17219 7.47919 3.80949 7.55431 4.05413C7.61716 4.2589 7.79706 4.39748 8 4.39748C8.20294 4.39748 8.38284 4.2589 8.44569 4.05413C8.52081 3.80949 8.74109 3.17219 9.16325 2.53996C9.63387 1.83511 10.4647 0.994853 11.75 0.994853C12.6757 0.994853 13.5206 1.39847 14.1293 2.13131C14.7311 2.85593 15.0625 3.83632 15.0625 4.89186C15.0625 7.44555 12.9142 9.3882 9.66228 12.3288Z" fill="#616161"/>
</svg>
