<svg width="16" height="15" viewBox="0 0 16 15" fill="none" xmlns="http://www.w3.org/2000/svg">
<path d="M4.01995 8.41806C6.23957 8.41806 8.03991 6.53013 8.03991 4.20257C8.03991 1.87502 6.23955 -1.06635e-09 4.01995 -1.06635e-09C1.80036 -1.06635e-09 -1.30161e-08 1.88793 -1.30161e-08 4.20257C-1.30161e-08 6.51722 1.80033 8.41806 4.01995 8.41806ZM4.01995 1.09914C5.64766 1.09914 6.97944 2.49567 6.97944 4.20257C6.97944 5.90948 5.64766 7.30598 4.01995 7.30598C2.39225 7.30598 1.06047 5.90945 1.06047 4.20255C1.06047 2.49564 2.39222 1.09914 4.01995 1.09914Z" transform="translate(12.5354) scale(-1 1)" fill="#616161"/>
<path d="M0.530234 5.84479H14.4891C14.7851 5.84479 15.0193 5.59911 15.0193 5.28877C15.0193 2.3793 12.7628 -1.43317e-07 9.9759 -1.43317e-07H5.04345C2.26894 -1.43317e-07 0 2.36636 0 5.28877C0 5.59911 0.234288 5.84479 0.530234 5.84479ZM5.04345 1.11205H9.9759C11.9982 1.11205 13.6629 2.68964 13.9219 4.73271H1.09747C1.35641 2.70258 3.02114 1.11205 5.04345 1.11205Z" transform="translate(16 9.15527) scale(-1 1)" fill="#616161"/>
</svg>
