<svg xmlns="http://www.w3.org/2000/svg" xmlns:xlink="http://www.w3.org/1999/xlink" viewBox="0 0 437.36 235.1"><defs><style>.cls-1{filter:url(#luminosity-noclip);}.cls-2{mask:url(#mask);}.cls-3{fill:none;stroke:#494949;stroke-linecap:round;stroke-linejoin:round;stroke-width:13px;}.cls-4{mask:url(#mask-2);}.cls-5{mask:url(#mask-3);}.cls-6{filter:url(#luminosity-noclip-3);}.cls-7{filter:url(#luminosity-noclip-2);}</style><filter id="luminosity-noclip" x="12.87" y="3.68" width="411.62" height="227.74" filterUnits="userSpaceOnUse" color-interpolation-filters="sRGB"><feFlood flood-color="#fff" result="bg"/><feBlend in="SourceGraphic" in2="bg"/></filter><mask id="mask" x="12.87" y="3.68" width="411.62" height="227.74" maskUnits="userSpaceOnUse"><rect class="cls-1" x="25.73" y="102.95" width="385.75" height="29.08"/></mask><mask id="mask-2" x="12.87" y="3.68" width="411.62" height="227.74" maskUnits="userSpaceOnUse"><g class="cls-7"><rect x="73.68" y="103.03" width="273" height="29"/><rect x="204.18" y="60.68" width="29" height="118"/></g></mask><filter id="luminosity-noclip-3" x="-83.32" y="-38.82" width="572" height="312" filterUnits="userSpaceOnUse" color-interpolation-filters="sRGB"><feFlood flood-color="#fff" result="bg"/><feBlend in="SourceGraphic" in2="bg"/></filter><mask id="mask-3" x="-83.32" y="-38.82" width="572" height="312" maskUnits="userSpaceOnUse"><g class="cls-6"><rect x="204.28" y="-35.4" width="28.81" height="305.91" transform="translate(235.62 -130.14) rotate(65.65)"/><rect x="204.28" y="-35.4" width="28.81" height="305.91" transform="translate(415.11 -34.29) rotate(114.04)"/><rect x="73.68" y="103.01" width="273" height="28.97"/><rect x="204.18" y="60.68" width="29" height="118"/><rect x="417.68" y="-38.82" width="71" height="293"/><rect x="-26.32" y="-16.82" width="471" height="27"/><rect x="-83.32" y="1.18" width="99" height="243"/><rect x="-7.32" y="226.18" width="476" height="47"/></g></mask></defs><title>britРесурс 14</title><g id="Слой_2" data-name="Слой 2"><g id="Слой_1-2" data-name="Слой 1"><g class="cls-2"><rect class="cls-3" x="19.37" y="10.18" width="398.62" height="214.74"/><g class="cls-4"><rect class="cls-3" x="197.68" y="10.18" width="41.99" height="214.74"/><rect class="cls-3" x="197.68" y="-81.76" width="41.99" height="398.62" transform="translate(336.23 -101.13) rotate(90)"/></g><g class="cls-5"><rect class="cls-3" x="197.68" y="-105.41" width="41.99" height="445.93" transform="translate(235.62 -130.14) rotate(65.65)"/><rect class="cls-3" x="197.68" y="-105.41" width="41.99" height="445.93" transform="translate(415.11 -34.29) rotate(114.04)"/></g></g></g></g></svg>