<?xml version="1.0" encoding="utf-8"?>
<!-- Generator: Adobe Illustrator 21.1.0, SVG Export Plug-In . SVG Version: 6.00 Build 0)  -->
<svg version="1.1" xmlns="http://www.w3.org/2000/svg" xmlns:xlink="http://www.w3.org/1999/xlink" x="0px" y="0px"
	 viewBox="0 0 337.3 338" style="enable-background:new 0 0 337.3 338;" xml:space="preserve">
<style type="text/css">
	.st0{fill:none;stroke:#494949;stroke-width:13;stroke-linecap:round;stroke-linejoin:round;stroke-miterlimit:10;}
	.st1{fill:none;stroke:#494949;stroke-width:14.6363;stroke-linejoin:round;stroke-miterlimit:10;}
	.st2{fill:#494949;}
	.st3{fill:none;stroke:#494949;stroke-width:13;stroke-linejoin:round;stroke-miterlimit:10;}
	.st4{fill:none;stroke:#494949;stroke-width:13.34;stroke-linejoin:round;stroke-miterlimit:10;}
	.st5{fill:none;stroke:#000000;stroke-width:13;stroke-linejoin:round;stroke-miterlimit:10;}
	.st6{fill:none;stroke:#000000;stroke-width:14.6363;stroke-linejoin:round;stroke-miterlimit:10;}
	.st7{fill:none;stroke:#000000;stroke-width:13;stroke-linecap:round;stroke-linejoin:round;stroke-miterlimit:10;}
	.st8{fill:none;stroke:#000000;stroke-width:14.636;stroke-linecap:round;stroke-linejoin:round;stroke-miterlimit:10;}
	.st9{fill:none;stroke:#000000;stroke-width:12.4844;stroke-linejoin:round;stroke-miterlimit:10;}
	.st10{fill:none;stroke:#494949;stroke-width:12.1445;stroke-linejoin:round;stroke-miterlimit:10;}
	.st11{fill:none;stroke:#000000;stroke-width:12.1445;stroke-linejoin:round;stroke-miterlimit:10;}
	.st12{fill:none;stroke:#000000;stroke-width:11.2103;stroke-linejoin:round;stroke-miterlimit:10;}
	.st13{fill:none;stroke:#000000;stroke-width:12.3133;stroke-linecap:round;stroke-linejoin:round;stroke-miterlimit:10;}
	.st14{fill:none;stroke:#000000;stroke-width:10.2152;stroke-linejoin:round;stroke-miterlimit:10;}
	.st15{fill:none;stroke:#494949;stroke-width:14.636;stroke-linecap:round;stroke-linejoin:round;stroke-miterlimit:10;}
	.st16{fill:none;stroke:#000000;stroke-width:10;stroke-linecap:round;stroke-miterlimit:10;}
	.st17{filter:url(#Adobe_OpacityMaskFilter);}
	.st18{mask:url(#SVGID_1_);}
	.st19{filter:url(#Adobe_OpacityMaskFilter_1_);}
	.st20{mask:url(#SVGID_2_);}
	.st21{fill:none;stroke:#000000;stroke-width:13;stroke-linecap:round;stroke-miterlimit:10;}
	.st22{fill:none;stroke:#000000;stroke-width:11.0297;stroke-linecap:round;stroke-linejoin:round;stroke-miterlimit:10;}
	.st23{filter:url(#Adobe_OpacityMaskFilter_2_);}
	.st24{mask:url(#SVGID_3_);fill:none;stroke:#000000;stroke-width:11.0297;stroke-linecap:round;stroke-miterlimit:10;}
	.st25{fill:none;stroke:#000000;stroke-width:11.0297;stroke-linecap:round;stroke-miterlimit:10;}
	.st26{fill:none;stroke:#000000;stroke-width:11.9488;stroke-linecap:round;stroke-miterlimit:10;}
	.st27{filter:url(#Adobe_OpacityMaskFilter_3_);}
	.st28{fill:none;stroke:#FFFFFF;stroke-width:13;stroke-linejoin:round;stroke-miterlimit:10;}
	.st29{fill:none;stroke:#FFFFFF;stroke-width:10;stroke-linejoin:round;stroke-miterlimit:10;}
	.st30{mask:url(#SVGID_4_);fill:#020202;}
	.st31{fill:none;stroke:#000000;stroke-width:10;stroke-linecap:round;stroke-linejoin:round;stroke-miterlimit:10;}
	.st32{fill:none;stroke:#FFFFFF;stroke-width:10;stroke-linecap:round;stroke-linejoin:round;}
	.st33{fill:#FFFFFF;}
	.st34{fill:none;stroke:#000000;stroke-width:10;stroke-linecap:round;stroke-linejoin:round;}
	.st35{fill:none;stroke:#494949;stroke-width:10;stroke-linecap:round;stroke-miterlimit:10;}
	.st36{fill:none;stroke:#494949;stroke-width:12;stroke-linecap:round;stroke-miterlimit:10;}
	.st37{fill:none;stroke:#494949;stroke-width:12.9013;stroke-miterlimit:10;}
	.st38{fill:none;stroke:#494949;stroke-width:10;stroke-miterlimit:10;}
	.st39{fill:none;stroke:#00F9F2;stroke-width:5;stroke-miterlimit:10;}
	.st40{fill:#00F9F2;}
	.st41{fill:none;stroke:#494949;stroke-width:11;stroke-miterlimit:10;}
	.st42{fill:none;stroke:#494949;stroke-width:10;stroke-linejoin:round;stroke-miterlimit:10;}
	.st43{fill:none;stroke:#494949;stroke-width:12.8445;stroke-linecap:round;stroke-linejoin:round;stroke-miterlimit:10;}
	.st44{fill:none;stroke:#000000;stroke-width:9.9006;stroke-linecap:round;stroke-linejoin:round;}
	
		.st45{fill:none;stroke:#000000;stroke-width:9.9006;stroke-linecap:round;stroke-linejoin:round;stroke-dasharray:25.9068,25.9068;}
	
		.st46{fill:none;stroke:#000000;stroke-width:9.9006;stroke-linecap:round;stroke-linejoin:round;stroke-dasharray:39.7013,39.7013;}
	
		.st47{fill:none;stroke:#000000;stroke-width:9.9006;stroke-linecap:round;stroke-linejoin:round;stroke-dasharray:39.6982,39.6982;}
	.st48{fill:none;}
	.st49{fill:none;stroke:#494949;stroke-width:10;stroke-linecap:round;stroke-linejoin:round;}
	.st50{fill:none;stroke:#494949;stroke-width:10;stroke-linecap:round;stroke-linejoin:round;stroke-dasharray:29.277,27.7361;}
	.st51{fill:none;stroke:#494949;stroke-width:10;stroke-linecap:round;stroke-linejoin:round;stroke-dasharray:20.9682,19.8646;}
	.st52{fill:none;stroke:#494949;stroke-width:10;stroke-linecap:round;stroke-linejoin:round;stroke-dasharray:18.011,17.0631;}
	.st53{fill:none;stroke:#494949;stroke-width:13;stroke-linecap:round;stroke-miterlimit:10;}
	.st54{fill:none;stroke:#494949;stroke-width:10;stroke-linecap:round;stroke-linejoin:round;stroke-miterlimit:10;}
	.st55{fill:none;stroke:#494949;stroke-width:11.2762;stroke-linecap:round;stroke-linejoin:round;stroke-miterlimit:10;}
	.st56{fill:none;stroke:#494949;stroke-width:12.901;stroke-linecap:round;stroke-miterlimit:10;}
	.st57{fill:none;stroke:#494949;stroke-width:11.2103;stroke-linejoin:round;stroke-miterlimit:10;}
	.st58{fill:none;stroke:#494949;stroke-width:13;stroke-linecap:round;stroke-linejoin:round;}
	.st59{fill:none;stroke:#494949;stroke-width:9;stroke-linecap:round;stroke-miterlimit:10;}
	.st60{fill:none;stroke:#494949;stroke-width:12.5238;stroke-linecap:round;stroke-linejoin:round;stroke-miterlimit:10;}
	.st61{fill:none;stroke:#494949;stroke-width:13;stroke-linecap:round;stroke-linejoin:round;stroke-dasharray:0,24.2514,0,0,0,0;}
	.st62{fill:none;stroke:#494949;stroke-width:13;stroke-linecap:round;stroke-linejoin:round;stroke-dasharray:0,24.2003,0,0,0,0;}
	.st63{filter:url(#Adobe_OpacityMaskFilter_4_);}
	.st64{mask:url(#SVGID_5_);}
	.st65{filter:url(#Adobe_OpacityMaskFilter_5_);}
	.st66{mask:url(#SVGID_6_);}
	.st67{filter:url(#Adobe_OpacityMaskFilter_6_);}
	.st68{mask:url(#SVGID_7_);}
	.st69{filter:url(#Adobe_OpacityMaskFilter_7_);}
	.st70{fill:none;stroke:#494949;stroke-width:13.7883;stroke-linecap:round;stroke-linejoin:round;stroke-miterlimit:10;}
	.st71{fill:#494949;stroke:#494949;stroke-width:5;stroke-linecap:round;stroke-linejoin:round;stroke-miterlimit:10;}
	.st72{fill:#494949;stroke:#494949;stroke-width:10;stroke-linecap:round;stroke-linejoin:round;stroke-miterlimit:10;}
	.st73{fill:none;stroke:#494949;stroke-width:13.4738;stroke-linecap:round;stroke-linejoin:round;stroke-miterlimit:10;}
	.st74{fill:none;stroke:#494949;stroke-width:13.3712;stroke-linecap:round;stroke-miterlimit:10;}
	.st75{filter:url(#Adobe_OpacityMaskFilter_8_);}
	.st76{fill:none;stroke:#000000;stroke-width:11.6846;stroke-linecap:round;stroke-miterlimit:10;}
	.st77{fill:none;stroke:#000000;stroke-width:11.6846;stroke-linejoin:round;stroke-miterlimit:10;}
	.st78{mask:url(#SVGID_8_);fill:#494949;stroke:#494949;stroke-width:13;stroke-linejoin:round;stroke-miterlimit:10;}
	.st79{filter:url(#Adobe_OpacityMaskFilter_9_);}
	.st80{mask:url(#SVGID_9_);fill:#494949;stroke:#494949;stroke-width:13;stroke-linejoin:round;stroke-miterlimit:10;}
	.st81{fill:none;stroke:#494949;stroke-width:12.2229;stroke-linecap:round;stroke-linejoin:round;stroke-miterlimit:10;}
	.st82{filter:url(#Adobe_OpacityMaskFilter_10_);}
	.st83{mask:url(#SVGID_10_);}
	.st84{filter:url(#Adobe_OpacityMaskFilter_11_);}
	.st85{filter:url(#Adobe_OpacityMaskFilter_12_);}
	.st86{mask:url(#SVGID_11_);}
	.st87{filter:url(#Adobe_OpacityMaskFilter_13_);}
	.st88{mask:url(#SVGID_12_);}
	.st89{filter:url(#Adobe_OpacityMaskFilter_14_);}
	
		.st90{mask:url(#SVGID_13_);fill:none;stroke:#494949;stroke-width:13;stroke-linecap:round;stroke-linejoin:round;stroke-miterlimit:10;}
	.st91{filter:url(#Adobe_OpacityMaskFilter_15_);}
	
		.st92{mask:url(#SVGID_14_);fill:none;stroke:#494949;stroke-width:13;stroke-linecap:round;stroke-linejoin:round;stroke-miterlimit:10;}
	.st93{fill:none;stroke:#494949;stroke-width:13.54;stroke-linecap:round;stroke-linejoin:round;stroke-miterlimit:10;}
	.st94{fill:none;stroke:#494949;stroke-width:11.8606;stroke-linecap:round;stroke-linejoin:round;stroke-miterlimit:10;}
	.st95{fill:none;stroke:#494949;stroke-width:9.856;stroke-linecap:round;stroke-miterlimit:10;}
	.st96{fill:none;stroke:#494949;stroke-width:9.9275;stroke-linecap:round;stroke-miterlimit:10;}
	.st97{fill:none;stroke:#494949;stroke-width:10.0726;stroke-linecap:round;stroke-miterlimit:10;}
	.st98{fill:none;stroke:#494949;stroke-width:14.2824;stroke-linecap:round;stroke-linejoin:round;stroke-miterlimit:10;}
	.st99{fill:none;stroke:#494949;stroke-width:14.3433;stroke-linecap:round;stroke-linejoin:round;stroke-miterlimit:10;}
	.st100{fill:none;stroke:#494949;stroke-width:13;stroke-miterlimit:10;}
	.st101{filter:url(#Adobe_OpacityMaskFilter_16_);}
	
		.st102{mask:url(#SVGID_15_);fill:none;stroke:#494949;stroke-width:13;stroke-linecap:round;stroke-linejoin:round;stroke-miterlimit:10;}
	.st103{filter:url(#Adobe_OpacityMaskFilter_17_);}
	.st104{mask:url(#SVGID_16_);}
	.st105{fill:none;stroke:#494949;stroke-width:8;stroke-linecap:round;stroke-linejoin:round;stroke-miterlimit:10;}
	.st106{fill:none;stroke:#FFCB00;stroke-width:10;stroke-linecap:round;stroke-miterlimit:10;}
	.st107{fill:none;stroke:#038057;stroke-width:10;stroke-linecap:round;stroke-linejoin:round;stroke-miterlimit:10;}
	.st108{fill:none;stroke:#038057;stroke-width:9;stroke-linecap:round;stroke-linejoin:round;stroke-miterlimit:10;}
	.st109{fill:none;stroke:#FFCB00;stroke-width:10;stroke-linecap:round;stroke-linejoin:round;stroke-miterlimit:10;}
	.st110{filter:url(#Adobe_OpacityMaskFilter_18_);}
	
		.st111{mask:url(#SVGID_17_);fill:none;stroke:#038057;stroke-width:9;stroke-linecap:round;stroke-linejoin:round;stroke-miterlimit:10;}
	.st112{filter:url(#Adobe_OpacityMaskFilter_19_);}
	
		.st113{mask:url(#SVGID_18_);fill:none;stroke:#038057;stroke-width:9;stroke-linecap:round;stroke-linejoin:round;stroke-miterlimit:10;}
	.st114{fill:none;stroke:#FFCB00;stroke-width:9;stroke-linecap:round;stroke-linejoin:round;stroke-miterlimit:10;}
	.st115{filter:url(#Adobe_OpacityMaskFilter_20_);}
	.st116{mask:url(#SVGID_19_);}
	.st117{filter:url(#Adobe_OpacityMaskFilter_21_);}
	.st118{filter:url(#Adobe_OpacityMaskFilter_22_);}
	.st119{filter:url(#Adobe_OpacityMaskFilter_23_);}
	
		.st120{mask:url(#SVGID_20_);fill:none;stroke:#038057;stroke-width:9;stroke-linecap:round;stroke-linejoin:round;stroke-miterlimit:10;}
	.st121{fill:#FCFCFC;}
	.st122{fill:none;stroke:#FFCB00;stroke-width:8;stroke-linecap:round;stroke-linejoin:round;stroke-miterlimit:10;}
	.st123{fill:none;stroke:#FFCB00;stroke-width:7;stroke-linecap:round;stroke-linejoin:round;stroke-miterlimit:10;}
	.st124{fill:none;stroke:#FFCB00;stroke-width:5;stroke-linecap:round;stroke-miterlimit:10;}
	.st125{filter:url(#Adobe_OpacityMaskFilter_24_);}
	.st126{mask:url(#SVGID_21_);}
	.st127{filter:url(#Adobe_OpacityMaskFilter_25_);}
	.st128{filter:url(#Adobe_OpacityMaskFilter_26_);}
	.st129{fill:none;stroke:#038057;stroke-width:11;stroke-linecap:round;stroke-linejoin:round;stroke-miterlimit:10;}
	.st130{filter:url(#Adobe_OpacityMaskFilter_27_);}
	
		.st131{mask:url(#SVGID_22_);fill:none;stroke:#038057;stroke-width:11;stroke-linecap:round;stroke-linejoin:round;stroke-miterlimit:10;}
	.st132{fill:none;stroke:#FFCB00;stroke-width:11;stroke-linecap:round;stroke-linejoin:round;stroke-miterlimit:10;}
	.st133{fill:none;stroke:#038057;stroke-width:8;stroke-linecap:round;stroke-linejoin:round;stroke-miterlimit:10;}
	.st134{fill:#038057;}
	.st135{fill:#FFCB00;}
	.st136{fill:none;stroke:#494949;stroke-width:13;stroke-linecap:round;stroke-linejoin:round;stroke-dasharray:22.6216,22.6216;}
	.st137{fill:none;stroke:#494949;stroke-width:13;stroke-linecap:round;stroke-linejoin:round;stroke-dasharray:26.985,26.985;}
	.st138{fill:none;stroke:#494949;stroke-width:13;stroke-linecap:round;stroke-linejoin:round;stroke-dasharray:26.9622,26.9622;}
	.st139{fill:none;stroke:#494949;stroke-width:11.0534;stroke-linecap:round;stroke-linejoin:round;stroke-miterlimit:10;}
	.st140{fill:none;stroke:#494949;stroke-width:11.7237;stroke-linecap:round;stroke-linejoin:round;stroke-miterlimit:10;}
	.st141{fill:none;stroke:#494949;stroke-width:8.8696;stroke-linecap:round;stroke-linejoin:round;stroke-miterlimit:10;}
	.st142{filter:url(#Adobe_OpacityMaskFilter_28_);}
	.st143{mask:url(#SVGID_23_);fill:none;stroke:#494949;stroke-width:13;stroke-miterlimit:10;}
	.st144{filter:url(#Adobe_OpacityMaskFilter_29_);}
	.st145{mask:url(#SVGID_24_);}
	.st146{filter:url(#Adobe_OpacityMaskFilter_30_);}
	.st147{mask:url(#SVGID_25_);}
	.st148{filter:url(#Adobe_OpacityMaskFilter_31_);}
	.st149{fill:#494949;stroke:#494949;stroke-width:13;stroke-linejoin:round;stroke-miterlimit:10;}
	.st150{filter:url(#Adobe_OpacityMaskFilter_32_);}
	.st151{mask:url(#SVGID_26_);fill:#494949;stroke:#494949;stroke-width:13;stroke-linejoin:round;stroke-miterlimit:10;}
	.st152{fill:none;stroke:#FFFFFF;stroke-width:11.6846;stroke-linecap:round;stroke-miterlimit:10;}
	.st153{filter:url(#Adobe_OpacityMaskFilter_33_);}
	.st154{mask:url(#SVGID_27_);}
	.st155{fill:none;stroke:#494949;stroke-width:11.6846;stroke-linecap:round;stroke-miterlimit:10;}
</style>
<g id="Слой_1">
	<g>
		<path class="st2" d="M63.2,312.4C63.2,312.4,63.2,312.4,63.2,312.4c-10.1,0-18.7-6.3-22.2-15.1c-4,0.9-8.3,0.8-12.4-0.3
			c-6.9-1.9-12.6-6.5-15.7-12.6c-3-5.9-3.4-13-1.2-19.4c1.3-3.7,3.3-6.9,5.9-9.6c-5.7-7.4-6.7-17.9-1.8-26.5
			c3.5-6.1,9.2-10.1,15.6-11.5c0-0.1-0.1-0.3-0.1-0.4c-1.7-6.2-0.9-12.6,2.3-18.2s8.3-9.5,14.5-11.2c0.2-0.1,0.5-0.1,0.7-0.2
			c-1.9-6.1-1.3-12.9,2.1-18.9c3.2-5.6,8.3-9.5,14.5-11.2c0.2-0.1,0.5-0.1,0.7-0.2c-1.9-6.1-1.3-12.9,2.1-18.9
			c3.5-6.1,9.2-10.1,15.6-11.5c0-0.1-0.1-0.3-0.1-0.4c-1.7-6.2-0.9-12.6,2.3-18.2s8.3-9.5,14.5-11.2c0.2-0.1,0.5-0.1,0.7-0.2
			c-1.9-6.1-1.3-12.9,2.1-18.9c3.2-5.6,8.3-9.5,14.5-11.2c0.2-0.1,0.5-0.1,0.7-0.2c-0.1-0.2-0.1-0.5-0.2-0.7
			c-1.7-6.2-0.9-12.6,2.3-18.2c3.2-5.6,8.3-9.5,14.5-11.2c3.1-0.8,6.2-1.1,9.3-0.7c0.9-4.5,3-8.7,6.1-12.3c4.7-5.4,11-8.5,17.4-8.5
			c0,0,0,0,0,0c6.4,0,12.7,3.1,17.4,8.6c3,3.5,5.1,7.8,6,12.3c3-0.4,6-0.2,9,0.6c6.3,1.6,11.6,5.6,14.8,11.2c3.4,6,3.9,12.8,2,18.9
			c6.2,1.5,11.9,5.4,15.3,11.4c3.4,6,4,12.8,2.1,18.9c6.2,1.5,11.8,5.4,15.2,11.4c3.2,5.5,4,12,2.3,18.2c0,0.1-0.1,0.3-0.1,0.4
			c0.3,0.1,0.6,0.1,0.9,0.2c6.3,1.6,11.6,5.6,14.8,11.2c3.4,6,3.9,12.8,2,18.9c6.2,1.5,11.9,5.4,15.3,11.4c3.4,6,4,12.8,2.1,18.9
			c6.2,1.5,11.8,5.4,15.2,11.4c3.4,5.9,3.9,12.6,2.2,18.6c0.3,0.1,0.6,0.1,0.9,0.2c6.3,1.6,11.6,5.6,14.8,11.2
			c4.9,8.6,3.9,19-1.8,26.4c2.7,2.8,4.8,6.2,6.1,10c2.2,6.7,1.5,13.9-1.9,19.9c-3.4,5.9-9.2,10.1-16,11.7c-3.9,0.9-7.9,0.8-11.7-0.1
			c-1.2,2.9-3,5.6-5.3,7.8c-4.5,4.5-10.5,7-16.9,7c0,0,0,0,0,0c-6.9,0-13.1-2.9-17.5-7.6c-0.2,0.2-0.4,0.4-0.5,0.5
			c-4.5,4.5-10.5,7-16.9,7c0,0,0,0,0,0c-6.9,0-13.1-2.9-17.5-7.6c-0.2,0.2-0.4,0.4-0.5,0.5c-4.5,4.5-10.5,7-16.9,7c0,0,0,0,0,0
			c-6.4,0-12.4-2.5-16.9-7.1c-0.1-0.1-0.2-0.2-0.3-0.3c-0.3,0.3-0.5,0.6-0.8,0.8c-1.2,1.2-7.8,7.3-17.2,7
			c-6.3-0.2-12.2-3.4-16.6-8.3c-0.4,0.4-0.8,0.8-1.2,1.3c-4.5,4.5-10.5,7-16.9,7c0,0,0,0,0,0c-6.9,0-13.1-2.9-17.5-7.6
			c-0.2,0.2-0.4,0.4-0.5,0.5c-4.5,4.5-10.5,7-16.9,7c0,0,0,0,0,0c-6.8,0-12.9-2.8-17.3-7.4c-0.2,0.2-0.4,0.4-0.6,0.6
			C75.7,309.8,69.6,312.4,63.2,312.4z M45.7,281.9c1.1,0,2.1,0.3,3.1,0.8c2.1,1.1,3.4,3.3,3.4,5.7c0,6,5.1,11,11,11c0,0,0,0,0,0
			c2.9,0,5.7-1.2,7.8-3.3c2.1-2.1,3.2-4.8,3.2-7.7c0-0.2,0-0.3,0-0.5c0-3.6,2.9-6.5,6.4-6.5c3.6-0.1,6.5,2.8,6.6,6.4
			c0,0.2,0,0.3,0,0.5c0.2,5.8,5.1,10.7,11,10.7c2.9,0,5.6-1.1,7.7-3.2c2.1-2.1,3.2-4.8,3.2-7.7c0-3.6,2.9-6.5,6.5-6.5c0,0,0,0,0,0
			c3.6,0,6.5,2.9,6.5,6.5l0,0c0,5.9,5,11,11,11c0,0,0,0,0,0c2.9,0,5.6-1.1,7.7-3.2c2.1-2.1,3.2-4.8,3.2-7.7c0-3.4,2.6-6.2,5.9-6.5
			c3.3-0.3,6.4,2,7,5.3c1.3,6.8,6.1,12,11.3,12.2c4.2,0.1,7.5-3.2,7.5-3.2c2.9-2.9,3.2-6.6,3.2-7.8c0-0.2,0-0.3,0-0.5
			c0-3.6,2.9-6.4,6.4-6.5c3.6,0,6.5,2.8,6.6,6.3c0,0.1,0,0.3,0,0.5c0.1,2.8,1.2,5.4,3.2,7.4c2.1,2.1,4.8,3.2,7.7,3.2c0,0,0,0,0,0
			c2.9,0,5.6-1.1,7.7-3.2c2.1-2.1,3.2-4.8,3.2-7.7c0-3.6,2.9-6.5,6.5-6.5c0,0,0,0,0,0c3.6,0,6.5,2.9,6.5,6.5c0,0,0,0,0,0
			c0,5.9,5,11,11,11c0,0,0,0,0,0c2.9,0,5.6-1.1,7.7-3.2c2.1-2.1,3.2-4.8,3.2-7.7c0-3.6,2.9-6.5,6.5-6.5c0,0,0,0,0,0
			c3.6,0,6.5,2.9,6.5,6.5l0,0c0,5.9,5,11,11,11c2.9,0,5.6-1.1,7.7-3.2c2.1-2.1,3.2-4.8,3.2-7.7c0-2.4,1.3-4.6,3.5-5.7
			c2.1-1.1,4.7-1,6.7,0.4c2.9,2,6.3,2.6,9.8,1.8c3.3-0.7,6-2.7,7.6-5.5c1.6-2.8,1.9-6.2,0.8-9.4c-1.1-3.4-3.5-6-6.7-7.5
			c-2.2-1-3.7-3.2-3.8-5.6c-0.1-2.4,1.1-4.7,3.2-6c5.2-3,7.1-9.9,4.1-15c-1.4-2.5-3.8-4.3-6.8-5.1c-2.8-0.7-5.8-0.4-8.3,1
			c-0.1,0.1-0.3,0.2-0.4,0.2c-3.1,1.8-7,0.7-8.8-2.4c-1.8-3.1-0.8-7,2.3-8.9c0.1-0.1,0.3-0.2,0.4-0.2c5-3,6.7-9.7,3.8-14.8
			c-2.9-5.2-9.8-7-15-4.1c0,0,0,0,0,0c0,0,0,0,0,0c-3.1,1.8-7.1,0.7-8.9-2.4c-1.8-3.1-0.7-7.1,2.4-8.9h0c0,0,0,0,0,0
			c5.2-3,7-9.8,4.1-15c-3-5.2-9.8-7-15-4.1c-3.1,1.8-7.1,0.7-8.9-2.4c-1.8-3.1-0.7-7.1,2.4-8.9c5.2-3,7.1-9.9,4.1-15
			c-1.4-2.5-3.8-4.3-6.8-5.1c-2.8-0.7-5.8-0.4-8.3,1c-0.1,0.1-0.3,0.2-0.4,0.2c-3.1,1.8-7,0.7-8.8-2.4c-1.8-3.1-0.8-7,2.3-8.9
			c0.1-0.1,0.3-0.2,0.4-0.2c2.4-1.5,4.1-3.7,4.8-6.5c0.8-2.8,0.4-5.8-1-8.3c-2.9-5.2-9.8-7-15-4.1c0,0,0,0,0,0c0,0,0,0,0,0
			c-3.1,1.8-7.1,0.7-8.9-2.4c-1.8-3.1-0.7-7.1,2.4-8.9h0c0,0,0,0,0,0c5.2-3,7-9.8,4.1-15c-3-5.2-9.8-7-15-4.1
			c-3.1,1.8-7.1,0.7-8.9-2.4c-1.8-3.1-0.7-7.1,2.4-8.9c5.2-3,7.1-9.9,4.1-15c-1.4-2.5-3.8-4.3-6.8-5.1c-2.9-0.8-6-0.3-8.6,1.2
			c-2.2,1.3-4.9,1.2-7-0.2c-2.1-1.4-3.2-3.9-2.8-6.4c0.6-4.2-0.6-8.5-3.3-11.7c-2.2-2.5-5-4-7.6-4c0,0,0,0,0,0c-2.6,0-5.4,1.5-7.6,4
			c-2.7,3.2-4,7.4-3.3,11.7c0.4,2.5-0.7,4.9-2.8,6.3c-2.1,1.4-4.7,1.5-6.9,0.3l-0.5-0.3c-2.5-1.5-5.5-1.8-8.3-1.1
			c-2.8,0.8-5.2,2.6-6.6,5.1c-1.5,2.5-1.8,5.5-1.1,8.3c0.8,2.8,2.6,5.2,5.1,6.6c2.1,1.2,3.3,3.4,3.3,5.7c0,1.1-0.3,2.2-0.9,3.2
			c-1.8,3.1-5.8,4.2-8.9,2.4c-2.5-1.5-5.5-1.8-8.3-1.1c-2.8,0.8-5.2,2.6-6.6,5.1c-3,5.3-1.2,12,4.1,15c2.1,1.2,3.3,3.4,3.3,5.7
			c0,1.1-0.3,2.2-0.9,3.2c-1.8,3.1-5.8,4.2-8.9,2.4c-2.5-1.5-5.5-1.8-8.3-1.1c-2.8,0.8-5.2,2.6-6.6,5.1c-1.5,2.5-1.8,5.5-1.1,8.3
			c0.8,2.8,2.6,5.2,5.1,6.6l0,0c3.1,1.8,4.2,5.8,2.4,8.9c-1.8,3.1-5.8,4.2-8.9,2.4c0,0,0,0,0,0l-0.4-0.2c-5.3-3-12-1.2-15,4.1
			s-1.2,12,4.1,15c2.1,1.2,3.3,3.4,3.3,5.7c0,1.1-0.3,2.2-0.9,3.2c-1.8,3.1-5.8,4.2-8.9,2.4c-2.5-1.5-5.5-1.8-8.3-1.1
			c-2.8,0.8-5.2,2.6-6.6,5.1c-3,5.3-1.2,12,4.1,15c2.1,1.2,3.3,3.4,3.3,5.7c0,1.1-0.3,2.2-0.9,3.2c-1.8,3.1-5.8,4.2-8.9,2.4
			c-2.5-1.5-5.5-1.8-8.3-1.1c-2.8,0.8-5.2,2.6-6.6,5.1c-1.5,2.5-1.8,5.5-1.1,8.3c0.8,2.8,2.6,5.2,5.1,6.6l0,0c0,0,0,0,0,0
			c3.1,1.8,4.2,5.8,2.4,8.9c-1.8,3.1-5.8,4.2-8.9,2.4l0,0c0,0,0,0,0,0l-0.5-0.3c-5.2-3-12-1.1-15,4.1c-3,5.2-1.1,12,4.1,15
			c2.1,1.2,3.4,3.5,3.3,5.9c-0.1,2.4-1.6,4.6-3.8,5.6c-3.2,1.5-5.5,4.1-6.7,7.4c-1.1,3.1-0.9,6.5,0.5,9.3c1.5,2.9,4.2,5,7.5,6
			c3.5,1,7.2,0.4,10.2-1.5C43.3,282.2,44.5,281.9,45.7,281.9z"/>
	</g>
	<g>
		<path class="st2" d="M177.9,107.6c0,0-0.1,0-0.1,0c-5.5-0.1-13.5-2.8-18.3-10.1c-5.8-8.9-2.9-18.1-2.3-19.9
			c1.2-3.4,4.9-5.1,8.3-3.9c3.4,1.2,5.1,4.9,3.9,8.3c-0.1,0.2-1.6,4.5,1,8.3c2.6,4,7.5,4.2,7.7,4.2c3.6,0.1,6.4,3.1,6.3,6.7
			C184.3,104.8,181.4,107.6,177.9,107.6z"/>
	</g>
	<g>
		<path class="st2" d="M200.9,161.3c0,0-0.1,0-0.1,0c-5.5-0.1-13.5-2.8-18.3-10.1c-5.8-8.9-2.9-18.1-2.3-19.9
			c1.2-3.4,4.9-5.1,8.3-3.9c3.4,1.2,5.1,4.9,3.9,8.3c-0.1,0.2-1.6,4.5,1,8.3c2.6,4,7.5,4.2,7.7,4.2c3.6,0.1,6.4,3.1,6.3,6.7
			C207.3,158.5,204.4,161.3,200.9,161.3z"/>
	</g>
	<g>
		<path class="st2" d="M237.1,215c0,0-0.1,0-0.1,0c-5.5-0.1-13.5-2.8-18.3-10.1c-5.8-8.9-2.9-18.1-2.3-19.9c1.2-3.4,4.9-5.1,8.3-3.9
			c3.4,1.2,5.1,4.9,3.9,8.3c-0.1,0.2-1.6,4.5,1,8.3c2.6,4,7.5,4.2,7.7,4.2c3.6,0.1,6.4,3.1,6.3,6.7C243.5,212.2,240.6,215,237.1,215
			z"/>
	</g>
	<g>
		<path class="st2" d="M275.5,269.7c0,0-0.1,0-0.1,0c-5.5-0.1-13.5-2.8-18.3-10.1c-5.8-8.9-2.9-18.1-2.3-19.9
			c1.2-3.4,4.9-5.1,8.3-3.9c3.4,1.2,5.1,4.9,3.9,8.3c-0.1,0.2-1.6,4.5,1,8.3c2.6,4,7.5,4.2,7.7,4.2c3.6,0.1,6.4,3.1,6.3,6.7
			C281.9,266.9,279,269.7,275.5,269.7z"/>
	</g>
	<g>
		<path class="st2" d="M134.2,166.2c0,0-0.1,0-0.1,0c-5.5-0.1-13.5-2.8-18.3-10.1c-5.8-8.9-2.9-18.1-2.3-19.9
			c1.2-3.4,4.9-5.1,8.3-3.9c3.4,1.2,5.1,4.9,3.9,8.3c-0.1,0.2-1.6,4.5,1,8.3c2.6,4,7.5,4.2,7.7,4.2c3.6,0.1,6.4,3.1,6.3,6.7
			C140.6,163.3,137.7,166.2,134.2,166.2z"/>
	</g>
	<g>
		<path class="st2" d="M175.8,217c0,0-0.1,0-0.1,0c-5.5-0.1-13.5-2.8-18.3-10.1c-5.8-8.9-2.9-18.1-2.3-19.9c1.2-3.4,4.9-5.1,8.3-3.9
			c3.4,1.2,5.1,4.9,3.9,8.3c-0.1,0.2-1.6,4.5,1,8.3c2.6,4,7.5,4.2,7.7,4.2c3.6,0.1,6.4,3.1,6.3,6.7C182.2,214.2,179.3,217,175.8,217
			z"/>
	</g>
	<g>
		<path class="st2" d="M100.9,217c0,0-0.1,0-0.1,0c-5.5-0.1-13.5-2.8-18.3-10.1c-5.8-8.9-2.9-18.1-2.3-19.9c1.2-3.4,4.9-5.1,8.3-3.9
			c3.4,1.2,5.1,4.9,3.9,8.3c-0.1,0.2-1.6,4.5,1,8.3c2.6,4,7.5,4.2,7.7,4.2c3.6,0.1,6.4,3.1,6.3,6.7C107.3,214.2,104.4,217,100.9,217
			z"/>
	</g>
	<g>
		<path class="st2" d="M73.8,273.8c0,0-0.1,0-0.1,0c-5.5-0.1-13.5-2.8-18.3-10.1c-5.8-8.9-2.9-18.1-2.3-19.9
			c1.2-3.4,4.9-5.1,8.3-3.9c3.4,1.2,5.1,4.9,3.9,8.3c-0.1,0.2-1.6,4.5,1,8.3c2.6,4,7.5,4.2,7.7,4.2c3.6,0.1,6.4,3.1,6.3,6.7
			C80.2,271,77.3,273.8,73.8,273.8z"/>
	</g>
	<g>
		<path class="st2" d="M138.7,267.1c0,0-0.1,0-0.1,0c-5.5-0.1-13.5-2.8-18.3-10.1c-5.8-8.9-2.9-18.1-2.3-19.9
			c1.2-3.4,4.9-5.1,8.3-3.9c3.4,1.2,5.1,4.9,3.9,8.3c-0.1,0.2-1.6,4.5,1,8.3c2.6,4,7.5,4.2,7.7,4.2c3.6,0.1,6.4,3.1,6.3,6.7
			C145,264.3,142.2,267.1,138.7,267.1z"/>
	</g>
	<g>
		<path class="st2" d="M216.4,273.8c0,0-0.1,0-0.1,0c-5.5-0.1-13.5-2.8-18.3-10.1c-5.8-8.9-2.9-18.1-2.3-19.9
			c1.2-3.4,4.9-5.1,8.3-3.9c3.4,1.2,5.1,4.9,3.9,8.3c-0.1,0.2-1.6,4.5,1,8.3c2.6,4,7.5,4.2,7.7,4.2c3.6,0.1,6.4,3.1,6.3,6.7
			C222.8,271,219.9,273.8,216.4,273.8z"/>
	</g>
</g>
<g id="Слой_2">
</g>
</svg>
