<?xml version="1.0" encoding="utf-8"?>
<!-- Generator: Adobe Illustrator 21.1.0, SVG Export Plug-In . SVG Version: 6.00 Build 0)  -->
<svg version="1.1" xmlns="http://www.w3.org/2000/svg" xmlns:xlink="http://www.w3.org/1999/xlink" x="0px" y="0px"
	 viewBox="0 0 337.3 338" style="enable-background:new 0 0 337.3 338;" xml:space="preserve">
<style type="text/css">
	.st0{fill:none;stroke:#494949;stroke-width:13;stroke-linecap:round;stroke-linejoin:round;stroke-miterlimit:10;}
	.st1{fill:none;stroke:#494949;stroke-width:14.6363;stroke-linejoin:round;stroke-miterlimit:10;}
	.st2{fill:#494949;}
	.st3{fill:none;stroke:#494949;stroke-width:13;stroke-linejoin:round;stroke-miterlimit:10;}
	.st4{fill:none;stroke:#494949;stroke-width:13.34;stroke-linejoin:round;stroke-miterlimit:10;}
	.st5{fill:none;stroke:#000000;stroke-width:13;stroke-linejoin:round;stroke-miterlimit:10;}
	.st6{fill:none;stroke:#000000;stroke-width:14.6363;stroke-linejoin:round;stroke-miterlimit:10;}
	.st7{fill:none;stroke:#000000;stroke-width:13;stroke-linecap:round;stroke-linejoin:round;stroke-miterlimit:10;}
	.st8{fill:none;stroke:#000000;stroke-width:14.636;stroke-linecap:round;stroke-linejoin:round;stroke-miterlimit:10;}
	.st9{fill:none;stroke:#000000;stroke-width:12.4844;stroke-linejoin:round;stroke-miterlimit:10;}
	.st10{fill:none;stroke:#494949;stroke-width:12.1445;stroke-linejoin:round;stroke-miterlimit:10;}
	.st11{fill:none;stroke:#000000;stroke-width:12.1445;stroke-linejoin:round;stroke-miterlimit:10;}
	.st12{fill:none;stroke:#000000;stroke-width:11.2103;stroke-linejoin:round;stroke-miterlimit:10;}
	.st13{fill:none;stroke:#000000;stroke-width:12.3133;stroke-linecap:round;stroke-linejoin:round;stroke-miterlimit:10;}
	.st14{fill:none;stroke:#000000;stroke-width:10.2152;stroke-linejoin:round;stroke-miterlimit:10;}
	.st15{fill:none;stroke:#494949;stroke-width:14.636;stroke-linecap:round;stroke-linejoin:round;stroke-miterlimit:10;}
	.st16{fill:none;stroke:#000000;stroke-width:10;stroke-linecap:round;stroke-miterlimit:10;}
	.st17{filter:url(#Adobe_OpacityMaskFilter);}
	.st18{mask:url(#SVGID_1_);}
	.st19{filter:url(#Adobe_OpacityMaskFilter_1_);}
	.st20{mask:url(#SVGID_2_);}
	.st21{fill:none;stroke:#000000;stroke-width:13;stroke-linecap:round;stroke-miterlimit:10;}
	.st22{fill:none;stroke:#000000;stroke-width:11.0297;stroke-linecap:round;stroke-linejoin:round;stroke-miterlimit:10;}
	.st23{filter:url(#Adobe_OpacityMaskFilter_2_);}
	.st24{mask:url(#SVGID_3_);fill:none;stroke:#000000;stroke-width:11.0297;stroke-linecap:round;stroke-miterlimit:10;}
	.st25{fill:none;stroke:#000000;stroke-width:11.0297;stroke-linecap:round;stroke-miterlimit:10;}
	.st26{fill:none;stroke:#000000;stroke-width:11.9488;stroke-linecap:round;stroke-miterlimit:10;}
	.st27{filter:url(#Adobe_OpacityMaskFilter_3_);}
	.st28{fill:none;stroke:#FFFFFF;stroke-width:13;stroke-linejoin:round;stroke-miterlimit:10;}
	.st29{fill:none;stroke:#FFFFFF;stroke-width:10;stroke-linejoin:round;stroke-miterlimit:10;}
	.st30{mask:url(#SVGID_4_);fill:#020202;}
	.st31{fill:none;stroke:#000000;stroke-width:10;stroke-linecap:round;stroke-linejoin:round;stroke-miterlimit:10;}
	.st32{fill:none;stroke:#FFFFFF;stroke-width:10;stroke-linecap:round;stroke-linejoin:round;}
	.st33{fill:#FFFFFF;}
	.st34{fill:none;stroke:#000000;stroke-width:10;stroke-linecap:round;stroke-linejoin:round;}
	.st35{fill:none;stroke:#494949;stroke-width:10;stroke-linecap:round;stroke-miterlimit:10;}
	.st36{fill:none;stroke:#494949;stroke-width:12;stroke-linecap:round;stroke-miterlimit:10;}
	.st37{fill:none;stroke:#494949;stroke-width:12.9013;stroke-miterlimit:10;}
	.st38{fill:none;stroke:#494949;stroke-width:10;stroke-miterlimit:10;}
	.st39{fill:none;stroke:#00F9F2;stroke-width:5;stroke-miterlimit:10;}
	.st40{fill:#00F9F2;}
	.st41{fill:none;stroke:#494949;stroke-width:11;stroke-miterlimit:10;}
	.st42{fill:none;stroke:#494949;stroke-width:10;stroke-linejoin:round;stroke-miterlimit:10;}
	.st43{fill:none;stroke:#494949;stroke-width:12.8445;stroke-linecap:round;stroke-linejoin:round;stroke-miterlimit:10;}
	.st44{fill:none;stroke:#000000;stroke-width:9.9006;stroke-linecap:round;stroke-linejoin:round;}
	
		.st45{fill:none;stroke:#000000;stroke-width:9.9006;stroke-linecap:round;stroke-linejoin:round;stroke-dasharray:25.9068,25.9068;}
	
		.st46{fill:none;stroke:#000000;stroke-width:9.9006;stroke-linecap:round;stroke-linejoin:round;stroke-dasharray:39.7013,39.7013;}
	
		.st47{fill:none;stroke:#000000;stroke-width:9.9006;stroke-linecap:round;stroke-linejoin:round;stroke-dasharray:39.6982,39.6982;}
	.st48{fill:none;}
	.st49{fill:none;stroke:#494949;stroke-width:10;stroke-linecap:round;stroke-linejoin:round;}
	.st50{fill:none;stroke:#494949;stroke-width:10;stroke-linecap:round;stroke-linejoin:round;stroke-dasharray:29.277,27.7361;}
	.st51{fill:none;stroke:#494949;stroke-width:10;stroke-linecap:round;stroke-linejoin:round;stroke-dasharray:20.9682,19.8646;}
	.st52{fill:none;stroke:#494949;stroke-width:10;stroke-linecap:round;stroke-linejoin:round;stroke-dasharray:18.011,17.0631;}
	.st53{fill:none;stroke:#494949;stroke-width:13;stroke-linecap:round;stroke-miterlimit:10;}
	.st54{fill:none;stroke:#494949;stroke-width:10;stroke-linecap:round;stroke-linejoin:round;stroke-miterlimit:10;}
	.st55{fill:none;stroke:#494949;stroke-width:11.2762;stroke-linecap:round;stroke-linejoin:round;stroke-miterlimit:10;}
	.st56{fill:none;stroke:#494949;stroke-width:12.901;stroke-linecap:round;stroke-miterlimit:10;}
	.st57{fill:none;stroke:#494949;stroke-width:11.2103;stroke-linejoin:round;stroke-miterlimit:10;}
	.st58{fill:none;stroke:#494949;stroke-width:13;stroke-linecap:round;stroke-linejoin:round;}
	.st59{fill:none;stroke:#494949;stroke-width:9;stroke-linecap:round;stroke-miterlimit:10;}
	.st60{fill:none;stroke:#494949;stroke-width:12.5238;stroke-linecap:round;stroke-linejoin:round;stroke-miterlimit:10;}
	.st61{fill:none;stroke:#494949;stroke-width:13;stroke-linecap:round;stroke-linejoin:round;stroke-dasharray:0,24.2514,0,0,0,0;}
	.st62{fill:none;stroke:#494949;stroke-width:13;stroke-linecap:round;stroke-linejoin:round;stroke-dasharray:0,24.2003,0,0,0,0;}
	.st63{filter:url(#Adobe_OpacityMaskFilter_4_);}
	.st64{mask:url(#SVGID_5_);}
	.st65{filter:url(#Adobe_OpacityMaskFilter_5_);}
	.st66{mask:url(#SVGID_6_);}
	.st67{filter:url(#Adobe_OpacityMaskFilter_6_);}
	.st68{mask:url(#SVGID_7_);}
	.st69{filter:url(#Adobe_OpacityMaskFilter_7_);}
	.st70{fill:none;stroke:#494949;stroke-width:13.7883;stroke-linecap:round;stroke-linejoin:round;stroke-miterlimit:10;}
	.st71{fill:#494949;stroke:#494949;stroke-width:5;stroke-linecap:round;stroke-linejoin:round;stroke-miterlimit:10;}
	.st72{fill:#494949;stroke:#494949;stroke-width:10;stroke-linecap:round;stroke-linejoin:round;stroke-miterlimit:10;}
	.st73{fill:none;stroke:#494949;stroke-width:13.4738;stroke-linecap:round;stroke-linejoin:round;stroke-miterlimit:10;}
	.st74{fill:none;stroke:#494949;stroke-width:13.3712;stroke-linecap:round;stroke-miterlimit:10;}
	.st75{filter:url(#Adobe_OpacityMaskFilter_8_);}
	.st76{fill:none;stroke:#000000;stroke-width:11.6846;stroke-linecap:round;stroke-miterlimit:10;}
	.st77{fill:none;stroke:#000000;stroke-width:11.6846;stroke-linejoin:round;stroke-miterlimit:10;}
	.st78{mask:url(#SVGID_8_);fill:#494949;stroke:#494949;stroke-width:13;stroke-linejoin:round;stroke-miterlimit:10;}
	.st79{filter:url(#Adobe_OpacityMaskFilter_9_);}
	.st80{mask:url(#SVGID_9_);fill:#494949;stroke:#494949;stroke-width:13;stroke-linejoin:round;stroke-miterlimit:10;}
	.st81{fill:none;stroke:#494949;stroke-width:12.2229;stroke-linecap:round;stroke-linejoin:round;stroke-miterlimit:10;}
	.st82{filter:url(#Adobe_OpacityMaskFilter_10_);}
	.st83{mask:url(#SVGID_10_);}
	.st84{filter:url(#Adobe_OpacityMaskFilter_11_);}
	.st85{filter:url(#Adobe_OpacityMaskFilter_12_);}
	.st86{mask:url(#SVGID_11_);}
	.st87{filter:url(#Adobe_OpacityMaskFilter_13_);}
	.st88{mask:url(#SVGID_12_);}
	.st89{filter:url(#Adobe_OpacityMaskFilter_14_);}
	
		.st90{mask:url(#SVGID_13_);fill:none;stroke:#494949;stroke-width:13;stroke-linecap:round;stroke-linejoin:round;stroke-miterlimit:10;}
	.st91{filter:url(#Adobe_OpacityMaskFilter_15_);}
	
		.st92{mask:url(#SVGID_14_);fill:none;stroke:#494949;stroke-width:13;stroke-linecap:round;stroke-linejoin:round;stroke-miterlimit:10;}
	.st93{fill:none;stroke:#494949;stroke-width:13.54;stroke-linecap:round;stroke-linejoin:round;stroke-miterlimit:10;}
	.st94{fill:none;stroke:#494949;stroke-width:11.8606;stroke-linecap:round;stroke-linejoin:round;stroke-miterlimit:10;}
	.st95{fill:none;stroke:#494949;stroke-width:9.856;stroke-linecap:round;stroke-miterlimit:10;}
	.st96{fill:none;stroke:#494949;stroke-width:9.9275;stroke-linecap:round;stroke-miterlimit:10;}
	.st97{fill:none;stroke:#494949;stroke-width:10.0726;stroke-linecap:round;stroke-miterlimit:10;}
	.st98{fill:none;stroke:#494949;stroke-width:14.2824;stroke-linecap:round;stroke-linejoin:round;stroke-miterlimit:10;}
	.st99{fill:none;stroke:#494949;stroke-width:14.3433;stroke-linecap:round;stroke-linejoin:round;stroke-miterlimit:10;}
	.st100{fill:none;stroke:#494949;stroke-width:13;stroke-miterlimit:10;}
	.st101{filter:url(#Adobe_OpacityMaskFilter_16_);}
	
		.st102{mask:url(#SVGID_15_);fill:none;stroke:#494949;stroke-width:13;stroke-linecap:round;stroke-linejoin:round;stroke-miterlimit:10;}
	.st103{filter:url(#Adobe_OpacityMaskFilter_17_);}
	.st104{mask:url(#SVGID_16_);}
	.st105{fill:none;stroke:#494949;stroke-width:8;stroke-linecap:round;stroke-linejoin:round;stroke-miterlimit:10;}
	.st106{fill:none;stroke:#FFCB00;stroke-width:10;stroke-linecap:round;stroke-miterlimit:10;}
	.st107{fill:none;stroke:#038057;stroke-width:10;stroke-linecap:round;stroke-linejoin:round;stroke-miterlimit:10;}
	.st108{fill:none;stroke:#038057;stroke-width:9;stroke-linecap:round;stroke-linejoin:round;stroke-miterlimit:10;}
	.st109{fill:none;stroke:#FFCB00;stroke-width:10;stroke-linecap:round;stroke-linejoin:round;stroke-miterlimit:10;}
	.st110{filter:url(#Adobe_OpacityMaskFilter_18_);}
	
		.st111{mask:url(#SVGID_17_);fill:none;stroke:#038057;stroke-width:9;stroke-linecap:round;stroke-linejoin:round;stroke-miterlimit:10;}
	.st112{filter:url(#Adobe_OpacityMaskFilter_19_);}
	
		.st113{mask:url(#SVGID_18_);fill:none;stroke:#038057;stroke-width:9;stroke-linecap:round;stroke-linejoin:round;stroke-miterlimit:10;}
	.st114{fill:none;stroke:#FFCB00;stroke-width:9;stroke-linecap:round;stroke-linejoin:round;stroke-miterlimit:10;}
	.st115{filter:url(#Adobe_OpacityMaskFilter_20_);}
	.st116{mask:url(#SVGID_19_);}
	.st117{filter:url(#Adobe_OpacityMaskFilter_21_);}
	.st118{filter:url(#Adobe_OpacityMaskFilter_22_);}
	.st119{filter:url(#Adobe_OpacityMaskFilter_23_);}
	
		.st120{mask:url(#SVGID_20_);fill:none;stroke:#038057;stroke-width:9;stroke-linecap:round;stroke-linejoin:round;stroke-miterlimit:10;}
	.st121{fill:#FCFCFC;}
	.st122{fill:none;stroke:#FFCB00;stroke-width:8;stroke-linecap:round;stroke-linejoin:round;stroke-miterlimit:10;}
	.st123{fill:none;stroke:#FFCB00;stroke-width:7;stroke-linecap:round;stroke-linejoin:round;stroke-miterlimit:10;}
	.st124{fill:none;stroke:#FFCB00;stroke-width:5;stroke-linecap:round;stroke-miterlimit:10;}
	.st125{filter:url(#Adobe_OpacityMaskFilter_24_);}
	.st126{mask:url(#SVGID_21_);}
	.st127{filter:url(#Adobe_OpacityMaskFilter_25_);}
	.st128{filter:url(#Adobe_OpacityMaskFilter_26_);}
	.st129{fill:none;stroke:#038057;stroke-width:11;stroke-linecap:round;stroke-linejoin:round;stroke-miterlimit:10;}
	.st130{filter:url(#Adobe_OpacityMaskFilter_27_);}
	
		.st131{mask:url(#SVGID_22_);fill:none;stroke:#038057;stroke-width:11;stroke-linecap:round;stroke-linejoin:round;stroke-miterlimit:10;}
	.st132{fill:none;stroke:#FFCB00;stroke-width:11;stroke-linecap:round;stroke-linejoin:round;stroke-miterlimit:10;}
	.st133{fill:none;stroke:#038057;stroke-width:8;stroke-linecap:round;stroke-linejoin:round;stroke-miterlimit:10;}
	.st134{fill:#038057;}
	.st135{fill:#FFCB00;}
	.st136{fill:none;stroke:#494949;stroke-width:13;stroke-linecap:round;stroke-linejoin:round;stroke-dasharray:22.6216,22.6216;}
	.st137{fill:none;stroke:#494949;stroke-width:13;stroke-linecap:round;stroke-linejoin:round;stroke-dasharray:26.985,26.985;}
	.st138{fill:none;stroke:#494949;stroke-width:13;stroke-linecap:round;stroke-linejoin:round;stroke-dasharray:26.9622,26.9622;}
	.st139{fill:none;stroke:#494949;stroke-width:11.0534;stroke-linecap:round;stroke-linejoin:round;stroke-miterlimit:10;}
	.st140{fill:none;stroke:#494949;stroke-width:11.7237;stroke-linecap:round;stroke-linejoin:round;stroke-miterlimit:10;}
	.st141{fill:none;stroke:#494949;stroke-width:8.8696;stroke-linecap:round;stroke-linejoin:round;stroke-miterlimit:10;}
	.st142{filter:url(#Adobe_OpacityMaskFilter_28_);}
	.st143{mask:url(#SVGID_23_);fill:none;stroke:#494949;stroke-width:13;stroke-miterlimit:10;}
	.st144{filter:url(#Adobe_OpacityMaskFilter_29_);}
	.st145{mask:url(#SVGID_24_);}
	.st146{filter:url(#Adobe_OpacityMaskFilter_30_);}
	.st147{mask:url(#SVGID_25_);}
	.st148{filter:url(#Adobe_OpacityMaskFilter_31_);}
	.st149{fill:#494949;stroke:#494949;stroke-width:13;stroke-linejoin:round;stroke-miterlimit:10;}
	.st150{filter:url(#Adobe_OpacityMaskFilter_32_);}
	.st151{mask:url(#SVGID_26_);fill:#494949;stroke:#494949;stroke-width:13;stroke-linejoin:round;stroke-miterlimit:10;}
	.st152{fill:none;stroke:#FFFFFF;stroke-width:11.6846;stroke-linecap:round;stroke-miterlimit:10;}
	.st153{filter:url(#Adobe_OpacityMaskFilter_33_);}
	.st154{mask:url(#SVGID_27_);}
	.st155{fill:none;stroke:#494949;stroke-width:11.6846;stroke-linecap:round;stroke-miterlimit:10;}
</style>
<g id="Слой_1">
	<g>
		<path class="st2" d="M177.5,221.3c-4.4,0-8.8,0-13.2-0.1c-51.3-0.5-70.3-10.9-76.6-14.4c-6.8-3.7-13.3-8.2-19.3-13.3
			c-1.1-0.9-1.8-2.2-2.1-3.6c-1.9-8.6-9.6-53.3,20.5-89.9c12.4-15.1,28.6-25.8,48.1-31.9c15.6-4.8,28.9-5.4,35.4-5.6
			c49-1.9,76.9,18.4,91.6,35.8c29.2,34.5,24.5,76.1,22.3,88c-0.3,1.5-1,2.8-2.1,3.8c-4.5,3.9-9.3,7.5-14.3,10.7
			C239.1,219.3,209.1,221.3,177.5,221.3z M78.6,185.1c4.8,3.9,10,7.4,15.4,10.4c14.9,8.2,38.5,12.5,70.4,12.7
			c36,0.3,67,0.6,96.4-18.3c3.8-2.5,7.5-5.2,11-8.1c1.6-11.1,4.4-46.4-19.8-75c-12.8-15.2-37.4-32.9-81.1-31.2
			c-12,0.5-48.6,1.9-74,32.7C72.5,138,76.6,174,78.6,185.1z M277.8,185.2L277.8,185.2L277.8,185.2z"/>
	</g>
	<g>
		<path class="st2" d="M165.5,261.2c-24.5,0-42.5-2.8-51.1-4.5c-23-4.5-54.4-10.7-80.3-36.1c-7.5-7.4-18.8-18.5-17.7-32.9
			c1.6-19.1,23.8-35,56.6-40.6l2.2,12.8c-29,4.9-45,18.3-45.9,28.9c-0.7,8.3,7.4,16.2,13.8,22.5c23.1,22.8,52.4,28.5,73.7,32.7
			c12.5,2.5,46.5,7.5,91.3,1.3c34.2-4.7,63.6-14.6,82.8-27.8c12.2-8.4,26.1-18,25.8-29c-0.3-12.1-16.2-24.6-38.6-30.5l3.3-12.6
			c28.8,7.6,47.8,24.3,48.3,42.7c0.5,18.1-17.2,30.3-31.4,40.1c-14.7,10.2-42,23.6-88.4,30C193.7,260.3,178.7,261.2,165.5,261.2z"/>
	</g>
	<g>
		<path class="st2" d="M28.1,192.2c8.3,11,18.7,20.3,30.5,26.6c3,1.6,6,3,9.1,4.3c3.1,1.2,6.2,2.3,9.5,3.2c6.4,1.8,13,2.9,19.7,3.8
			c13.5,1.5,27.1,2.9,40.7,3.3l5.1,0.2l5.1,0.1c3.4,0,6.8,0.1,10.2,0.1l10.2-0.2c3.4,0,6.8-0.3,10.2-0.4c13.6-0.7,27.1-2.1,40.5-4.1
			c3.4-0.5,6.7-1.1,10-1.6c3.3-0.6,6.7-1.3,9.9-2c1.7-0.3,3.3-0.7,4.9-1.1l2.4-0.6l2.4-0.7c3.3-0.9,6.6-1.9,9.8-2.9
			c6.5-2,13-4.1,19.3-6.5c6.4-2.3,12.6-4.9,18.7-7.9c6-3.1,11.9-6.4,16.5-11c2.3-2.3,4.2-5,5.1-8c0.4-1.5,0.6-3.1,0.3-4.7
			c-0.2-1.6-0.8-3.2-1.5-4.7l0,0.1l0,0l0,0c-1.3-2-2.6-3.9-3.9-5.9c1.6,1.7,3.2,3.5,4.8,5.3l0,0l0,0h0v0l0,0.1
			c1,1.4,1.9,3.1,2.4,4.8c0.5,1.8,0.6,3.7,0.3,5.5c-0.6,3.7-2.4,7.1-4.8,9.9c-2.3,2.8-5,5.2-7.8,7.4c-2.8,2.2-5.7,4.2-8.7,6
			c-3,1.8-6.1,3.5-9.2,5.1c-3.1,1.6-6.3,3.1-9.5,4.5c-6.4,2.8-12.9,5.4-19.4,7.7c-3.3,1.2-6.6,2.3-9.8,3.4l-2.5,0.8l-2.6,0.8
			c-1.7,0.5-3.4,1-5.1,1.4c-6.8,1.7-13.6,3.2-20.5,4.3c-13.8,2.4-27.6,3.9-41.5,4.6c-3.5,0.1-7,0.4-10.4,0.4l-10.4,0.1
			c-3.5,0-7-0.2-10.4-0.3c-1.7-0.1-3.5-0.1-5.2-0.2l-5.2-0.4c-13.9-0.7-27.7-2.7-41.4-5c-6.9-1.3-13.8-2.9-20.5-5.3
			c-6.7-2.4-13.1-5.6-19-9.5C44.3,215.1,34.6,204.4,28.1,192.2z"/>
	</g>
</g>
<g id="Слой_2">
</g>
</svg>
