<?xml version="1.0" encoding="utf-8"?>
<!-- Generator: Adobe Illustrator 21.1.0, SVG Export Plug-In . SVG Version: 6.00 Build 0)  -->
<svg version="1.1" xmlns="http://www.w3.org/2000/svg" xmlns:xlink="http://www.w3.org/1999/xlink" x="0px" y="0px"
	 viewBox="0 0 337.3 338" style="enable-background:new 0 0 337.3 338;" xml:space="preserve">
<style type="text/css">
	.st0{fill:none;stroke:#494949;stroke-width:13;stroke-linecap:round;stroke-linejoin:round;stroke-miterlimit:10;}
	.st1{fill:none;stroke:#494949;stroke-width:14.6363;stroke-linejoin:round;stroke-miterlimit:10;}
	.st2{fill:#494949;}
	.st3{fill:none;stroke:#494949;stroke-width:13;stroke-linejoin:round;stroke-miterlimit:10;}
	.st4{fill:none;stroke:#494949;stroke-width:13.34;stroke-linejoin:round;stroke-miterlimit:10;}
	.st5{fill:none;stroke:#000000;stroke-width:13;stroke-linejoin:round;stroke-miterlimit:10;}
	.st6{fill:none;stroke:#000000;stroke-width:14.6363;stroke-linejoin:round;stroke-miterlimit:10;}
	.st7{fill:none;stroke:#000000;stroke-width:13;stroke-linecap:round;stroke-linejoin:round;stroke-miterlimit:10;}
	.st8{fill:none;stroke:#000000;stroke-width:14.636;stroke-linecap:round;stroke-linejoin:round;stroke-miterlimit:10;}
	.st9{fill:none;stroke:#000000;stroke-width:12.4844;stroke-linejoin:round;stroke-miterlimit:10;}
	.st10{fill:none;stroke:#494949;stroke-width:12.1445;stroke-linejoin:round;stroke-miterlimit:10;}
	.st11{fill:none;stroke:#000000;stroke-width:12.1445;stroke-linejoin:round;stroke-miterlimit:10;}
	.st12{fill:none;stroke:#000000;stroke-width:11.2103;stroke-linejoin:round;stroke-miterlimit:10;}
	.st13{fill:none;stroke:#000000;stroke-width:12.3133;stroke-linecap:round;stroke-linejoin:round;stroke-miterlimit:10;}
	.st14{fill:none;stroke:#000000;stroke-width:10.2152;stroke-linejoin:round;stroke-miterlimit:10;}
	.st15{fill:none;stroke:#494949;stroke-width:14.636;stroke-linecap:round;stroke-linejoin:round;stroke-miterlimit:10;}
	.st16{fill:none;stroke:#000000;stroke-width:10;stroke-linecap:round;stroke-miterlimit:10;}
	.st17{filter:url(#Adobe_OpacityMaskFilter);}
	.st18{mask:url(#SVGID_1_);}
	.st19{filter:url(#Adobe_OpacityMaskFilter_1_);}
	.st20{mask:url(#SVGID_2_);}
	.st21{fill:none;stroke:#000000;stroke-width:13;stroke-linecap:round;stroke-miterlimit:10;}
	.st22{fill:none;stroke:#000000;stroke-width:11.0297;stroke-linecap:round;stroke-linejoin:round;stroke-miterlimit:10;}
	.st23{filter:url(#Adobe_OpacityMaskFilter_2_);}
	.st24{mask:url(#SVGID_3_);fill:none;stroke:#000000;stroke-width:11.0297;stroke-linecap:round;stroke-miterlimit:10;}
	.st25{fill:none;stroke:#000000;stroke-width:11.0297;stroke-linecap:round;stroke-miterlimit:10;}
	.st26{fill:none;stroke:#000000;stroke-width:11.9488;stroke-linecap:round;stroke-miterlimit:10;}
	.st27{filter:url(#Adobe_OpacityMaskFilter_3_);}
	.st28{fill:none;stroke:#FFFFFF;stroke-width:13;stroke-linejoin:round;stroke-miterlimit:10;}
	.st29{fill:none;stroke:#FFFFFF;stroke-width:10;stroke-linejoin:round;stroke-miterlimit:10;}
	.st30{mask:url(#SVGID_4_);fill:#020202;}
	.st31{fill:none;stroke:#000000;stroke-width:10;stroke-linecap:round;stroke-linejoin:round;stroke-miterlimit:10;}
	.st32{fill:none;stroke:#FFFFFF;stroke-width:10;stroke-linecap:round;stroke-linejoin:round;}
	.st33{fill:#FFFFFF;}
	.st34{fill:none;stroke:#000000;stroke-width:10;stroke-linecap:round;stroke-linejoin:round;}
	.st35{fill:none;stroke:#494949;stroke-width:10;stroke-linecap:round;stroke-miterlimit:10;}
	.st36{fill:none;stroke:#494949;stroke-width:12;stroke-linecap:round;stroke-miterlimit:10;}
	.st37{fill:none;stroke:#494949;stroke-width:12.9013;stroke-miterlimit:10;}
	.st38{fill:none;stroke:#494949;stroke-width:10;stroke-miterlimit:10;}
	.st39{fill:none;stroke:#00F9F2;stroke-width:5;stroke-miterlimit:10;}
	.st40{fill:#00F9F2;}
	.st41{fill:none;stroke:#494949;stroke-width:11;stroke-miterlimit:10;}
	.st42{fill:none;stroke:#494949;stroke-width:10;stroke-linejoin:round;stroke-miterlimit:10;}
	.st43{fill:none;stroke:#494949;stroke-width:12.8445;stroke-linecap:round;stroke-linejoin:round;stroke-miterlimit:10;}
	.st44{fill:none;stroke:#000000;stroke-width:9.9006;stroke-linecap:round;stroke-linejoin:round;}
	
		.st45{fill:none;stroke:#000000;stroke-width:9.9006;stroke-linecap:round;stroke-linejoin:round;stroke-dasharray:25.9068,25.9068;}
	
		.st46{fill:none;stroke:#000000;stroke-width:9.9006;stroke-linecap:round;stroke-linejoin:round;stroke-dasharray:39.7013,39.7013;}
	
		.st47{fill:none;stroke:#000000;stroke-width:9.9006;stroke-linecap:round;stroke-linejoin:round;stroke-dasharray:39.6982,39.6982;}
	.st48{fill:none;}
	.st49{fill:none;stroke:#494949;stroke-width:10;stroke-linecap:round;stroke-linejoin:round;}
	.st50{fill:none;stroke:#494949;stroke-width:10;stroke-linecap:round;stroke-linejoin:round;stroke-dasharray:29.277,27.7361;}
	.st51{fill:none;stroke:#494949;stroke-width:10;stroke-linecap:round;stroke-linejoin:round;stroke-dasharray:20.9682,19.8646;}
	.st52{fill:none;stroke:#494949;stroke-width:10;stroke-linecap:round;stroke-linejoin:round;stroke-dasharray:18.011,17.0631;}
	.st53{fill:none;stroke:#494949;stroke-width:13;stroke-linecap:round;stroke-miterlimit:10;}
	.st54{fill:none;stroke:#494949;stroke-width:10;stroke-linecap:round;stroke-linejoin:round;stroke-miterlimit:10;}
	.st55{fill:none;stroke:#494949;stroke-width:11.2762;stroke-linecap:round;stroke-linejoin:round;stroke-miterlimit:10;}
	.st56{fill:none;stroke:#494949;stroke-width:12.901;stroke-linecap:round;stroke-miterlimit:10;}
	.st57{fill:none;stroke:#494949;stroke-width:11.2103;stroke-linejoin:round;stroke-miterlimit:10;}
	.st58{fill:none;stroke:#494949;stroke-width:13;stroke-linecap:round;stroke-linejoin:round;}
	.st59{fill:none;stroke:#494949;stroke-width:9;stroke-linecap:round;stroke-miterlimit:10;}
	.st60{fill:none;stroke:#494949;stroke-width:12.5238;stroke-linecap:round;stroke-linejoin:round;stroke-miterlimit:10;}
	.st61{fill:none;stroke:#494949;stroke-width:13;stroke-linecap:round;stroke-linejoin:round;stroke-dasharray:0,24.2514,0,0,0,0;}
	.st62{fill:none;stroke:#494949;stroke-width:13;stroke-linecap:round;stroke-linejoin:round;stroke-dasharray:0,24.2003,0,0,0,0;}
	.st63{filter:url(#Adobe_OpacityMaskFilter_4_);}
	.st64{mask:url(#SVGID_5_);}
	.st65{filter:url(#Adobe_OpacityMaskFilter_5_);}
	.st66{mask:url(#SVGID_6_);}
	.st67{filter:url(#Adobe_OpacityMaskFilter_6_);}
	.st68{mask:url(#SVGID_7_);}
	.st69{filter:url(#Adobe_OpacityMaskFilter_7_);}
	.st70{fill:none;stroke:#494949;stroke-width:13.7883;stroke-linecap:round;stroke-linejoin:round;stroke-miterlimit:10;}
	.st71{fill:#494949;stroke:#494949;stroke-width:5;stroke-linecap:round;stroke-linejoin:round;stroke-miterlimit:10;}
	.st72{fill:#494949;stroke:#494949;stroke-width:10;stroke-linecap:round;stroke-linejoin:round;stroke-miterlimit:10;}
	.st73{fill:none;stroke:#494949;stroke-width:13.4738;stroke-linecap:round;stroke-linejoin:round;stroke-miterlimit:10;}
	.st74{fill:none;stroke:#494949;stroke-width:13.3712;stroke-linecap:round;stroke-miterlimit:10;}
	.st75{filter:url(#Adobe_OpacityMaskFilter_8_);}
	.st76{fill:none;stroke:#000000;stroke-width:11.6846;stroke-linecap:round;stroke-miterlimit:10;}
	.st77{fill:none;stroke:#000000;stroke-width:11.6846;stroke-linejoin:round;stroke-miterlimit:10;}
	.st78{mask:url(#SVGID_8_);fill:#494949;stroke:#494949;stroke-width:13;stroke-linejoin:round;stroke-miterlimit:10;}
	.st79{filter:url(#Adobe_OpacityMaskFilter_9_);}
	.st80{mask:url(#SVGID_9_);fill:#494949;stroke:#494949;stroke-width:13;stroke-linejoin:round;stroke-miterlimit:10;}
	.st81{fill:none;stroke:#494949;stroke-width:12.2229;stroke-linecap:round;stroke-linejoin:round;stroke-miterlimit:10;}
	.st82{filter:url(#Adobe_OpacityMaskFilter_10_);}
	.st83{mask:url(#SVGID_10_);}
	.st84{filter:url(#Adobe_OpacityMaskFilter_11_);}
	.st85{filter:url(#Adobe_OpacityMaskFilter_12_);}
	.st86{mask:url(#SVGID_11_);}
	.st87{filter:url(#Adobe_OpacityMaskFilter_13_);}
	.st88{mask:url(#SVGID_12_);}
	.st89{filter:url(#Adobe_OpacityMaskFilter_14_);}
	
		.st90{mask:url(#SVGID_13_);fill:none;stroke:#494949;stroke-width:13;stroke-linecap:round;stroke-linejoin:round;stroke-miterlimit:10;}
	.st91{filter:url(#Adobe_OpacityMaskFilter_15_);}
	
		.st92{mask:url(#SVGID_14_);fill:none;stroke:#494949;stroke-width:13;stroke-linecap:round;stroke-linejoin:round;stroke-miterlimit:10;}
	.st93{fill:none;stroke:#494949;stroke-width:13.54;stroke-linecap:round;stroke-linejoin:round;stroke-miterlimit:10;}
	.st94{fill:none;stroke:#494949;stroke-width:11.8606;stroke-linecap:round;stroke-linejoin:round;stroke-miterlimit:10;}
	.st95{fill:none;stroke:#494949;stroke-width:9.856;stroke-linecap:round;stroke-miterlimit:10;}
	.st96{fill:none;stroke:#494949;stroke-width:9.9275;stroke-linecap:round;stroke-miterlimit:10;}
	.st97{fill:none;stroke:#494949;stroke-width:10.0726;stroke-linecap:round;stroke-miterlimit:10;}
	.st98{fill:none;stroke:#494949;stroke-width:14.2824;stroke-linecap:round;stroke-linejoin:round;stroke-miterlimit:10;}
	.st99{fill:none;stroke:#494949;stroke-width:14.3433;stroke-linecap:round;stroke-linejoin:round;stroke-miterlimit:10;}
	.st100{fill:none;stroke:#494949;stroke-width:13;stroke-miterlimit:10;}
	.st101{filter:url(#Adobe_OpacityMaskFilter_16_);}
	
		.st102{mask:url(#SVGID_15_);fill:none;stroke:#494949;stroke-width:13;stroke-linecap:round;stroke-linejoin:round;stroke-miterlimit:10;}
	.st103{filter:url(#Adobe_OpacityMaskFilter_17_);}
	.st104{mask:url(#SVGID_16_);}
	.st105{fill:none;stroke:#494949;stroke-width:8;stroke-linecap:round;stroke-linejoin:round;stroke-miterlimit:10;}
	.st106{fill:none;stroke:#FFCB00;stroke-width:10;stroke-linecap:round;stroke-miterlimit:10;}
	.st107{fill:none;stroke:#038057;stroke-width:10;stroke-linecap:round;stroke-linejoin:round;stroke-miterlimit:10;}
	.st108{fill:none;stroke:#038057;stroke-width:9;stroke-linecap:round;stroke-linejoin:round;stroke-miterlimit:10;}
	.st109{fill:none;stroke:#FFCB00;stroke-width:10;stroke-linecap:round;stroke-linejoin:round;stroke-miterlimit:10;}
	.st110{filter:url(#Adobe_OpacityMaskFilter_18_);}
	
		.st111{mask:url(#SVGID_17_);fill:none;stroke:#038057;stroke-width:9;stroke-linecap:round;stroke-linejoin:round;stroke-miterlimit:10;}
	.st112{filter:url(#Adobe_OpacityMaskFilter_19_);}
	
		.st113{mask:url(#SVGID_18_);fill:none;stroke:#038057;stroke-width:9;stroke-linecap:round;stroke-linejoin:round;stroke-miterlimit:10;}
	.st114{fill:none;stroke:#FFCB00;stroke-width:9;stroke-linecap:round;stroke-linejoin:round;stroke-miterlimit:10;}
	.st115{filter:url(#Adobe_OpacityMaskFilter_20_);}
	.st116{mask:url(#SVGID_19_);}
	.st117{filter:url(#Adobe_OpacityMaskFilter_21_);}
	.st118{filter:url(#Adobe_OpacityMaskFilter_22_);}
	.st119{filter:url(#Adobe_OpacityMaskFilter_23_);}
	
		.st120{mask:url(#SVGID_20_);fill:none;stroke:#038057;stroke-width:9;stroke-linecap:round;stroke-linejoin:round;stroke-miterlimit:10;}
	.st121{fill:#FCFCFC;}
	.st122{fill:none;stroke:#FFCB00;stroke-width:8;stroke-linecap:round;stroke-linejoin:round;stroke-miterlimit:10;}
	.st123{fill:none;stroke:#FFCB00;stroke-width:7;stroke-linecap:round;stroke-linejoin:round;stroke-miterlimit:10;}
	.st124{fill:none;stroke:#FFCB00;stroke-width:5;stroke-linecap:round;stroke-miterlimit:10;}
	.st125{filter:url(#Adobe_OpacityMaskFilter_24_);}
	.st126{mask:url(#SVGID_21_);}
	.st127{filter:url(#Adobe_OpacityMaskFilter_25_);}
	.st128{filter:url(#Adobe_OpacityMaskFilter_26_);}
	.st129{fill:none;stroke:#038057;stroke-width:11;stroke-linecap:round;stroke-linejoin:round;stroke-miterlimit:10;}
	.st130{filter:url(#Adobe_OpacityMaskFilter_27_);}
	
		.st131{mask:url(#SVGID_22_);fill:none;stroke:#038057;stroke-width:11;stroke-linecap:round;stroke-linejoin:round;stroke-miterlimit:10;}
	.st132{fill:none;stroke:#FFCB00;stroke-width:11;stroke-linecap:round;stroke-linejoin:round;stroke-miterlimit:10;}
	.st133{fill:none;stroke:#038057;stroke-width:8;stroke-linecap:round;stroke-linejoin:round;stroke-miterlimit:10;}
	.st134{fill:#038057;}
	.st135{fill:#FFCB00;}
	.st136{fill:none;stroke:#494949;stroke-width:13;stroke-linecap:round;stroke-linejoin:round;stroke-dasharray:22.6216,22.6216;}
	.st137{fill:none;stroke:#494949;stroke-width:13;stroke-linecap:round;stroke-linejoin:round;stroke-dasharray:26.985,26.985;}
	.st138{fill:none;stroke:#494949;stroke-width:13;stroke-linecap:round;stroke-linejoin:round;stroke-dasharray:26.9622,26.9622;}
	.st139{fill:none;stroke:#494949;stroke-width:11.0534;stroke-linecap:round;stroke-linejoin:round;stroke-miterlimit:10;}
	.st140{fill:none;stroke:#494949;stroke-width:11.7237;stroke-linecap:round;stroke-linejoin:round;stroke-miterlimit:10;}
	.st141{fill:none;stroke:#494949;stroke-width:8.8696;stroke-linecap:round;stroke-linejoin:round;stroke-miterlimit:10;}
	.st142{filter:url(#Adobe_OpacityMaskFilter_28_);}
	.st143{mask:url(#SVGID_23_);fill:none;stroke:#494949;stroke-width:13;stroke-miterlimit:10;}
	.st144{filter:url(#Adobe_OpacityMaskFilter_29_);}
	.st145{mask:url(#SVGID_24_);}
	.st146{filter:url(#Adobe_OpacityMaskFilter_30_);}
	.st147{mask:url(#SVGID_25_);}
	.st148{filter:url(#Adobe_OpacityMaskFilter_31_);}
	.st149{fill:#494949;stroke:#494949;stroke-width:13;stroke-linejoin:round;stroke-miterlimit:10;}
	.st150{filter:url(#Adobe_OpacityMaskFilter_32_);}
	.st151{mask:url(#SVGID_26_);fill:#494949;stroke:#494949;stroke-width:13;stroke-linejoin:round;stroke-miterlimit:10;}
	.st152{fill:none;stroke:#FFFFFF;stroke-width:11.6846;stroke-linecap:round;stroke-miterlimit:10;}
	.st153{filter:url(#Adobe_OpacityMaskFilter_33_);}
	.st154{mask:url(#SVGID_27_);}
	.st155{fill:none;stroke:#494949;stroke-width:11.6846;stroke-linecap:round;stroke-miterlimit:10;}
</style>
<g id="Слой_1">
	<g>
		<path class="st2" d="M143.6,280c-27.9,0-62.6-3.7-96.6-17.3c-26-10.4-38.6-21.4-41-35.6c-2.4-14.5,7-26.5,14.5-36.1
			c14.1-17.9,33.4-31.2,57.3-39.4l4.2,12.3c-21.6,7.4-38.8,19.3-51.3,35.2c-6.6,8.4-13.4,17.1-11.9,25.9c1.5,9.1,12,17.3,33,25.7
			c60.6,24.2,123.9,15.4,141.9,12.1c25.8-4.7,74.6-17.9,111.5-53.2c6.9-6.6,13.8-14.4,13.2-22.3c-1.1-13.5-22.8-26.7-53.9-33
			l2.6-12.7c38,7.7,62.6,24.8,64.2,44.7c1.1,13.3-8,24-17.1,32.7c-39.3,37.7-90.9,51.7-118.2,56.6C187.2,277.1,168,280,143.6,280z"
			/>
	</g>
	<g>
		<path class="st2" d="M163.1,226.1c-23.1,0-53.6-3.1-78.8-16.5c-1.9-1-7.5-4-11.1-10.4c-3.5-6.4-3-12.7-2.8-15.8
			c1.2-15,3.9-32.1,5-38.7c2.5-15.4,4.2-25.4,6.7-34.1c0.9-3,4.3-13.4,12-23.2l0,0c16.9-21.4,45.7-24.4,54.2-24.9
			c18.8-1,30.8,4.9,41.4,10c10.2,5,18.3,8.9,31.3,6.5c0.4-0.1,0.9-0.2,1.4-0.3c6.5-1.3,18.5-3.7,27.5,3.7c4.4,3.6,6.1,8.1,8.6,15.1
			c3.2,9.2,6.1,18.8,8.7,28.5c0,0.1,0.1,0.3,0.1,0.4l0.6,3.2c2.9,15,5.2,26.9,7.4,36.6l0,0.1c0.8,3.8,2.6,11.7-1.1,19.9
			c-2.1,4.6-4.9,7.2-8.5,10.5c-6.8,6.3-14.2,9.8-21.9,13.4c0,0-1.9,0.9-3.5,1.6c-13,5.6-27.3,9.6-42.6,12
			C196.7,223.9,182.5,226.1,163.1,226.1z M104.4,95.4c-5,6.3-8.3,13.9-9.7,18.8c-2.3,8-3.9,17.6-6.4,32.6
			c-1.1,6.5-3.8,23.1-4.9,37.6c-0.2,2.2-0.4,5.5,1.2,8.5c1.7,3,4.5,4.5,5.8,5.2c42.5,22.6,104.8,12.8,105.5,12.7
			c14.2-2.2,27.4-5.9,39.5-11.1c1.4-0.6,3.1-1.4,3.1-1.4c7.1-3.4,13.3-6.2,18.6-11.2c3.3-3,4.5-4.2,5.4-6.3
			c1.9-4.2,0.9-8.8,0.2-11.7l0-0.1c-2.2-9.9-4.5-21.9-7.4-37l-0.6-3c-2.4-9.3-5.3-18.5-8.3-27.3c-2.2-6.3-3.1-8.1-4.5-9.3
			c-4.2-3.5-12.1-1.9-16.8-1c-0.6,0.1-1.1,0.2-1.6,0.3c-17.2,3.2-28.5-2.3-39.4-7.6c-10-4.9-19.5-9.5-35-8.7
			C142,75.9,117.9,78.4,104.4,95.4L104.4,95.4z"/>
	</g>
	<g>
		<path class="st2" d="M124.5,129.2c-6.6,0-12.1-1.6-16.9-5.3c-8.1-6.2-12.6-17-13.3-32.3c-0.1-2.8,2-5.1,4.8-5.2
			c2.7-0.1,5.1,2,5.2,4.8c0.6,12.2,3.7,20.5,9.3,24.8c8.9,6.8,24.2,2.1,54.5-7.2c7-2.1,14.8-4.5,23.6-7.1
			c17.9-5.2,35.9-10.1,53.6-14.4c2.7-0.7,5.4,1,6,3.7c0.7,2.7-1,5.4-3.7,6c-17.5,4.3-35.4,9.1-53.2,14.3c-8.7,2.5-16.6,5-23.5,7.1
			C150.1,124.8,135.6,129.2,124.5,129.2z"/>
	</g>
	<g>
		<path class="st2" d="M163.9,195.2c-37.1,0-67.6-11.2-85.1-19.5c-2.5-1.2-3.6-4.2-2.4-6.7c1.2-2.5,4.2-3.6,6.7-2.4
			c22.6,10.7,68.5,26.7,121.5,13.6c20.7-5.1,40.2-14.1,58.1-26.7c2.3-1.6,5.4-1,7,1.2c1.6,2.3,1,5.4-1.2,7
			c-18.9,13.3-39.6,22.8-61.5,28.2C192,193.7,177.5,195.2,163.9,195.2z"/>
	</g>
</g>
<g id="Слой_2">
</g>
</svg>
