<svg xmlns="http://www.w3.org/2000/svg" viewBox="0 0 314.65 314.24"><defs><style>.cls-1{fill:#494949;}</style></defs><title>SunРесурс 2</title><g id="Слой_2" data-name="Слой 2"><g id="Слой_1-2" data-name="Слой 1"><path class="cls-1" d="M79.53,87.07a7,7,0,0,1-5-2L45.87,56.3a7,7,0,0,1,9.9-9.9L84.48,75.12a7,7,0,0,1-5,12Z"/><path class="cls-1" d="M263.76,269.88a7,7,0,0,1-4.92-2l-28.72-28.37a7,7,0,1,1,9.84-10l28.72,28.37a7,7,0,0,1-4.92,12Z"/><path class="cls-1" d="M157.14,53.1a7,7,0,0,1-7-7V7a7,7,0,0,1,14,0V46.1A7,7,0,0,1,157.14,53.1Z"/><path class="cls-1" d="M307.65,164.38H268.47a7,7,0,0,1,0-14h39.18a7,7,0,0,1,0,14Z"/><path class="cls-1" d="M46.45,164.18H7a7,7,0,0,1,0-14H46.45a7,7,0,0,1,0,14Z"/><path class="cls-1" d="M157.2,314.24a7,7,0,0,1-7-7V267.16a7,7,0,0,1,14,0v40.08A7,7,0,0,1,157.2,314.24Z"/><path class="cls-1" d="M235.12,86.63a7,7,0,0,1-4.95-12l28-28a7,7,0,0,1,9.9,9.9l-28,28A7,7,0,0,1,235.12,86.63Z"/><path class="cls-1" d="M51.06,270.77a7,7,0,0,1-5-12l28.38-28.38a7,7,0,0,1,9.9,9.9L56,268.72A7,7,0,0,1,51.06,270.77Z"/><path class="cls-1" d="M115.2,56.57a7,7,0,0,1-6.53-4.47L98.4,25.59a7,7,0,1,1,13.06-5.05L121.72,47a7,7,0,0,1-6.53,9.53Z"/><path class="cls-1" d="M209.82,298.28a7,7,0,0,1-6.51-4.43l-10.37-26.29a7,7,0,1,1,13-5.13l10.37,26.29a7,7,0,0,1-6.51,9.57Z"/><path class="cls-1" d="M204.48,57.18a7,7,0,0,1-6.4-9.83l11.06-25A7,7,0,0,1,221.95,28L210.89,53A7,7,0,0,1,204.48,57.18Z"/><path class="cls-1" d="M289.43,222.78a7,7,0,0,1-2.83-.6L261.52,211.1a7,7,0,1,1,5.66-12.81l25.08,11.08a7,7,0,0,1-2.83,13.41Z"/><path class="cls-1" d="M50.56,117a7,7,0,0,1-2.82-.6L22.47,105.28a7,7,0,1,1,5.66-12.81l25.26,11.16A7,7,0,0,1,50.56,117Z"/><path class="cls-1" d="M99.07,295.94a7,7,0,0,1-6.4-9.83L104,260.44a7,7,0,0,1,12.81,5.66l-11.34,25.66A7,7,0,0,1,99.07,295.94Z"/><path class="cls-1" d="M265.43,122.58A7,7,0,0,1,262.9,109l25.85-10a7,7,0,0,1,5.05,13.05L268,122.1A7,7,0,0,1,265.43,122.58Z"/><path class="cls-1" d="M22.73,216.61a7,7,0,0,1-2.53-13.53l26.2-10.15A7,7,0,1,1,51.46,206l-26.2,10.14A7,7,0,0,1,22.73,216.61Z"/><path class="cls-1" d="M157.57,242a84.55,84.55,0,1,1,84.55-84.55A84.64,84.64,0,0,1,157.57,242Zm0-155.09a70.55,70.55,0,1,0,70.55,70.55A70.63,70.63,0,0,0,157.57,86.93Z"/></g></g></svg>