<svg xmlns="http://www.w3.org/2000/svg" viewBox="0 0 261.53 209.71"><defs><style>.cls-1{fill:#494949;}</style></defs><title>шапка неглубокаяРесурс 5</title><g id="Слой_2" data-name="Слой 2"><g id="Слой_1-2" data-name="Слой 1"><path class="cls-1" d="M231.9,209.71c-2.86,0-8.27-1.1-18-7.49a61.27,61.27,0,0,0-6.48-3.52c-2.06-1-4.2-2.08-6.32-3.35-11.52-6.91-41-22.66-61-31.62-18.84-8.44-33.73-12.46-52.58-17.56L79.67,144c-39-10.66-48.67-5.91-51-3.38-.63.69-2.31,2.52-2.29,4.54,0,2.29,2.3,4.69,4.25,6a6.53,6.53,0,0,1,1.14,1c1.37.87,2.7,1.62,3.93,2.26a6.5,6.5,0,0,1-6,11.55c-11.07-5.73-19.55-14-24.52-24C-3.71,124.24,1,106.38,3.31,97.8,7.45,82.21,19.7,58.07,41.66,37.06c17.07-16.33,45.81-36,85.79-37,37.49-.94,66,14.73,83.39,28,20.61,15.82,36.89,37.32,43.56,57.51,6.24,18.91,7,41.13,7.05,42.07A153.17,153.17,0,0,1,256,174.33c-.49,3.31-3.36,20-12.81,29.92a16.33,16.33,0,0,1-9.11,5.23A10.26,10.26,0,0,1,231.9,209.71ZM41.69,124.38c10.42,0,24,2.38,41.41,7.12l7.82,2.12c19.4,5.24,34.73,9.39,54.5,18.25C165.84,161,196,177.12,207.8,184.2c1.67,1,3.48,1.9,5.4,2.84a72.11,72.11,0,0,1,7.83,4.3c5.27,3.47,9.33,5.16,10.73,5.33a3.51,3.51,0,0,0,2-1.39c6.12-6.41,8.85-18.87,9.39-23.12a6.46,6.46,0,0,1,.21-1,141.38,141.38,0,0,0,5.1-43c0-.21-.77-21.32-6.41-38.42C231.56,57.86,188,11.48,127.78,13,61.11,14.72,23,74.24,15.88,101.14c-2,7.4-5.59,21,.51,34.21a25.5,25.5,0,0,1,2.7-3.48C23.68,126.87,31,124.38,41.69,124.38Z"/><path class="cls-1" d="M245.42,181.74a6.47,6.47,0,0,1-4-1.35,447.57,447.57,0,0,0-47-31.54,424.07,424.07,0,0,0-87.3-38.07c-.38-.12-39.06-11.81-70.64-6.28a36.93,36.93,0,0,0-12.43,5.1l-.46.27A28.53,28.53,0,0,0,17,114.81a19.78,19.78,0,0,0-4.25,7.94A6.5,6.5,0,0,1,.26,119.27a32.66,32.66,0,0,1,7.05-13.09,39.52,39.52,0,0,1,9.87-7.57l.23-.14a50,50,0,0,1,16.9-6.77c34.7-6.07,75,6.14,76.7,6.66a437.26,437.26,0,0,1,90,39.26,460.53,460.53,0,0,1,48.34,32.46,6.5,6.5,0,0,1-4,11.66Z"/><path class="cls-1" d="M226.89,209.64c-10,0-19.9-.3-29.66-.89-70.69-4.3-123.07-22.94-148-33.67-6.57-2.83-13.09-5.84-19.39-9a6.5,6.5,0,1,1,5.78-11.65c6.09,3,12.4,5.94,18.75,8.67C78.52,173.53,129.3,191.59,198,195.77c11.39.69,23.06,1,34.69.83a6.5,6.5,0,0,1,.16,13Q229.88,209.64,226.89,209.64Z"/></g></g></svg>