<?xml version="1.0" encoding="utf-8"?>
<!-- Generator: Adobe Illustrator 21.1.0, SVG Export Plug-In . SVG Version: 6.00 Build 0)  -->
<svg version="1.1" xmlns="http://www.w3.org/2000/svg" xmlns:xlink="http://www.w3.org/1999/xlink" x="0px" y="0px"
	 viewBox="0 0 337.3 338" style="enable-background:new 0 0 337.3 338;" xml:space="preserve">
<style type="text/css">
	.st0{fill:none;stroke:#494949;stroke-width:13;stroke-linecap:round;stroke-linejoin:round;stroke-miterlimit:10;}
	.st1{fill:none;stroke:#494949;stroke-width:14.6363;stroke-linejoin:round;stroke-miterlimit:10;}
	.st2{fill:#494949;}
	.st3{fill:none;stroke:#494949;stroke-width:13;stroke-linejoin:round;stroke-miterlimit:10;}
	.st4{fill:none;stroke:#494949;stroke-width:13.34;stroke-linejoin:round;stroke-miterlimit:10;}
	.st5{fill:none;stroke:#000000;stroke-width:13;stroke-linejoin:round;stroke-miterlimit:10;}
	.st6{fill:none;stroke:#000000;stroke-width:14.6363;stroke-linejoin:round;stroke-miterlimit:10;}
	.st7{fill:none;stroke:#000000;stroke-width:13;stroke-linecap:round;stroke-linejoin:round;stroke-miterlimit:10;}
	.st8{fill:none;stroke:#000000;stroke-width:14.636;stroke-linecap:round;stroke-linejoin:round;stroke-miterlimit:10;}
	.st9{fill:none;stroke:#000000;stroke-width:12.4844;stroke-linejoin:round;stroke-miterlimit:10;}
	.st10{fill:none;stroke:#494949;stroke-width:12.1445;stroke-linejoin:round;stroke-miterlimit:10;}
	.st11{fill:none;stroke:#000000;stroke-width:12.1445;stroke-linejoin:round;stroke-miterlimit:10;}
	.st12{fill:none;stroke:#000000;stroke-width:11.2103;stroke-linejoin:round;stroke-miterlimit:10;}
	.st13{fill:none;stroke:#000000;stroke-width:12.3133;stroke-linecap:round;stroke-linejoin:round;stroke-miterlimit:10;}
	.st14{fill:none;stroke:#000000;stroke-width:10.2152;stroke-linejoin:round;stroke-miterlimit:10;}
	.st15{fill:none;stroke:#494949;stroke-width:14.636;stroke-linecap:round;stroke-linejoin:round;stroke-miterlimit:10;}
	.st16{fill:none;stroke:#000000;stroke-width:10;stroke-linecap:round;stroke-miterlimit:10;}
	.st17{filter:url(#Adobe_OpacityMaskFilter);}
	.st18{mask:url(#SVGID_1_);}
	.st19{filter:url(#Adobe_OpacityMaskFilter_1_);}
	.st20{mask:url(#SVGID_2_);}
	.st21{fill:none;stroke:#000000;stroke-width:13;stroke-linecap:round;stroke-miterlimit:10;}
	.st22{fill:none;stroke:#000000;stroke-width:11.0297;stroke-linecap:round;stroke-linejoin:round;stroke-miterlimit:10;}
	.st23{filter:url(#Adobe_OpacityMaskFilter_2_);}
	.st24{mask:url(#SVGID_3_);fill:none;stroke:#000000;stroke-width:11.0297;stroke-linecap:round;stroke-miterlimit:10;}
	.st25{fill:none;stroke:#000000;stroke-width:11.0297;stroke-linecap:round;stroke-miterlimit:10;}
	.st26{fill:none;stroke:#000000;stroke-width:11.9488;stroke-linecap:round;stroke-miterlimit:10;}
	.st27{filter:url(#Adobe_OpacityMaskFilter_3_);}
	.st28{fill:none;stroke:#FFFFFF;stroke-width:13;stroke-linejoin:round;stroke-miterlimit:10;}
	.st29{fill:none;stroke:#FFFFFF;stroke-width:10;stroke-linejoin:round;stroke-miterlimit:10;}
	.st30{mask:url(#SVGID_4_);fill:#020202;}
	.st31{fill:none;stroke:#000000;stroke-width:10;stroke-linecap:round;stroke-linejoin:round;stroke-miterlimit:10;}
	.st32{fill:none;stroke:#FFFFFF;stroke-width:10;stroke-linecap:round;stroke-linejoin:round;}
	.st33{fill:#FFFFFF;}
	.st34{fill:none;stroke:#000000;stroke-width:10;stroke-linecap:round;stroke-linejoin:round;}
	.st35{fill:none;stroke:#494949;stroke-width:10;stroke-linecap:round;stroke-miterlimit:10;}
	.st36{fill:none;stroke:#494949;stroke-width:12;stroke-linecap:round;stroke-miterlimit:10;}
	.st37{fill:none;stroke:#494949;stroke-width:12.9013;stroke-miterlimit:10;}
	.st38{fill:none;stroke:#494949;stroke-width:10;stroke-miterlimit:10;}
	.st39{fill:none;stroke:#00F9F2;stroke-width:5;stroke-miterlimit:10;}
	.st40{fill:#00F9F2;}
	.st41{fill:none;stroke:#494949;stroke-width:11;stroke-miterlimit:10;}
	.st42{fill:none;stroke:#494949;stroke-width:10;stroke-linejoin:round;stroke-miterlimit:10;}
	.st43{fill:none;stroke:#494949;stroke-width:12.8445;stroke-linecap:round;stroke-linejoin:round;stroke-miterlimit:10;}
	.st44{fill:none;stroke:#000000;stroke-width:9.9006;stroke-linecap:round;stroke-linejoin:round;}
	
		.st45{fill:none;stroke:#000000;stroke-width:9.9006;stroke-linecap:round;stroke-linejoin:round;stroke-dasharray:25.9068,25.9068;}
	
		.st46{fill:none;stroke:#000000;stroke-width:9.9006;stroke-linecap:round;stroke-linejoin:round;stroke-dasharray:39.7013,39.7013;}
	
		.st47{fill:none;stroke:#000000;stroke-width:9.9006;stroke-linecap:round;stroke-linejoin:round;stroke-dasharray:39.6982,39.6982;}
	.st48{fill:none;}
	.st49{fill:none;stroke:#494949;stroke-width:10;stroke-linecap:round;stroke-linejoin:round;}
	.st50{fill:none;stroke:#494949;stroke-width:10;stroke-linecap:round;stroke-linejoin:round;stroke-dasharray:29.277,27.7361;}
	.st51{fill:none;stroke:#494949;stroke-width:10;stroke-linecap:round;stroke-linejoin:round;stroke-dasharray:20.9682,19.8646;}
	.st52{fill:none;stroke:#494949;stroke-width:10;stroke-linecap:round;stroke-linejoin:round;stroke-dasharray:18.011,17.0631;}
	.st53{fill:none;stroke:#494949;stroke-width:13;stroke-linecap:round;stroke-miterlimit:10;}
	.st54{fill:none;stroke:#494949;stroke-width:10;stroke-linecap:round;stroke-linejoin:round;stroke-miterlimit:10;}
	.st55{fill:none;stroke:#494949;stroke-width:11.2762;stroke-linecap:round;stroke-linejoin:round;stroke-miterlimit:10;}
	.st56{fill:none;stroke:#494949;stroke-width:12.901;stroke-linecap:round;stroke-miterlimit:10;}
	.st57{fill:none;stroke:#494949;stroke-width:11.2103;stroke-linejoin:round;stroke-miterlimit:10;}
	.st58{fill:none;stroke:#494949;stroke-width:13;stroke-linecap:round;stroke-linejoin:round;}
	.st59{fill:none;stroke:#494949;stroke-width:9;stroke-linecap:round;stroke-miterlimit:10;}
	.st60{fill:none;stroke:#494949;stroke-width:12.5238;stroke-linecap:round;stroke-linejoin:round;stroke-miterlimit:10;}
	.st61{fill:none;stroke:#494949;stroke-width:13;stroke-linecap:round;stroke-linejoin:round;stroke-dasharray:0,24.2514,0,0,0,0;}
	.st62{fill:none;stroke:#494949;stroke-width:13;stroke-linecap:round;stroke-linejoin:round;stroke-dasharray:0,24.2003,0,0,0,0;}
	.st63{filter:url(#Adobe_OpacityMaskFilter_4_);}
	.st64{mask:url(#SVGID_5_);}
	.st65{filter:url(#Adobe_OpacityMaskFilter_5_);}
	.st66{mask:url(#SVGID_6_);}
	.st67{filter:url(#Adobe_OpacityMaskFilter_6_);}
	.st68{mask:url(#SVGID_7_);}
	.st69{filter:url(#Adobe_OpacityMaskFilter_7_);}
	.st70{fill:none;stroke:#494949;stroke-width:13.7883;stroke-linecap:round;stroke-linejoin:round;stroke-miterlimit:10;}
	.st71{fill:#494949;stroke:#494949;stroke-width:5;stroke-linecap:round;stroke-linejoin:round;stroke-miterlimit:10;}
	.st72{fill:#494949;stroke:#494949;stroke-width:10;stroke-linecap:round;stroke-linejoin:round;stroke-miterlimit:10;}
	.st73{fill:none;stroke:#494949;stroke-width:13.4738;stroke-linecap:round;stroke-linejoin:round;stroke-miterlimit:10;}
	.st74{fill:none;stroke:#494949;stroke-width:13.3712;stroke-linecap:round;stroke-miterlimit:10;}
	.st75{filter:url(#Adobe_OpacityMaskFilter_8_);}
	.st76{fill:none;stroke:#000000;stroke-width:11.6846;stroke-linecap:round;stroke-miterlimit:10;}
	.st77{fill:none;stroke:#000000;stroke-width:11.6846;stroke-linejoin:round;stroke-miterlimit:10;}
	.st78{mask:url(#SVGID_8_);fill:#494949;stroke:#494949;stroke-width:13;stroke-linejoin:round;stroke-miterlimit:10;}
	.st79{filter:url(#Adobe_OpacityMaskFilter_9_);}
	.st80{mask:url(#SVGID_9_);fill:#494949;stroke:#494949;stroke-width:13;stroke-linejoin:round;stroke-miterlimit:10;}
	.st81{fill:none;stroke:#494949;stroke-width:12.2229;stroke-linecap:round;stroke-linejoin:round;stroke-miterlimit:10;}
	.st82{filter:url(#Adobe_OpacityMaskFilter_10_);}
	.st83{mask:url(#SVGID_10_);}
	.st84{filter:url(#Adobe_OpacityMaskFilter_11_);}
	.st85{filter:url(#Adobe_OpacityMaskFilter_12_);}
	.st86{mask:url(#SVGID_11_);}
	.st87{filter:url(#Adobe_OpacityMaskFilter_13_);}
	.st88{mask:url(#SVGID_12_);}
	.st89{filter:url(#Adobe_OpacityMaskFilter_14_);}
	
		.st90{mask:url(#SVGID_13_);fill:none;stroke:#494949;stroke-width:13;stroke-linecap:round;stroke-linejoin:round;stroke-miterlimit:10;}
	.st91{filter:url(#Adobe_OpacityMaskFilter_15_);}
	
		.st92{mask:url(#SVGID_14_);fill:none;stroke:#494949;stroke-width:13;stroke-linecap:round;stroke-linejoin:round;stroke-miterlimit:10;}
	.st93{fill:none;stroke:#494949;stroke-width:13.54;stroke-linecap:round;stroke-linejoin:round;stroke-miterlimit:10;}
	.st94{fill:none;stroke:#494949;stroke-width:11.8606;stroke-linecap:round;stroke-linejoin:round;stroke-miterlimit:10;}
	.st95{fill:none;stroke:#494949;stroke-width:9.856;stroke-linecap:round;stroke-miterlimit:10;}
	.st96{fill:none;stroke:#494949;stroke-width:9.9275;stroke-linecap:round;stroke-miterlimit:10;}
	.st97{fill:none;stroke:#494949;stroke-width:10.0726;stroke-linecap:round;stroke-miterlimit:10;}
	.st98{fill:none;stroke:#494949;stroke-width:14.2824;stroke-linecap:round;stroke-linejoin:round;stroke-miterlimit:10;}
	.st99{fill:none;stroke:#494949;stroke-width:14.3433;stroke-linecap:round;stroke-linejoin:round;stroke-miterlimit:10;}
	.st100{fill:none;stroke:#494949;stroke-width:13;stroke-miterlimit:10;}
	.st101{filter:url(#Adobe_OpacityMaskFilter_16_);}
	
		.st102{mask:url(#SVGID_15_);fill:none;stroke:#494949;stroke-width:13;stroke-linecap:round;stroke-linejoin:round;stroke-miterlimit:10;}
	.st103{filter:url(#Adobe_OpacityMaskFilter_17_);}
	.st104{mask:url(#SVGID_16_);}
	.st105{fill:none;stroke:#494949;stroke-width:8;stroke-linecap:round;stroke-linejoin:round;stroke-miterlimit:10;}
	.st106{fill:none;stroke:#FFCB00;stroke-width:10;stroke-linecap:round;stroke-miterlimit:10;}
	.st107{fill:none;stroke:#038057;stroke-width:10;stroke-linecap:round;stroke-linejoin:round;stroke-miterlimit:10;}
	.st108{fill:none;stroke:#038057;stroke-width:9;stroke-linecap:round;stroke-linejoin:round;stroke-miterlimit:10;}
	.st109{fill:none;stroke:#FFCB00;stroke-width:10;stroke-linecap:round;stroke-linejoin:round;stroke-miterlimit:10;}
	.st110{filter:url(#Adobe_OpacityMaskFilter_18_);}
	
		.st111{mask:url(#SVGID_17_);fill:none;stroke:#038057;stroke-width:9;stroke-linecap:round;stroke-linejoin:round;stroke-miterlimit:10;}
	.st112{filter:url(#Adobe_OpacityMaskFilter_19_);}
	
		.st113{mask:url(#SVGID_18_);fill:none;stroke:#038057;stroke-width:9;stroke-linecap:round;stroke-linejoin:round;stroke-miterlimit:10;}
	.st114{fill:none;stroke:#FFCB00;stroke-width:9;stroke-linecap:round;stroke-linejoin:round;stroke-miterlimit:10;}
	.st115{filter:url(#Adobe_OpacityMaskFilter_20_);}
	.st116{mask:url(#SVGID_19_);}
	.st117{filter:url(#Adobe_OpacityMaskFilter_21_);}
	.st118{filter:url(#Adobe_OpacityMaskFilter_22_);}
	.st119{filter:url(#Adobe_OpacityMaskFilter_23_);}
	
		.st120{mask:url(#SVGID_20_);fill:none;stroke:#038057;stroke-width:9;stroke-linecap:round;stroke-linejoin:round;stroke-miterlimit:10;}
	.st121{fill:#FCFCFC;}
	.st122{fill:none;stroke:#FFCB00;stroke-width:8;stroke-linecap:round;stroke-linejoin:round;stroke-miterlimit:10;}
	.st123{fill:none;stroke:#FFCB00;stroke-width:7;stroke-linecap:round;stroke-linejoin:round;stroke-miterlimit:10;}
	.st124{fill:none;stroke:#FFCB00;stroke-width:5;stroke-linecap:round;stroke-miterlimit:10;}
	.st125{filter:url(#Adobe_OpacityMaskFilter_24_);}
	.st126{mask:url(#SVGID_21_);}
	.st127{filter:url(#Adobe_OpacityMaskFilter_25_);}
	.st128{filter:url(#Adobe_OpacityMaskFilter_26_);}
	.st129{fill:none;stroke:#038057;stroke-width:11;stroke-linecap:round;stroke-linejoin:round;stroke-miterlimit:10;}
	.st130{filter:url(#Adobe_OpacityMaskFilter_27_);}
	
		.st131{mask:url(#SVGID_22_);fill:none;stroke:#038057;stroke-width:11;stroke-linecap:round;stroke-linejoin:round;stroke-miterlimit:10;}
	.st132{fill:none;stroke:#FFCB00;stroke-width:11;stroke-linecap:round;stroke-linejoin:round;stroke-miterlimit:10;}
	.st133{fill:none;stroke:#038057;stroke-width:8;stroke-linecap:round;stroke-linejoin:round;stroke-miterlimit:10;}
	.st134{fill:#038057;}
	.st135{fill:#FFCB00;}
	.st136{fill:none;stroke:#494949;stroke-width:13;stroke-linecap:round;stroke-linejoin:round;stroke-dasharray:22.6216,22.6216;}
	.st137{fill:none;stroke:#494949;stroke-width:13;stroke-linecap:round;stroke-linejoin:round;stroke-dasharray:26.985,26.985;}
	.st138{fill:none;stroke:#494949;stroke-width:13;stroke-linecap:round;stroke-linejoin:round;stroke-dasharray:26.9622,26.9622;}
	.st139{fill:none;stroke:#494949;stroke-width:11.0534;stroke-linecap:round;stroke-linejoin:round;stroke-miterlimit:10;}
	.st140{fill:none;stroke:#494949;stroke-width:11.7237;stroke-linecap:round;stroke-linejoin:round;stroke-miterlimit:10;}
	.st141{fill:none;stroke:#494949;stroke-width:8.8696;stroke-linecap:round;stroke-linejoin:round;stroke-miterlimit:10;}
	.st142{filter:url(#Adobe_OpacityMaskFilter_28_);}
	.st143{mask:url(#SVGID_23_);fill:none;stroke:#494949;stroke-width:13;stroke-miterlimit:10;}
	.st144{filter:url(#Adobe_OpacityMaskFilter_29_);}
	.st145{mask:url(#SVGID_24_);}
	.st146{filter:url(#Adobe_OpacityMaskFilter_30_);}
	.st147{mask:url(#SVGID_25_);}
	.st148{filter:url(#Adobe_OpacityMaskFilter_31_);}
	.st149{fill:#494949;stroke:#494949;stroke-width:13;stroke-linejoin:round;stroke-miterlimit:10;}
	.st150{filter:url(#Adobe_OpacityMaskFilter_32_);}
	.st151{mask:url(#SVGID_26_);fill:#494949;stroke:#494949;stroke-width:13;stroke-linejoin:round;stroke-miterlimit:10;}
	.st152{fill:none;stroke:#FFFFFF;stroke-width:11.6846;stroke-linecap:round;stroke-miterlimit:10;}
	.st153{filter:url(#Adobe_OpacityMaskFilter_33_);}
	.st154{mask:url(#SVGID_27_);}
	.st155{fill:none;stroke:#494949;stroke-width:11.6846;stroke-linecap:round;stroke-miterlimit:10;}
</style>
<g id="Слой_1">
	<g>
		<path class="st2" d="M118.4,281.5c-19.2,0-42.6-2.7-66.3-11.9c-21.4-8.4-32.7-17.9-35.6-29.9c-3.6-15.1,5.6-28.8,11.3-35.7
			c2.3-2.7,6.4-3.1,9.1-0.8c2.7,2.3,3.1,6.4,0.8,9.1c-3.4,4-11,14.4-8.7,24.4c1.8,7.4,11.1,14.4,27.7,20.9
			c41.3,16.1,81.9,10.7,97.4,7.7c31.5-6.2,60.9-19.8,87.4-40.3c2.8-2.2,6.9-1.7,9.1,1.1c2.2,2.8,1.7,6.9-1.1,9.1
			c-28,21.8-59.3,36.2-92.8,42.8C148.9,279.4,135.3,281.5,118.4,281.5z"/>
	</g>
	<g>
		<path class="st2" d="M127.4,258c-15.1,0-25.7-1.3-32.3-2.5h0c-23.1-4.1-58.1-10.4-66.9-35.1c-6.2-17.3,3.5-34.2,13.7-52
			c19.7-34.4,47-53,56-59.1c16.4-11.2,50.6-34.5,98.6-35.7c13.9-0.3,84.7,0.5,114.9,48.7l0.1,0.2c5.3,8.4,21.4,34.1,11.7,59.2
			c-3.9,10.2-10.5,16.8-15.2,20.9c-39.4,34.6-103.8,47.2-122.6,50.2C161.5,256.7,142.3,258,127.4,258z M199.9,86.5
			c-1.3,0-2.3,0-3.1,0c-44.2,1.1-75,22.1-91.6,33.4c-14.5,9.9-35.7,26.4-52,54.9c-9.1,15.8-16.9,29.5-12.7,41.2
			c6.3,17.7,36.8,23.1,57,26.7l-1.1,6.4l1.1-6.4c12.3,2.2,39.7,4.8,85.9-2.7c12.8-2.1,78.4-14,116.1-47.1c3.9-3.4,8.8-8.4,11.6-15.8
			c7.3-19.1-6.2-40.6-10.6-47.7l-0.1-0.2C275.6,89.7,217.8,86.5,199.9,86.5z"/>
	</g>
	<g>
		<path class="st2" d="M240.4,234.1c-2.5,0-4.7-1.9-5-4.4c-0.3-2.7,1.6-5.2,4.4-5.6c7.1-0.8,14.2-2.2,21.1-4
			c9.5-2.5,18.9-5.9,27.8-10.2l0-0.1l4.3-10c1.1-2.5,4-3.7,6.6-2.6c2.5,1.1,3.7,4,2.6,6.6l-5,11.7c-0.5,1.1-1.3,2-2.4,2.5
			c-10,5-20.6,8.9-31.3,11.8c-7.3,1.9-14.9,3.4-22.4,4.2C240.8,234.1,240.6,234.1,240.4,234.1z"/>
	</g>
	<g>
		<path class="st2" d="M83,251.7c-0.6,0-1.3-0.1-1.9-0.4c-8.8-4.2-15.2-9.9-18.8-17c-16-31.5,25.3-82,55.2-106.5
			c16.8-13.8,36.1-24.5,57.4-31.8c2.3-0.8,4.9,0.4,5.7,2.8c0.8,2.4-0.4,4.9-2.8,5.7c-20.2,6.9-38.6,17.1-54.6,30.2
			c-16.4,13.4-32.3,31.3-42.6,47.9C72,196.5,63.2,216,70.3,230.1c2.7,5.3,7.6,9.7,14.6,13c2.2,1.1,3.2,3.7,2.1,6
			C86.3,250.7,84.7,251.7,83,251.7z"/>
	</g>
	<g>
		<path class="st2" d="M133.5,251.7c-1.8,0-3.6-1.1-4.2-3c-2.3-6.3-3.9-12.9-4.9-19.5c-4.3-29.5,5.9-53,15.8-75.8
			c8.5-19.6,19.5-38.4,32.5-55.9c1.5-2,4.3-2.4,6.3-0.9c2,1.5,2.4,4.3,0.9,6.3c-12.6,16.9-23.2,35.1-31.5,54.1
			c-9.4,21.6-19.1,43.9-15.2,70.9c0.9,6,2.4,12,4.4,17.8c0.8,2.3-0.4,4.9-2.7,5.8C134.5,251.6,134,251.7,133.5,251.7z"/>
	</g>
	<g>
		<path class="st2" d="M237.6,237.7c-0.5,0-1-0.1-1.5-0.3c-2.3-0.8-3.6-3.4-2.7-5.8c3.2-8.9,4.5-17.9,3.9-26.9
			c-0.8-12.3-4.9-21.8-10.9-32.4c-15.5-27.5-37.5-52.8-53.3-69.1c-1.7-1.8-1.7-4.6,0.1-6.4c1.8-1.7,4.6-1.7,6.4,0.1
			c16.1,16.7,38.7,42.6,54.7,70.9c5.7,10.1,11,21.5,12,36.2c0.7,10.2-0.8,20.5-4.4,30.5C241.2,236.5,239.4,237.7,237.6,237.7z"/>
	</g>
	<g>
		<path class="st2" d="M297.6,206.3c-1,0-2-0.3-2.8-1c-1.9-1.6-2.2-4.4-0.7-6.3c4-4.9,6.2-10,6.8-15.3c1.5-15.4-12.9-28.4-21.5-36.2
			c-29.7-26.9-72.7-38.1-103.7-42.9c-2.5-0.4-4.1-2.7-3.8-5.1s2.7-4.1,5.1-3.8c32.1,4.9,77,16.7,108.3,45.1
			c9.9,8.9,26.4,23.9,24.5,43.8c-0.7,7-3.6,13.8-8.7,20.1C300.2,205.8,298.9,206.3,297.6,206.3z"/>
	</g>
	<g>
		<path class="st2" d="M176.3,104.7c-1.5,0-3-0.8-3.8-2.2c-1.3-2.1-0.6-4.9,1.5-6.2c8.8-5.4,18.3-9.4,28.2-12
			c23.2-6.1,43.8-2.9,57,0.9c2.4,0.7,3.8,3.2,3.1,5.6c-0.7,2.4-3.2,3.8-5.6,3.1c-12.1-3.4-31-6.4-52.2-0.9c-9,2.4-17.7,6.1-25.8,11
			C177.9,104.5,177.1,104.7,176.3,104.7z"/>
	</g>
	<g>
		<path class="st2" d="M176.3,104.7c-0.5,0-1.1-0.1-1.6-0.3l-25.6-9.8c-2.3-0.9-3.5-3.5-2.6-5.8c0.9-2.3,3.5-3.5,5.8-2.6l25.6,9.8
			c2.3,0.9,3.5,3.5,2.6,5.8C179.9,103.6,178.1,104.7,176.3,104.7z"/>
	</g>
	<g>
		<path class="st2" d="M53.6,166.6c-1.1,0-2.1-0.4-3-1.1c-1.9-1.7-2-4.5-0.4-6.4c15.9-17.9,34.8-32.6,56-43.6
			c19.2-10,39.9-16.6,61.4-19.8c2.5-0.4,4.7,1.3,5.1,3.8c0.4,2.5-1.3,4.7-3.8,5.1c-20.5,3-40.2,9.4-58.6,18.9
			C90.1,134,72.2,148,57,165.1C56.1,166.1,54.8,166.6,53.6,166.6z"/>
	</g>
	<g>
		<path class="st2" d="M158.8,100.1c-1.5-4.5,7.6-15.6,19.3-14.5c9.4,0.8,17.1,9.3,15.7,13.6C191.5,106.6,161.2,107,158.8,100.1z"/>
	</g>
</g>
<g id="Слой_2">
</g>
</svg>
