<?xml version="1.0" encoding="utf-8"?>
<!-- Generator: Adobe Illustrator 21.1.0, SVG Export Plug-In . SVG Version: 6.00 Build 0)  -->
<svg version="1.1" xmlns="http://www.w3.org/2000/svg" xmlns:xlink="http://www.w3.org/1999/xlink" x="0px" y="0px"
	 viewBox="0 0 337.3 338" style="enable-background:new 0 0 337.3 338;" xml:space="preserve">
<style type="text/css">
	.st0{fill:none;stroke:#494949;stroke-width:13;stroke-linecap:round;stroke-linejoin:round;stroke-miterlimit:10;}
	.st1{fill:none;stroke:#494949;stroke-width:14.6363;stroke-linejoin:round;stroke-miterlimit:10;}
	.st2{fill:#494949;}
	.st3{fill:none;stroke:#494949;stroke-width:13;stroke-linejoin:round;stroke-miterlimit:10;}
	.st4{fill:none;stroke:#494949;stroke-width:13.34;stroke-linejoin:round;stroke-miterlimit:10;}
	.st5{fill:none;stroke:#000000;stroke-width:13;stroke-linejoin:round;stroke-miterlimit:10;}
	.st6{fill:none;stroke:#000000;stroke-width:14.6363;stroke-linejoin:round;stroke-miterlimit:10;}
	.st7{fill:none;stroke:#000000;stroke-width:13;stroke-linecap:round;stroke-linejoin:round;stroke-miterlimit:10;}
	.st8{fill:none;stroke:#000000;stroke-width:14.636;stroke-linecap:round;stroke-linejoin:round;stroke-miterlimit:10;}
	.st9{fill:none;stroke:#000000;stroke-width:12.4844;stroke-linejoin:round;stroke-miterlimit:10;}
	.st10{fill:none;stroke:#494949;stroke-width:12.1445;stroke-linejoin:round;stroke-miterlimit:10;}
	.st11{fill:none;stroke:#000000;stroke-width:12.1445;stroke-linejoin:round;stroke-miterlimit:10;}
	.st12{fill:none;stroke:#000000;stroke-width:11.2103;stroke-linejoin:round;stroke-miterlimit:10;}
	.st13{fill:none;stroke:#000000;stroke-width:12.3133;stroke-linecap:round;stroke-linejoin:round;stroke-miterlimit:10;}
	.st14{fill:none;stroke:#000000;stroke-width:10.2152;stroke-linejoin:round;stroke-miterlimit:10;}
	.st15{fill:none;stroke:#494949;stroke-width:14.636;stroke-linecap:round;stroke-linejoin:round;stroke-miterlimit:10;}
	.st16{fill:none;stroke:#000000;stroke-width:10;stroke-linecap:round;stroke-miterlimit:10;}
	.st17{filter:url(#Adobe_OpacityMaskFilter);}
	.st18{mask:url(#SVGID_1_);}
	.st19{filter:url(#Adobe_OpacityMaskFilter_1_);}
	.st20{mask:url(#SVGID_2_);}
	.st21{fill:none;stroke:#000000;stroke-width:13;stroke-linecap:round;stroke-miterlimit:10;}
	.st22{fill:none;stroke:#000000;stroke-width:11.0297;stroke-linecap:round;stroke-linejoin:round;stroke-miterlimit:10;}
	.st23{filter:url(#Adobe_OpacityMaskFilter_2_);}
	.st24{mask:url(#SVGID_3_);fill:none;stroke:#000000;stroke-width:11.0297;stroke-linecap:round;stroke-miterlimit:10;}
	.st25{fill:none;stroke:#000000;stroke-width:11.0297;stroke-linecap:round;stroke-miterlimit:10;}
	.st26{fill:none;stroke:#000000;stroke-width:11.9488;stroke-linecap:round;stroke-miterlimit:10;}
	.st27{filter:url(#Adobe_OpacityMaskFilter_3_);}
	.st28{fill:none;stroke:#FFFFFF;stroke-width:13;stroke-linejoin:round;stroke-miterlimit:10;}
	.st29{fill:none;stroke:#FFFFFF;stroke-width:10;stroke-linejoin:round;stroke-miterlimit:10;}
	.st30{mask:url(#SVGID_4_);fill:#020202;}
	.st31{fill:none;stroke:#000000;stroke-width:10;stroke-linecap:round;stroke-linejoin:round;stroke-miterlimit:10;}
	.st32{fill:none;stroke:#FFFFFF;stroke-width:10;stroke-linecap:round;stroke-linejoin:round;}
	.st33{fill:#FFFFFF;}
	.st34{fill:none;stroke:#000000;stroke-width:10;stroke-linecap:round;stroke-linejoin:round;}
	.st35{fill:none;stroke:#494949;stroke-width:10;stroke-linecap:round;stroke-miterlimit:10;}
	.st36{fill:none;stroke:#494949;stroke-width:12;stroke-linecap:round;stroke-miterlimit:10;}
	.st37{fill:none;stroke:#494949;stroke-width:12.9013;stroke-miterlimit:10;}
	.st38{fill:none;stroke:#494949;stroke-width:10;stroke-miterlimit:10;}
	.st39{fill:none;stroke:#00F9F2;stroke-width:5;stroke-miterlimit:10;}
	.st40{fill:#00F9F2;}
	.st41{fill:none;stroke:#494949;stroke-width:11;stroke-miterlimit:10;}
	.st42{fill:none;stroke:#494949;stroke-width:10;stroke-linejoin:round;stroke-miterlimit:10;}
	.st43{fill:none;stroke:#494949;stroke-width:12.8445;stroke-linecap:round;stroke-linejoin:round;stroke-miterlimit:10;}
	.st44{fill:none;stroke:#000000;stroke-width:9.9006;stroke-linecap:round;stroke-linejoin:round;}
	
		.st45{fill:none;stroke:#000000;stroke-width:9.9006;stroke-linecap:round;stroke-linejoin:round;stroke-dasharray:25.9068,25.9068;}
	
		.st46{fill:none;stroke:#000000;stroke-width:9.9006;stroke-linecap:round;stroke-linejoin:round;stroke-dasharray:39.7013,39.7013;}
	
		.st47{fill:none;stroke:#000000;stroke-width:9.9006;stroke-linecap:round;stroke-linejoin:round;stroke-dasharray:39.6982,39.6982;}
	.st48{fill:none;}
	.st49{fill:none;stroke:#494949;stroke-width:10;stroke-linecap:round;stroke-linejoin:round;}
	.st50{fill:none;stroke:#494949;stroke-width:10;stroke-linecap:round;stroke-linejoin:round;stroke-dasharray:29.277,27.7361;}
	.st51{fill:none;stroke:#494949;stroke-width:10;stroke-linecap:round;stroke-linejoin:round;stroke-dasharray:20.9682,19.8646;}
	.st52{fill:none;stroke:#494949;stroke-width:10;stroke-linecap:round;stroke-linejoin:round;stroke-dasharray:18.011,17.0631;}
	.st53{fill:none;stroke:#494949;stroke-width:13;stroke-linecap:round;stroke-miterlimit:10;}
	.st54{fill:none;stroke:#494949;stroke-width:10;stroke-linecap:round;stroke-linejoin:round;stroke-miterlimit:10;}
	.st55{fill:none;stroke:#494949;stroke-width:11.2762;stroke-linecap:round;stroke-linejoin:round;stroke-miterlimit:10;}
	.st56{fill:none;stroke:#494949;stroke-width:12.901;stroke-linecap:round;stroke-miterlimit:10;}
	.st57{fill:none;stroke:#494949;stroke-width:11.2103;stroke-linejoin:round;stroke-miterlimit:10;}
	.st58{fill:none;stroke:#494949;stroke-width:13;stroke-linecap:round;stroke-linejoin:round;}
	.st59{fill:none;stroke:#494949;stroke-width:9;stroke-linecap:round;stroke-miterlimit:10;}
	.st60{fill:none;stroke:#494949;stroke-width:12.5238;stroke-linecap:round;stroke-linejoin:round;stroke-miterlimit:10;}
	.st61{fill:none;stroke:#494949;stroke-width:13;stroke-linecap:round;stroke-linejoin:round;stroke-dasharray:0,24.2514,0,0,0,0;}
	.st62{fill:none;stroke:#494949;stroke-width:13;stroke-linecap:round;stroke-linejoin:round;stroke-dasharray:0,24.2003,0,0,0,0;}
	.st63{filter:url(#Adobe_OpacityMaskFilter_4_);}
	.st64{mask:url(#SVGID_5_);}
	.st65{filter:url(#Adobe_OpacityMaskFilter_5_);}
	.st66{mask:url(#SVGID_6_);}
	.st67{filter:url(#Adobe_OpacityMaskFilter_6_);}
	.st68{mask:url(#SVGID_7_);}
	.st69{filter:url(#Adobe_OpacityMaskFilter_7_);}
	.st70{fill:none;stroke:#494949;stroke-width:13.7883;stroke-linecap:round;stroke-linejoin:round;stroke-miterlimit:10;}
	.st71{fill:#494949;stroke:#494949;stroke-width:5;stroke-linecap:round;stroke-linejoin:round;stroke-miterlimit:10;}
	.st72{fill:#494949;stroke:#494949;stroke-width:10;stroke-linecap:round;stroke-linejoin:round;stroke-miterlimit:10;}
	.st73{fill:none;stroke:#494949;stroke-width:13.4738;stroke-linecap:round;stroke-linejoin:round;stroke-miterlimit:10;}
	.st74{fill:none;stroke:#494949;stroke-width:13.3712;stroke-linecap:round;stroke-miterlimit:10;}
	.st75{filter:url(#Adobe_OpacityMaskFilter_8_);}
	.st76{fill:none;stroke:#000000;stroke-width:11.6846;stroke-linecap:round;stroke-miterlimit:10;}
	.st77{fill:none;stroke:#000000;stroke-width:11.6846;stroke-linejoin:round;stroke-miterlimit:10;}
	.st78{mask:url(#SVGID_8_);fill:#494949;stroke:#494949;stroke-width:13;stroke-linejoin:round;stroke-miterlimit:10;}
	.st79{filter:url(#Adobe_OpacityMaskFilter_9_);}
	.st80{mask:url(#SVGID_9_);fill:#494949;stroke:#494949;stroke-width:13;stroke-linejoin:round;stroke-miterlimit:10;}
	.st81{fill:none;stroke:#494949;stroke-width:12.2229;stroke-linecap:round;stroke-linejoin:round;stroke-miterlimit:10;}
	.st82{filter:url(#Adobe_OpacityMaskFilter_10_);}
	.st83{mask:url(#SVGID_10_);}
	.st84{filter:url(#Adobe_OpacityMaskFilter_11_);}
	.st85{filter:url(#Adobe_OpacityMaskFilter_12_);}
	.st86{mask:url(#SVGID_11_);}
	.st87{filter:url(#Adobe_OpacityMaskFilter_13_);}
	.st88{mask:url(#SVGID_12_);}
	.st89{filter:url(#Adobe_OpacityMaskFilter_14_);}
	
		.st90{mask:url(#SVGID_13_);fill:none;stroke:#494949;stroke-width:13;stroke-linecap:round;stroke-linejoin:round;stroke-miterlimit:10;}
	.st91{filter:url(#Adobe_OpacityMaskFilter_15_);}
	
		.st92{mask:url(#SVGID_14_);fill:none;stroke:#494949;stroke-width:13;stroke-linecap:round;stroke-linejoin:round;stroke-miterlimit:10;}
	.st93{fill:none;stroke:#494949;stroke-width:13.54;stroke-linecap:round;stroke-linejoin:round;stroke-miterlimit:10;}
	.st94{fill:none;stroke:#494949;stroke-width:11.8606;stroke-linecap:round;stroke-linejoin:round;stroke-miterlimit:10;}
	.st95{fill:none;stroke:#494949;stroke-width:9.856;stroke-linecap:round;stroke-miterlimit:10;}
	.st96{fill:none;stroke:#494949;stroke-width:9.9275;stroke-linecap:round;stroke-miterlimit:10;}
	.st97{fill:none;stroke:#494949;stroke-width:10.0726;stroke-linecap:round;stroke-miterlimit:10;}
	.st98{fill:none;stroke:#494949;stroke-width:14.2824;stroke-linecap:round;stroke-linejoin:round;stroke-miterlimit:10;}
	.st99{fill:none;stroke:#494949;stroke-width:14.3433;stroke-linecap:round;stroke-linejoin:round;stroke-miterlimit:10;}
	.st100{fill:none;stroke:#494949;stroke-width:13;stroke-miterlimit:10;}
	.st101{filter:url(#Adobe_OpacityMaskFilter_16_);}
	
		.st102{mask:url(#SVGID_15_);fill:none;stroke:#494949;stroke-width:13;stroke-linecap:round;stroke-linejoin:round;stroke-miterlimit:10;}
	.st103{filter:url(#Adobe_OpacityMaskFilter_17_);}
	.st104{mask:url(#SVGID_16_);}
	.st105{fill:none;stroke:#494949;stroke-width:8;stroke-linecap:round;stroke-linejoin:round;stroke-miterlimit:10;}
	.st106{fill:none;stroke:#FFCB00;stroke-width:10;stroke-linecap:round;stroke-miterlimit:10;}
	.st107{fill:none;stroke:#038057;stroke-width:10;stroke-linecap:round;stroke-linejoin:round;stroke-miterlimit:10;}
	.st108{fill:none;stroke:#038057;stroke-width:9;stroke-linecap:round;stroke-linejoin:round;stroke-miterlimit:10;}
	.st109{fill:none;stroke:#FFCB00;stroke-width:10;stroke-linecap:round;stroke-linejoin:round;stroke-miterlimit:10;}
	.st110{filter:url(#Adobe_OpacityMaskFilter_18_);}
	
		.st111{mask:url(#SVGID_17_);fill:none;stroke:#038057;stroke-width:9;stroke-linecap:round;stroke-linejoin:round;stroke-miterlimit:10;}
	.st112{filter:url(#Adobe_OpacityMaskFilter_19_);}
	
		.st113{mask:url(#SVGID_18_);fill:none;stroke:#038057;stroke-width:9;stroke-linecap:round;stroke-linejoin:round;stroke-miterlimit:10;}
	.st114{fill:none;stroke:#FFCB00;stroke-width:9;stroke-linecap:round;stroke-linejoin:round;stroke-miterlimit:10;}
	.st115{filter:url(#Adobe_OpacityMaskFilter_20_);}
	.st116{mask:url(#SVGID_19_);}
	.st117{filter:url(#Adobe_OpacityMaskFilter_21_);}
	.st118{filter:url(#Adobe_OpacityMaskFilter_22_);}
	.st119{filter:url(#Adobe_OpacityMaskFilter_23_);}
	
		.st120{mask:url(#SVGID_20_);fill:none;stroke:#038057;stroke-width:9;stroke-linecap:round;stroke-linejoin:round;stroke-miterlimit:10;}
	.st121{fill:#FCFCFC;}
	.st122{fill:none;stroke:#FFCB00;stroke-width:8;stroke-linecap:round;stroke-linejoin:round;stroke-miterlimit:10;}
	.st123{fill:none;stroke:#FFCB00;stroke-width:7;stroke-linecap:round;stroke-linejoin:round;stroke-miterlimit:10;}
	.st124{fill:none;stroke:#FFCB00;stroke-width:5;stroke-linecap:round;stroke-miterlimit:10;}
	.st125{filter:url(#Adobe_OpacityMaskFilter_24_);}
	.st126{mask:url(#SVGID_21_);}
	.st127{filter:url(#Adobe_OpacityMaskFilter_25_);}
	.st128{filter:url(#Adobe_OpacityMaskFilter_26_);}
	.st129{fill:none;stroke:#038057;stroke-width:11;stroke-linecap:round;stroke-linejoin:round;stroke-miterlimit:10;}
	.st130{filter:url(#Adobe_OpacityMaskFilter_27_);}
	
		.st131{mask:url(#SVGID_22_);fill:none;stroke:#038057;stroke-width:11;stroke-linecap:round;stroke-linejoin:round;stroke-miterlimit:10;}
	.st132{fill:none;stroke:#FFCB00;stroke-width:11;stroke-linecap:round;stroke-linejoin:round;stroke-miterlimit:10;}
	.st133{fill:none;stroke:#038057;stroke-width:8;stroke-linecap:round;stroke-linejoin:round;stroke-miterlimit:10;}
	.st134{fill:#038057;}
	.st135{fill:#FFCB00;}
	.st136{fill:none;stroke:#494949;stroke-width:13;stroke-linecap:round;stroke-linejoin:round;stroke-dasharray:22.6216,22.6216;}
	.st137{fill:none;stroke:#494949;stroke-width:13;stroke-linecap:round;stroke-linejoin:round;stroke-dasharray:26.985,26.985;}
	.st138{fill:none;stroke:#494949;stroke-width:13;stroke-linecap:round;stroke-linejoin:round;stroke-dasharray:26.9622,26.9622;}
	.st139{fill:none;stroke:#494949;stroke-width:11.0534;stroke-linecap:round;stroke-linejoin:round;stroke-miterlimit:10;}
	.st140{fill:none;stroke:#494949;stroke-width:11.7237;stroke-linecap:round;stroke-linejoin:round;stroke-miterlimit:10;}
	.st141{fill:none;stroke:#494949;stroke-width:8.8696;stroke-linecap:round;stroke-linejoin:round;stroke-miterlimit:10;}
	.st142{filter:url(#Adobe_OpacityMaskFilter_28_);}
	.st143{mask:url(#SVGID_23_);fill:none;stroke:#494949;stroke-width:13;stroke-miterlimit:10;}
	.st144{filter:url(#Adobe_OpacityMaskFilter_29_);}
	.st145{mask:url(#SVGID_24_);}
	.st146{filter:url(#Adobe_OpacityMaskFilter_30_);}
	.st147{mask:url(#SVGID_25_);}
	.st148{filter:url(#Adobe_OpacityMaskFilter_31_);}
	.st149{fill:#494949;stroke:#494949;stroke-width:13;stroke-linejoin:round;stroke-miterlimit:10;}
	.st150{filter:url(#Adobe_OpacityMaskFilter_32_);}
	.st151{mask:url(#SVGID_26_);fill:#494949;stroke:#494949;stroke-width:13;stroke-linejoin:round;stroke-miterlimit:10;}
	.st152{fill:none;stroke:#FFFFFF;stroke-width:11.6846;stroke-linecap:round;stroke-miterlimit:10;}
	.st153{filter:url(#Adobe_OpacityMaskFilter_33_);}
	.st154{mask:url(#SVGID_27_);}
	.st155{fill:none;stroke:#494949;stroke-width:11.6846;stroke-linecap:round;stroke-miterlimit:10;}
</style>
<g id="Слой_1">
	<path class="st2" d="M100.6,287.6c-9.6-0.8-19.3-2.2-28.8-4.4c-1.2-0.3-2.4-0.5-3.6-0.8l-3.5-1c-2.4-0.6-4.7-1.4-7-2.2
		c-1.2-0.4-2.3-0.8-3.5-1.3c-1.2-0.4-2.3-0.9-3.5-1.3c-2.3-1-4.6-1.9-6.8-3.1c-4.5-2.3-8.8-4.8-12.8-8.1l-1.5-1.3
		c-0.5-0.4-1-0.9-1.5-1.4l-0.7-0.7l-0.7-0.8c-0.5-0.5-0.9-1.1-1.4-1.8l-0.7-1l-0.5-0.9c-0.3-0.6-0.6-1.2-0.9-1.8
		c-0.6-1.2-1.1-2.4-1.6-3.6c-0.5-1.2-0.9-2.4-1.3-3.7l-0.3-1l-0.1-0.3l0-0.1l-0.1-0.3l-0.1-0.5c-0.1-0.7-0.3-1.4-0.4-2
		c-0.4-2.6-0.6-5.3-0.7-7.9c0-5.3,0.7-10.5,1.9-15.5c0.1-0.2,0.1-0.4,0.2-0.7l0.1-0.3c8.3-18.4,18.9-35.9,31.9-51.5
		c6.5-7.8,13.4-15.1,20.8-22.1c7.4-6.9,15.1-13.4,23.3-19.5c8.1-6.1,16.6-11.6,25.4-16.7c8.8-5,18-9.5,27.4-13.3
		c18.9-7.5,39.1-12.1,59.5-13.3c9.9-0.6,20.1-1,30.3-0.3c10.2,0.7,20.6,2.4,30.6,5.8c10,3.5,19.6,8.9,27.4,16.6
		c3.9,3.8,7.3,8.1,10.1,12.7c2.8,4.6,5.2,9.4,7,14.3c3.7,9.9,5.7,20.5,5.4,31.3c-0.2,5.4-0.8,10.8-2.6,16.3
		c-0.9,2.7-2.1,5.3-3.2,7.6c-1.2,2.3-2.2,4.4-3.2,6.4c-1.8,4.1-3.2,8.3-4.2,12.9c-0.3,1.1-0.5,2.3-0.7,3.4c-0.2,1.1-0.5,2.3-0.7,3.5
		c-0.4,2.4-0.9,5-1.6,7.7c-0.7,2.7-1.6,5.5-3,8.2c-1.4,2.7-3.2,5.3-5.4,7.5c-2.2,2.2-4.8,4-7.6,5.4c-2.8,1.3-5.7,2.2-8.5,2.8
		l0.8-0.2c-2,0.7-4.2,1.3-6.4,1.6c-1.1,0.2-2.2,0.3-3.2,0.4c-1,0.1-1.8,0.2-2.7,0.3c-3.3,0.5-6.8,1.4-10.2,2.6
		c-3.4,1.2-6.7,2.6-9.9,4.2c-0.8,0.4-1.6,0.8-2.3,1.3c-0.8,0.5-1.5,1-2.3,1.4c-1.5,0.9-3.3,2.1-5.1,3.1c-7.1,4.1-14.6,7.1-22,9.7
		c-7.4,2.6-14.9,4.9-22.3,7.2c-7.3,2.3-15,4.5-22.7,6.2c-7.7,1.7-15.5,2.9-23.3,3.7C131.9,289,116.1,289.1,100.6,287.6z
		 M101.1,281.1c7.6,0.6,15.2,1,22.9,0.9c7.6-0.1,15.2-0.6,22.8-1.5c7.5-0.9,15-2.2,22.4-4.1c7.4-1.8,14.5-4.1,21.8-6.7
		c7.3-2.5,14.6-5,21.6-7.9c7-2.8,13.9-5.9,20-9.8c1.6-1,2.9-1.9,4.7-3.1c0.8-0.6,1.7-1.1,2.5-1.7c0.9-0.6,1.8-1.1,2.7-1.6
		c3.6-2.1,7.4-3.8,11.3-5.2c1.9-0.7,3.9-1.4,5.9-2c2-0.6,4.1-1.1,6.2-1.5c1.1-0.2,2.1-0.3,3.1-0.5c0.9-0.1,1.7-0.3,2.5-0.4
		c1.5-0.3,3.1-0.8,4.7-1.4c0.2-0.1,0.4-0.1,0.6-0.2l0.2,0c4-0.8,7.4-2.6,9.9-5.2c2.5-2.6,4-6.1,5.1-10.3c0.5-2.1,0.9-4.4,1.3-6.8
		c0.2-1.2,0.4-2.5,0.7-3.8c0.2-1.3,0.5-2.6,0.8-3.8c1.2-5.1,2.9-10.3,5.1-15.2c1.1-2.4,2.4-4.7,3.5-6.8c1.1-2.1,2-4,2.7-5.9
		c1.3-3.9,1.9-8.4,2.1-12.8c0.3-9-1.4-18.1-4.6-26.7c-3.3-8.5-8-16.5-14.3-22.6c-6.3-6.3-14.3-10.8-22.9-13.8
		c-8.7-3-18-4.5-27.4-5.1c-9.5-0.6-19-0.3-28.9,0.3c-19,1.2-37.8,5.4-55.6,12.6c-8.9,3.5-17.5,7.8-25.8,12.6
		c-8.3,4.8-16.3,10.2-23.9,16C97,143,89.7,149.3,82.8,156c-3.5,3.3-6.8,6.8-10.2,10.2c-3.3,3.5-6.5,7.1-9.7,10.7
		c-3.1,3.7-6.2,7.4-9.1,11.2c-2.9,3.8-5.7,7.7-8.3,11.7c-5.4,8-10.2,16.3-14.7,24.9l0.3-0.9c-1.3,4.2-2.1,8.5-2.3,12.8
		c-0.1,2.1,0,4.3,0.2,6.4c0,0.5,0.1,1,0.2,1.5l0,0.4c0,0.1,0-0.1,0-0.1l0,0.1l0,0.2l0.2,0.8c0.3,1,0.6,2.1,0.9,3.1
		c0.3,1,0.7,2,1.1,3c0.2,0.5,0.4,1,0.6,1.4l0.3,0.7l0.3,0.5c0.1,0.3,0.5,0.7,0.8,1.1l0.4,0.6l0.5,0.6c0.4,0.4,0.7,0.8,1.1,1.1
		l1.2,1.1c3.2,2.9,7,5.4,10.9,7.6c7.9,4.5,16.8,7.6,25.8,10C82.5,278.8,91.8,280.2,101.1,281.1z"/>
	<path class="st2" d="M280.6,204.1c-2.6,2.7-4.7,5.9-6,9.2c-0.7,1.7-1.2,3.5-1.5,5.2c-0.3,1.8-0.5,3.6-0.4,5.4
		c0,1.2-0.9,2.2-2.1,2.2l0,0h-0.2c-5.5,0-11,0.7-16.2,2.3c-5.2,1.7-10.2,4-14.9,6.8c-2.4,1.4-4.6,3-6.8,4.6
		c-1.1,0.8-2.2,1.7-3.3,2.6c-1.1,0.9-2.3,1.9-3.5,2.8c-4.8,3.7-10.2,6.7-15.5,9.1c-2.7,1.2-5.4,2.4-8,3.5l-4,1.6
		c-1.3,0.5-2.6,1.1-4.1,1.6c-5.5,2.2-11.2,3.8-17,5.2c-5.7,1.4-11.5,2.4-17.3,3.2c-5.8,0.8-11.6,1.3-17.5,1.6
		c-5.8,0.3-11.6,0.4-17.4,0.4l-8.7,0c-2.9,0-5.8-0.1-8.7-0.2c-11.6-0.5-23.3-1.6-34.8-4.3c-5.7-1.3-11.4-3-16.9-5
		c-5.5-2.1-10.9-4.3-16.1-7.6c-2.5-1.7-5-3.6-7.1-5.9c-2.1-2.3-3.8-5.1-4.9-8c-1.1-2.9-1.6-6.1-1.6-9.1c0-3.1,0.5-6.1,1.4-9
		c0.2-0.8,1.1-1.2,1.9-1c0.8,0.2,1.2,1,1,1.8c-1.2,5.4-1,11,1.2,15.8c1.1,2.4,2.6,4.5,4.4,6.4c1.9,1.8,4,3.4,6.4,4.8
		c4.7,2.7,10,4.6,15.4,6.4c5.3,1.8,10.8,3.1,16.3,4.2c11,2.1,22.3,3.1,33.7,3.2c2.8,0,5.7,0,8.5,0l8.6-0.1c5.7-0.1,11.4-0.3,17-0.6
		c11.3-0.8,22.5-2,33.4-4.7c5.4-1.3,10.8-2.9,16-4.9c1.3-0.5,2.6-1,4-1.5l4-1.6c2.6-1.1,5.3-2.1,7.8-3.3c5.1-2.3,9.9-4.8,14.4-7.9
		c1.1-0.8,2.2-1.6,3.3-2.5c1.2-0.9,2.4-1.8,3.6-2.7c2.4-1.7,5-3.3,7.7-4.7c5.3-2.8,10.8-5.2,16.7-6.6c5.9-1.4,12-1.8,17.9-1.3
		l-2.4,2.2c0.3-4.2,1.4-8.3,3.3-11.9c1-1.8,2.1-3.6,3.4-5.1c1.3-1.6,2.8-3,4.3-4.2c0.5-0.4,1.1-0.3,1.5,0.2
		C281,203.1,280.9,203.7,280.6,204.1L280.6,204.1z"/>
</g>
<g id="Слой_2">
</g>
</svg>
