<svg xmlns="http://www.w3.org/2000/svg" xmlns:xlink="http://www.w3.org/1999/xlink" viewBox="0 0 258.56 249.52"><defs><style>.cls-1{mask:url(#mask);}.cls-2{fill:#494949;}.cls-3{filter:url(#luminosity-noclip);}</style><filter id="luminosity-noclip" x="0" y="-9001.87" width="258.56" height="32766" filterUnits="userSpaceOnUse" color-interpolation-filters="sRGB"><feFlood flood-color="#fff" result="bg"/><feBlend in="SourceGraphic" in2="bg"/></filter><mask id="mask" x="0" y="-9001.87" width="258.56" height="32766" maskUnits="userSpaceOnUse"><g class="cls-3"/></mask></defs><title>глубокаяРесурс 13</title><g id="Слой_2" data-name="Слой 2"><g id="Слой_1-2" data-name="Слой 1"><g class="cls-1"><path class="cls-2" d="M229.76,249.52a21.13,21.13,0,0,1-10.22-2.75l-.37-.23c-5.74-3.86-11.67-7.66-17.61-11.28a444.82,444.82,0,0,0-61.5-31.45c-21.9-9-40.42-14.25-60.63-19.78-39-10.66-48.67-5.91-51-3.37-.63.69-2.31,2.52-2.29,4.54,0,2.29,2.3,4.69,4.25,6a6.53,6.53,0,0,1,1.14,1c1.37.87,2.7,1.62,3.93,2.26a6.5,6.5,0,1,1-6,11.55c-11.07-5.73-19.55-14-24.52-24-5.94-11.9-6.55-26-1.92-44.23C20.37,69.63,90.25,29.24,93.22,27.56c26-14.8,46.11-20.18,49.87-21.11C165,1.05,194.9-6.34,223.21,9.92l.49.28c19.15,10.93,30,23.89,32.37,38.54a38.6,38.6,0,0,1-.1,11.53,148.32,148.32,0,0,0-1,15,205.3,205.3,0,0,0,1,24.23c.1,1.23.21,2.48.31,3.77,1.08,13.31,1.41,30.33,2.08,64.23.54,27.32.28,35.72-2.7,47.1a118.38,118.38,0,0,1-10.91,27.22,6.47,6.47,0,0,1-.78,1.11,19.11,19.11,0,0,1-8.4,5.65A18.32,18.32,0,0,1,229.76,249.52Zm-3.54-13.91a7,7,0,0,0,5.25.64,6,6,0,0,0,2.27-1.4,105.27,105.27,0,0,0,9.33-23.53c2.45-9.38,2.82-16.3,2.28-43.55-.66-33.64-1-50.53-2-63.44-.1-1.27-.21-2.51-.31-3.73a218.92,218.92,0,0,1-1-25.61,161.9,161.9,0,0,1,1.11-16.17c.4-3.56.6-5.35.18-8-1.68-10.56-10.42-20.41-26-29.28l-.52-.3c-23.78-13.66-50.8-7-70.53-2.13-3.47.86-22,5.83-46.56,19.79-2.77,1.57-68,39.28-84,102.2-4.76,18.75-2.18,28.52.49,34.29a25.48,25.48,0,0,1,2.7-3.48c9.06-9.87,28.8-10,64-.37,20.63,5.64,39.55,11.05,62.13,20.28a458.21,458.21,0,0,1,63.34,32.38C214.36,227.83,220.38,231.68,226.22,235.61Z"/></g><path class="cls-2" d="M229.59,249.48c-7.71,0-15.58-.19-23.4-.57a486.77,486.77,0,0,1-147-30.41c-9.81-3.72-19.71-7.86-29.43-12.31a6.5,6.5,0,1,1,5.41-11.82c9.45,4.33,19.08,8.36,28.62,12a473.63,473.63,0,0,0,143,29.59c8,.39,16,.57,23.88.56h0a6.5,6.5,0,0,1,0,13Z"/><path class="cls-2" d="M250.95,212.1a6.47,6.47,0,0,1-3.78-1.22A602.8,602.8,0,0,0,183,170.67C133.8,144,87.32,118.86,36.82,129.2A122.28,122.28,0,0,0,14.67,136a6.5,6.5,0,0,1-5-12,135.28,135.28,0,0,1,24.52-7.51c55.13-11.29,103.64,15,155,42.78a615.77,615.77,0,0,1,65.53,41.08,6.5,6.5,0,0,1-3.79,11.78Z"/><path class="cls-2" d="M207.72,47.11A131.51,131.51,0,0,1,225.4,63a129.46,129.46,0,0,1,14.54,19c2.1,3.41,4.1,6.9,5.9,10.49s3.43,7.28,4.89,11a129.81,129.81,0,0,1,6.61,23.29v0a6.5,6.5,0,1,1-12.79,2.37c0-.14,0-.29-.06-.43a117.58,117.58,0,0,0-4.58-21.45q-1.65-5.25-3.79-10.35c-1.43-3.4-3-6.71-4.77-10a120.29,120.29,0,0,0-12.3-18.49,123.87,123.87,0,0,0-15.61-16h0a3.44,3.44,0,0,1,4.29-5.36Z"/></g></g></svg>