<?xml version="1.0" encoding="utf-8"?>
<!-- Generator: Adobe Illustrator 21.1.0, SVG Export Plug-In . SVG Version: 6.00 Build 0)  -->
<svg version="1.1" xmlns="http://www.w3.org/2000/svg" xmlns:xlink="http://www.w3.org/1999/xlink" x="0px" y="0px"
	 viewBox="0 0 337.3 338" style="enable-background:new 0 0 337.3 338;" xml:space="preserve">
<style type="text/css">
	.st0{fill:none;stroke:#494949;stroke-width:13;stroke-linecap:round;stroke-linejoin:round;stroke-miterlimit:10;}
	.st1{fill:none;stroke:#494949;stroke-width:14.6363;stroke-linejoin:round;stroke-miterlimit:10;}
	.st2{fill:#494949;}
	.st3{fill:none;stroke:#494949;stroke-width:13;stroke-linejoin:round;stroke-miterlimit:10;}
	.st4{fill:none;stroke:#494949;stroke-width:13.34;stroke-linejoin:round;stroke-miterlimit:10;}
	.st5{fill:none;stroke:#000000;stroke-width:13;stroke-linejoin:round;stroke-miterlimit:10;}
	.st6{fill:none;stroke:#000000;stroke-width:14.6363;stroke-linejoin:round;stroke-miterlimit:10;}
	.st7{fill:none;stroke:#000000;stroke-width:13;stroke-linecap:round;stroke-linejoin:round;stroke-miterlimit:10;}
	.st8{fill:none;stroke:#000000;stroke-width:14.636;stroke-linecap:round;stroke-linejoin:round;stroke-miterlimit:10;}
	.st9{fill:none;stroke:#000000;stroke-width:12.4844;stroke-linejoin:round;stroke-miterlimit:10;}
	.st10{fill:none;stroke:#494949;stroke-width:12.1445;stroke-linejoin:round;stroke-miterlimit:10;}
	.st11{fill:none;stroke:#000000;stroke-width:12.1445;stroke-linejoin:round;stroke-miterlimit:10;}
	.st12{fill:none;stroke:#000000;stroke-width:11.2103;stroke-linejoin:round;stroke-miterlimit:10;}
	.st13{fill:none;stroke:#000000;stroke-width:12.3133;stroke-linecap:round;stroke-linejoin:round;stroke-miterlimit:10;}
	.st14{fill:none;stroke:#000000;stroke-width:10.2152;stroke-linejoin:round;stroke-miterlimit:10;}
	.st15{fill:none;stroke:#494949;stroke-width:14.636;stroke-linecap:round;stroke-linejoin:round;stroke-miterlimit:10;}
	.st16{fill:none;stroke:#000000;stroke-width:10;stroke-linecap:round;stroke-miterlimit:10;}
	.st17{filter:url(#Adobe_OpacityMaskFilter);}
	.st18{mask:url(#SVGID_1_);}
	.st19{filter:url(#Adobe_OpacityMaskFilter_1_);}
	.st20{mask:url(#SVGID_2_);}
	.st21{fill:none;stroke:#000000;stroke-width:13;stroke-linecap:round;stroke-miterlimit:10;}
	.st22{fill:none;stroke:#000000;stroke-width:11.0297;stroke-linecap:round;stroke-linejoin:round;stroke-miterlimit:10;}
	.st23{filter:url(#Adobe_OpacityMaskFilter_2_);}
	.st24{mask:url(#SVGID_3_);fill:none;stroke:#000000;stroke-width:11.0297;stroke-linecap:round;stroke-miterlimit:10;}
	.st25{fill:none;stroke:#000000;stroke-width:11.0297;stroke-linecap:round;stroke-miterlimit:10;}
	.st26{fill:none;stroke:#000000;stroke-width:11.9488;stroke-linecap:round;stroke-miterlimit:10;}
	.st27{filter:url(#Adobe_OpacityMaskFilter_3_);}
	.st28{fill:none;stroke:#FFFFFF;stroke-width:13;stroke-linejoin:round;stroke-miterlimit:10;}
	.st29{fill:none;stroke:#FFFFFF;stroke-width:10;stroke-linejoin:round;stroke-miterlimit:10;}
	.st30{mask:url(#SVGID_4_);fill:#020202;}
	.st31{fill:none;stroke:#000000;stroke-width:10;stroke-linecap:round;stroke-linejoin:round;stroke-miterlimit:10;}
	.st32{fill:none;stroke:#FFFFFF;stroke-width:10;stroke-linecap:round;stroke-linejoin:round;}
	.st33{fill:#FFFFFF;}
	.st34{fill:none;stroke:#000000;stroke-width:10;stroke-linecap:round;stroke-linejoin:round;}
	.st35{fill:none;stroke:#494949;stroke-width:10;stroke-linecap:round;stroke-miterlimit:10;}
	.st36{fill:none;stroke:#494949;stroke-width:12;stroke-linecap:round;stroke-miterlimit:10;}
	.st37{fill:none;stroke:#494949;stroke-width:12.9013;stroke-miterlimit:10;}
	.st38{fill:none;stroke:#494949;stroke-width:10;stroke-miterlimit:10;}
	.st39{fill:none;stroke:#00F9F2;stroke-width:5;stroke-miterlimit:10;}
	.st40{fill:#00F9F2;}
	.st41{fill:none;stroke:#494949;stroke-width:11;stroke-miterlimit:10;}
	.st42{fill:none;stroke:#494949;stroke-width:10;stroke-linejoin:round;stroke-miterlimit:10;}
	.st43{fill:none;stroke:#494949;stroke-width:12.8445;stroke-linecap:round;stroke-linejoin:round;stroke-miterlimit:10;}
	.st44{fill:none;stroke:#000000;stroke-width:9.9006;stroke-linecap:round;stroke-linejoin:round;}
	
		.st45{fill:none;stroke:#000000;stroke-width:9.9006;stroke-linecap:round;stroke-linejoin:round;stroke-dasharray:25.9068,25.9068;}
	
		.st46{fill:none;stroke:#000000;stroke-width:9.9006;stroke-linecap:round;stroke-linejoin:round;stroke-dasharray:39.7013,39.7013;}
	
		.st47{fill:none;stroke:#000000;stroke-width:9.9006;stroke-linecap:round;stroke-linejoin:round;stroke-dasharray:39.6982,39.6982;}
	.st48{fill:none;}
	.st49{fill:none;stroke:#494949;stroke-width:10;stroke-linecap:round;stroke-linejoin:round;}
	.st50{fill:none;stroke:#494949;stroke-width:10;stroke-linecap:round;stroke-linejoin:round;stroke-dasharray:29.277,27.7361;}
	.st51{fill:none;stroke:#494949;stroke-width:10;stroke-linecap:round;stroke-linejoin:round;stroke-dasharray:20.9682,19.8646;}
	.st52{fill:none;stroke:#494949;stroke-width:10;stroke-linecap:round;stroke-linejoin:round;stroke-dasharray:18.011,17.0631;}
	.st53{fill:none;stroke:#494949;stroke-width:13;stroke-linecap:round;stroke-miterlimit:10;}
	.st54{fill:none;stroke:#494949;stroke-width:10;stroke-linecap:round;stroke-linejoin:round;stroke-miterlimit:10;}
	.st55{fill:none;stroke:#494949;stroke-width:11.2762;stroke-linecap:round;stroke-linejoin:round;stroke-miterlimit:10;}
	.st56{fill:none;stroke:#494949;stroke-width:12.901;stroke-linecap:round;stroke-miterlimit:10;}
	.st57{fill:none;stroke:#494949;stroke-width:11.2103;stroke-linejoin:round;stroke-miterlimit:10;}
	.st58{fill:none;stroke:#494949;stroke-width:13;stroke-linecap:round;stroke-linejoin:round;}
	.st59{fill:none;stroke:#494949;stroke-width:9;stroke-linecap:round;stroke-miterlimit:10;}
	.st60{fill:none;stroke:#494949;stroke-width:12.5238;stroke-linecap:round;stroke-linejoin:round;stroke-miterlimit:10;}
	.st61{fill:none;stroke:#494949;stroke-width:13;stroke-linecap:round;stroke-linejoin:round;stroke-dasharray:0,24.2514,0,0,0,0;}
	.st62{fill:none;stroke:#494949;stroke-width:13;stroke-linecap:round;stroke-linejoin:round;stroke-dasharray:0,24.2003,0,0,0,0;}
	.st63{filter:url(#Adobe_OpacityMaskFilter_4_);}
	.st64{mask:url(#SVGID_5_);}
	.st65{filter:url(#Adobe_OpacityMaskFilter_5_);}
	.st66{mask:url(#SVGID_6_);}
	.st67{filter:url(#Adobe_OpacityMaskFilter_6_);}
	.st68{mask:url(#SVGID_7_);}
	.st69{filter:url(#Adobe_OpacityMaskFilter_7_);}
	.st70{fill:none;stroke:#494949;stroke-width:13.7883;stroke-linecap:round;stroke-linejoin:round;stroke-miterlimit:10;}
	.st71{fill:#494949;stroke:#494949;stroke-width:5;stroke-linecap:round;stroke-linejoin:round;stroke-miterlimit:10;}
	.st72{fill:#494949;stroke:#494949;stroke-width:10;stroke-linecap:round;stroke-linejoin:round;stroke-miterlimit:10;}
	.st73{fill:none;stroke:#494949;stroke-width:13.4738;stroke-linecap:round;stroke-linejoin:round;stroke-miterlimit:10;}
	.st74{fill:none;stroke:#494949;stroke-width:13.3712;stroke-linecap:round;stroke-miterlimit:10;}
	.st75{filter:url(#Adobe_OpacityMaskFilter_8_);}
	.st76{fill:none;stroke:#000000;stroke-width:11.6846;stroke-linecap:round;stroke-miterlimit:10;}
	.st77{fill:none;stroke:#000000;stroke-width:11.6846;stroke-linejoin:round;stroke-miterlimit:10;}
	.st78{mask:url(#SVGID_8_);fill:#494949;stroke:#494949;stroke-width:13;stroke-linejoin:round;stroke-miterlimit:10;}
	.st79{filter:url(#Adobe_OpacityMaskFilter_9_);}
	.st80{mask:url(#SVGID_9_);fill:#494949;stroke:#494949;stroke-width:13;stroke-linejoin:round;stroke-miterlimit:10;}
	.st81{fill:none;stroke:#494949;stroke-width:12.2229;stroke-linecap:round;stroke-linejoin:round;stroke-miterlimit:10;}
	.st82{filter:url(#Adobe_OpacityMaskFilter_10_);}
	.st83{mask:url(#SVGID_10_);}
	.st84{filter:url(#Adobe_OpacityMaskFilter_11_);}
	.st85{filter:url(#Adobe_OpacityMaskFilter_12_);}
	.st86{mask:url(#SVGID_11_);}
	.st87{filter:url(#Adobe_OpacityMaskFilter_13_);}
	.st88{mask:url(#SVGID_12_);}
	.st89{filter:url(#Adobe_OpacityMaskFilter_14_);}
	
		.st90{mask:url(#SVGID_13_);fill:none;stroke:#494949;stroke-width:13;stroke-linecap:round;stroke-linejoin:round;stroke-miterlimit:10;}
	.st91{filter:url(#Adobe_OpacityMaskFilter_15_);}
	
		.st92{mask:url(#SVGID_14_);fill:none;stroke:#494949;stroke-width:13;stroke-linecap:round;stroke-linejoin:round;stroke-miterlimit:10;}
	.st93{fill:none;stroke:#494949;stroke-width:13.54;stroke-linecap:round;stroke-linejoin:round;stroke-miterlimit:10;}
	.st94{fill:none;stroke:#494949;stroke-width:11.8606;stroke-linecap:round;stroke-linejoin:round;stroke-miterlimit:10;}
	.st95{fill:none;stroke:#494949;stroke-width:9.856;stroke-linecap:round;stroke-miterlimit:10;}
	.st96{fill:none;stroke:#494949;stroke-width:9.9275;stroke-linecap:round;stroke-miterlimit:10;}
	.st97{fill:none;stroke:#494949;stroke-width:10.0726;stroke-linecap:round;stroke-miterlimit:10;}
	.st98{fill:none;stroke:#494949;stroke-width:14.2824;stroke-linecap:round;stroke-linejoin:round;stroke-miterlimit:10;}
	.st99{fill:none;stroke:#494949;stroke-width:14.3433;stroke-linecap:round;stroke-linejoin:round;stroke-miterlimit:10;}
	.st100{fill:none;stroke:#494949;stroke-width:13;stroke-miterlimit:10;}
	.st101{filter:url(#Adobe_OpacityMaskFilter_16_);}
	
		.st102{mask:url(#SVGID_15_);fill:none;stroke:#494949;stroke-width:13;stroke-linecap:round;stroke-linejoin:round;stroke-miterlimit:10;}
	.st103{filter:url(#Adobe_OpacityMaskFilter_17_);}
	.st104{mask:url(#SVGID_16_);}
	.st105{fill:none;stroke:#494949;stroke-width:8;stroke-linecap:round;stroke-linejoin:round;stroke-miterlimit:10;}
	.st106{fill:none;stroke:#FFCB00;stroke-width:10;stroke-linecap:round;stroke-miterlimit:10;}
	.st107{fill:none;stroke:#038057;stroke-width:10;stroke-linecap:round;stroke-linejoin:round;stroke-miterlimit:10;}
	.st108{fill:none;stroke:#038057;stroke-width:9;stroke-linecap:round;stroke-linejoin:round;stroke-miterlimit:10;}
	.st109{fill:none;stroke:#FFCB00;stroke-width:10;stroke-linecap:round;stroke-linejoin:round;stroke-miterlimit:10;}
	.st110{filter:url(#Adobe_OpacityMaskFilter_18_);}
	
		.st111{mask:url(#SVGID_17_);fill:none;stroke:#038057;stroke-width:9;stroke-linecap:round;stroke-linejoin:round;stroke-miterlimit:10;}
	.st112{filter:url(#Adobe_OpacityMaskFilter_19_);}
	
		.st113{mask:url(#SVGID_18_);fill:none;stroke:#038057;stroke-width:9;stroke-linecap:round;stroke-linejoin:round;stroke-miterlimit:10;}
	.st114{fill:none;stroke:#FFCB00;stroke-width:9;stroke-linecap:round;stroke-linejoin:round;stroke-miterlimit:10;}
	.st115{filter:url(#Adobe_OpacityMaskFilter_20_);}
	.st116{mask:url(#SVGID_19_);}
	.st117{filter:url(#Adobe_OpacityMaskFilter_21_);}
	.st118{filter:url(#Adobe_OpacityMaskFilter_22_);}
	.st119{filter:url(#Adobe_OpacityMaskFilter_23_);}
	
		.st120{mask:url(#SVGID_20_);fill:none;stroke:#038057;stroke-width:9;stroke-linecap:round;stroke-linejoin:round;stroke-miterlimit:10;}
	.st121{fill:#FCFCFC;}
	.st122{fill:none;stroke:#FFCB00;stroke-width:8;stroke-linecap:round;stroke-linejoin:round;stroke-miterlimit:10;}
	.st123{fill:none;stroke:#FFCB00;stroke-width:7;stroke-linecap:round;stroke-linejoin:round;stroke-miterlimit:10;}
	.st124{fill:none;stroke:#FFCB00;stroke-width:5;stroke-linecap:round;stroke-miterlimit:10;}
	.st125{filter:url(#Adobe_OpacityMaskFilter_24_);}
	.st126{mask:url(#SVGID_21_);}
	.st127{filter:url(#Adobe_OpacityMaskFilter_25_);}
	.st128{filter:url(#Adobe_OpacityMaskFilter_26_);}
	.st129{fill:none;stroke:#038057;stroke-width:11;stroke-linecap:round;stroke-linejoin:round;stroke-miterlimit:10;}
	.st130{filter:url(#Adobe_OpacityMaskFilter_27_);}
	
		.st131{mask:url(#SVGID_22_);fill:none;stroke:#038057;stroke-width:11;stroke-linecap:round;stroke-linejoin:round;stroke-miterlimit:10;}
	.st132{fill:none;stroke:#FFCB00;stroke-width:11;stroke-linecap:round;stroke-linejoin:round;stroke-miterlimit:10;}
	.st133{fill:none;stroke:#038057;stroke-width:8;stroke-linecap:round;stroke-linejoin:round;stroke-miterlimit:10;}
	.st134{fill:#038057;}
	.st135{fill:#FFCB00;}
	.st136{fill:none;stroke:#494949;stroke-width:13;stroke-linecap:round;stroke-linejoin:round;stroke-dasharray:22.6216,22.6216;}
	.st137{fill:none;stroke:#494949;stroke-width:13;stroke-linecap:round;stroke-linejoin:round;stroke-dasharray:26.985,26.985;}
	.st138{fill:none;stroke:#494949;stroke-width:13;stroke-linecap:round;stroke-linejoin:round;stroke-dasharray:26.9622,26.9622;}
	.st139{fill:none;stroke:#494949;stroke-width:11.0534;stroke-linecap:round;stroke-linejoin:round;stroke-miterlimit:10;}
	.st140{fill:none;stroke:#494949;stroke-width:11.7237;stroke-linecap:round;stroke-linejoin:round;stroke-miterlimit:10;}
	.st141{fill:none;stroke:#494949;stroke-width:8.8696;stroke-linecap:round;stroke-linejoin:round;stroke-miterlimit:10;}
	.st142{filter:url(#Adobe_OpacityMaskFilter_28_);}
	.st143{mask:url(#SVGID_23_);fill:none;stroke:#494949;stroke-width:13;stroke-miterlimit:10;}
	.st144{filter:url(#Adobe_OpacityMaskFilter_29_);}
	.st145{mask:url(#SVGID_24_);}
	.st146{filter:url(#Adobe_OpacityMaskFilter_30_);}
	.st147{mask:url(#SVGID_25_);}
	.st148{filter:url(#Adobe_OpacityMaskFilter_31_);}
	.st149{fill:#494949;stroke:#494949;stroke-width:13;stroke-linejoin:round;stroke-miterlimit:10;}
	.st150{filter:url(#Adobe_OpacityMaskFilter_32_);}
	.st151{mask:url(#SVGID_26_);fill:#494949;stroke:#494949;stroke-width:13;stroke-linejoin:round;stroke-miterlimit:10;}
	.st152{fill:none;stroke:#FFFFFF;stroke-width:11.6846;stroke-linecap:round;stroke-miterlimit:10;}
	.st153{filter:url(#Adobe_OpacityMaskFilter_33_);}
	.st154{mask:url(#SVGID_27_);}
	.st155{fill:none;stroke:#494949;stroke-width:11.6846;stroke-linecap:round;stroke-miterlimit:10;}
</style>
<g id="Слой_1">
	<g>
		<path class="st2" d="M76.1,226.4c-2.4,0-4.7-1.4-5.8-3.6c-7.8-15.4-11-32.5-9.1-49.5c1.9-17,8.7-32.6,19.6-45.1
			c28.7-32.8,70.9-27.9,75.6-27.2c3.6,0.5,6,3.8,5.5,7.4c-0.5,3.6-3.8,6-7.4,5.5c-1.6-0.2-39.4-5.2-64,22.9
			C74.8,155,69.9,180.9,77,204.6c12.8-22.3,29-42.1,48.2-58.8c11.7-10.2,24.6-19.2,38.2-26.9c3.1-1.8,7.1-0.6,8.8,2.5
			s0.6,7.1-2.5,8.8c-12.9,7.2-25,15.7-36,25.3c-21.4,18.6-38.8,41.2-51.7,67.2C80.9,225,78.6,226.4,76.1,226.4
			C76.1,226.4,76.1,226.4,76.1,226.4z"/>
	</g>
	<g>
		<path class="st2" d="M277.5,226.5C277.5,226.5,277.4,226.5,277.5,226.5c-2.6,0-4.9-1.5-6-3.9c-9.6-21.9-22.8-41.7-39.3-58.7
			c-12.4-12.9-26.5-24.1-42-33.3c-3.1-1.8-4.1-5.8-2.3-8.9c1.8-3.1,5.8-4.1,8.9-2.3c16.4,9.8,31.5,21.7,44.7,35.4
			c13.9,14.4,25.6,30.6,34.9,48.3c6.4-25.5,0.3-52.1-17.1-69.7c-20.3-20.6-47.9-20.5-55.8-20c-3.6,0.2-6.7-2.5-6.9-6.1
			c-0.2-3.6,2.5-6.7,6.1-6.9c9.3-0.6,41.7-0.7,65.9,23.8c24.4,24.6,30.3,64.1,14.7,98.4C282.3,225,280,226.5,277.5,226.5z"/>
	</g>
	<g>
		<path class="st2" d="M319.2,135.2c-1,0-2-0.2-3-0.7c-21.3-11.1-44-18.1-67.6-20.9c-14.8-1.7-29.8-1.8-44.7-0.1
			c-3.6,0.4-6.8-2.2-7.2-5.7c-0.4-3.6,2.2-6.8,5.7-7.2c15.9-1.8,31.9-1.8,47.7,0.1c18.4,2.2,36.4,6.8,53.7,13.8
			c-14.3-20.2-35.9-33.1-58.8-34.2c-23.2-1.1-41,10-49.6,16.8c-2.8,2.2-6.9,1.7-9.1-1.1c-2.2-2.8-1.7-6.9,1.1-9.1
			c10-7.9,30.8-20.8,58.2-19.6c33.7,1.6,64.9,24.7,79.5,58.9c1.1,2.5,0.5,5.5-1.6,7.3C322.4,134.6,320.8,135.2,319.2,135.2z"/>
	</g>
	<g>
		<path class="st2" d="M35.6,128.1c-1.5,0-3-0.5-4.2-1.6c-2-1.7-2.8-4.5-1.9-7c11.2-33.9,41.1-57.8,74.4-59.4
			c35.9-1.7,60,23.2,64.5,28.2c2.4,2.7,2.2,6.8-0.5,9.2c-2.7,2.4-6.8,2.2-9.2-0.5c-3.8-4.2-24.2-25.3-54.2-23.9
			C81.6,74.2,60.6,88,48.5,108.7c18.6-7.3,38.1-11.5,58.1-12.4c16.9-0.8,33.9,0.9,50.5,4.9c3.5,0.8,5.6,4.4,4.8,7.8
			c-0.8,3.5-4.4,5.6-7.8,4.8c-15.4-3.7-31.2-5.3-46.9-4.6c-23.9,1.1-47,7.2-68.7,18.1C37.6,127.9,36.6,128.1,35.6,128.1z"/>
	</g>
	<g>
		<path class="st2" d="M173.9,291.5c-11.4,0-20.4-3.6-26.1-6.7c-2.7-1.5-4-4.6-3.1-7.6c7.1-23.5,12-47.8,14.6-72.2
			c2.9-26.5,3.1-53.3,0.7-79.8c-0.3-3.6,2.3-6.7,5.9-7.1c3.6-0.3,6.7,2.3,7.1,5.9c2.5,27.4,2.2,55.1-0.8,82.4
			c-2.5,23.3-7.1,46.5-13.5,69.1c4.6,1.8,10.5,3.2,17.5,2.8c7.6-0.4,13.7-2.8,18-5.2c1.9-9.9,3.4-19.9,4.4-29.9
			c3.7-38.6-0.1-77.8-11.2-116.5c-1-3.5,1-7.1,4.5-8c3.5-1,7.1,1,8,4.5c11.5,40.3,15.5,81.1,11.6,121.3c-1.1,11.4-2.8,22.8-5.1,34
			c-0.4,1.7-1.4,3.2-2.8,4.1c-5.6,3.6-14.7,8-26.7,8.6C175.9,291.4,174.9,291.5,173.9,291.5z"/>
	</g>
	<g>
		<path class="st2" d="M163.5,99.2c-3,0-5.7-2.1-6.4-5.2c-4.9-24.5,4.5-50,24.1-64.9c21.2-16.1,51-17.4,74-3.1
			c2.1,1.3,3.3,3.8,3,6.3c-0.3,2.5-2,4.6-4.3,5.4c-12.4,4.2-23.9,11.2-33.3,20.2c-13.1,12.6-19.8,26.5-23.1,36.1
			c-1.2,3.4-4.9,5.2-8.3,4c-3.4-1.2-5.2-4.9-4-8.3c5.4-15.6,14.5-29.9,26.4-41.2c7.1-6.8,15.3-12.6,24.1-17.2
			c-15.8-4.8-33.3-2-46.6,8.1c-15.6,11.9-23.2,32.3-19.3,52c0.7,3.5-1.6,6.9-5.1,7.7C164.3,99.1,163.9,99.2,163.5,99.2z"/>
	</g>
	<g>
		<path class="st2" d="M191.8,207.8c-2.5,0-4.9-0.4-7.3-1.1c-3.4-1.1-5.4-4.7-4.3-8.1c1.1-3.4,4.7-5.4,8.1-4.3
			c1.3,0.4,3.3,0.8,5.7,0.3c2.7-0.5,4.6-1.9,5.8-3c2.6-2.5,6.7-2.4,9.2,0.2c2.5,2.6,2.4,6.7-0.2,9.2c-2.4,2.2-6.4,5.2-12.2,6.3
			C195,207.6,193.4,207.8,191.8,207.8z"/>
	</g>
	<g>
		<path class="st2" d="M189.7,235.7c-2.6,0-5.1-0.3-7.6-0.8c-3.5-0.8-5.7-4.2-4.9-7.7c0.8-3.5,4.2-5.7,7.7-4.9
			c2.8,0.6,5.6,0.7,8.4,0.2c2.9-0.5,5.7-1.5,8.2-3.1c3.1-1.9,7.1-0.9,8.9,2.1c1.9,3.1,0.9,7.1-2.1,8.9c-4,2.5-8.4,4.1-13,4.8
			C193.4,235.6,191.6,235.7,189.7,235.7z"/>
	</g>
	<g>
		<path class="st2" d="M186.3,262.3c-2.6,0-5.2-0.2-7.7-0.6c-3.5-0.6-5.9-3.9-5.3-7.5c0.6-3.5,3.9-5.9,7.5-5.3
			c3.7,0.6,7.4,0.6,11.1,0c3.3-0.6,6.5-1.6,9.5-3.1c3.2-1.6,7.1-0.3,8.7,2.9c1.6,3.2,0.3,7.1-2.9,8.7c-4.2,2.1-8.6,3.5-13.2,4.3
			C191.4,262.1,188.9,262.3,186.3,262.3z"/>
	</g>
	<g>
		<path class="st2" d="M168.9,320.8c-42.9,0-86-4-128.4-12c-2.6-0.5-4.6-2.5-5.2-5.1s0.5-5.2,2.7-6.7c20.1-13.7,41.9-24.6,64.8-32.4
			c17.1-5.8,34.9-10,52.8-12.3c3.6-0.5,6.8,2,7.3,5.6s-2,6.8-5.6,7.3c-17.1,2.2-34,6.2-50.3,11.8c-16.6,5.7-32.6,13-47.7,22
			c45.4,7.4,91.4,10.2,136.9,8.3c21.2-0.9,42.6-2.8,63.8-5.6c-3.5-6.7-8.9-14.4-17.2-21c-14.3-11.5-29.9-13.9-37.9-14.4
			c-3.6-0.2-6.3-3.3-6.1-6.8c0.2-3.6,3.3-6.3,6.8-6.1c9.5,0.5,28.1,3.4,45.3,17.2c14,11.2,21.1,24.8,24.6,34.2
			c0.7,1.8,0.5,3.9-0.5,5.6c-1,1.7-2.7,2.8-4.6,3.1c-24.3,3.6-49.1,6-73.6,7C187.6,320.6,178.3,320.8,168.9,320.8z"/>
	</g>
</g>
<g id="Слой_2">
</g>
</svg>
