<svg xmlns="http://www.w3.org/2000/svg" viewBox="0 0 276.59 257.16"><defs><style>.cls-1{fill:none;stroke:#494949;stroke-linecap:round;stroke-linejoin:round;stroke-width:13px;}</style></defs><title>ушанкаРесурс 11</title><g id="Слой_2" data-name="Слой 2"><g id="Слой_1-2" data-name="Слой 1"><path class="cls-1" d="M45.78,64.55A101.35,101.35,0,0,1,62.65,39.7a102.41,102.41,0,0,1,38.66-26C114.92,8.5,125.56,7.88,139.89,7c13.19-.77,31.47-1.68,53.4,4.61,9.77,2.8,23.41,6.72,37,17C267.81,57.19,270,108.38,270.05,111c.51,18.59-4.62,16-7.81,56.5-1.25,15.91-1.77,25.79-5.56,41.53-4.42,18.35-8.34,33.74-20.3,39.3A27.78,27.78,0,0,1,211.66,247c-23.32-13.57-8.78-54.79-35.75-84.22a67.64,67.64,0,0,0-23.83-16.46"/><path class="cls-1" d="M18.57,139.55c20.82,13.18,30.37,27.15,35.25,37.38,10.12,21.24,9,41.43,26.09,55.68a26.26,26.26,0,0,0,12,5.88h0s7.1,2.13,16.79-3c7.19-3.79,17.05-41.62,22.28-94.64"/><path class="cls-1" d="M127.09,139.71c-1.43-.41-31.82-9.39-59.85-8-32.2,1.6-42.25,13.53-52,6C4.2,129.25,4,105.94,12.6,90.38,25.74,66.7,57.5,64.23,72.75,63c8.63-.67,65-4.07,84.66,30.92,11.31,20.12,7.42,47.42-1.32,51.08C151.9,146.8,143.56,144.4,127.09,139.71Z"/><path class="cls-1" d="M165.66,128.17A155.81,155.81,0,0,0,229.14,132a154.89,154.89,0,0,0,39-11.23"/></g></g></svg>