<?xml version="1.0" encoding="utf-8"?>
<!-- Generator: Adobe Illustrator 21.1.0, SVG Export Plug-In . SVG Version: 6.00 Build 0)  -->
<svg version="1.1" xmlns="http://www.w3.org/2000/svg" xmlns:xlink="http://www.w3.org/1999/xlink" x="0px" y="0px"
	 viewBox="0 0 337.3 338" style="enable-background:new 0 0 337.3 338;" xml:space="preserve">
<style type="text/css">
	.st0{fill:none;stroke:#494949;stroke-width:13;stroke-linecap:round;stroke-linejoin:round;stroke-miterlimit:10;}
	.st1{fill:none;stroke:#494949;stroke-width:14.6363;stroke-linejoin:round;stroke-miterlimit:10;}
	.st2{fill:#494949;}
	.st3{fill:none;stroke:#494949;stroke-width:13;stroke-linejoin:round;stroke-miterlimit:10;}
	.st4{fill:none;stroke:#494949;stroke-width:13.34;stroke-linejoin:round;stroke-miterlimit:10;}
	.st5{fill:none;stroke:#000000;stroke-width:13;stroke-linejoin:round;stroke-miterlimit:10;}
	.st6{fill:none;stroke:#000000;stroke-width:14.6363;stroke-linejoin:round;stroke-miterlimit:10;}
	.st7{fill:none;stroke:#000000;stroke-width:13;stroke-linecap:round;stroke-linejoin:round;stroke-miterlimit:10;}
	.st8{fill:none;stroke:#000000;stroke-width:14.636;stroke-linecap:round;stroke-linejoin:round;stroke-miterlimit:10;}
	.st9{fill:none;stroke:#000000;stroke-width:12.4844;stroke-linejoin:round;stroke-miterlimit:10;}
	.st10{fill:none;stroke:#494949;stroke-width:12.1445;stroke-linejoin:round;stroke-miterlimit:10;}
	.st11{fill:none;stroke:#000000;stroke-width:12.1445;stroke-linejoin:round;stroke-miterlimit:10;}
	.st12{fill:none;stroke:#000000;stroke-width:11.2103;stroke-linejoin:round;stroke-miterlimit:10;}
	.st13{fill:none;stroke:#000000;stroke-width:12.3133;stroke-linecap:round;stroke-linejoin:round;stroke-miterlimit:10;}
	.st14{fill:none;stroke:#000000;stroke-width:10.2152;stroke-linejoin:round;stroke-miterlimit:10;}
	.st15{fill:none;stroke:#494949;stroke-width:14.636;stroke-linecap:round;stroke-linejoin:round;stroke-miterlimit:10;}
	.st16{fill:none;stroke:#000000;stroke-width:10;stroke-linecap:round;stroke-miterlimit:10;}
	.st17{filter:url(#Adobe_OpacityMaskFilter);}
	.st18{mask:url(#SVGID_1_);}
	.st19{filter:url(#Adobe_OpacityMaskFilter_1_);}
	.st20{mask:url(#SVGID_2_);}
	.st21{fill:none;stroke:#000000;stroke-width:13;stroke-linecap:round;stroke-miterlimit:10;}
	.st22{fill:none;stroke:#000000;stroke-width:11.0297;stroke-linecap:round;stroke-linejoin:round;stroke-miterlimit:10;}
	.st23{filter:url(#Adobe_OpacityMaskFilter_2_);}
	.st24{mask:url(#SVGID_3_);fill:none;stroke:#000000;stroke-width:11.0297;stroke-linecap:round;stroke-miterlimit:10;}
	.st25{fill:none;stroke:#000000;stroke-width:11.0297;stroke-linecap:round;stroke-miterlimit:10;}
	.st26{fill:none;stroke:#000000;stroke-width:11.9488;stroke-linecap:round;stroke-miterlimit:10;}
	.st27{filter:url(#Adobe_OpacityMaskFilter_3_);}
	.st28{fill:none;stroke:#FFFFFF;stroke-width:13;stroke-linejoin:round;stroke-miterlimit:10;}
	.st29{fill:none;stroke:#FFFFFF;stroke-width:10;stroke-linejoin:round;stroke-miterlimit:10;}
	.st30{mask:url(#SVGID_4_);fill:#020202;}
	.st31{fill:none;stroke:#000000;stroke-width:10;stroke-linecap:round;stroke-linejoin:round;stroke-miterlimit:10;}
	.st32{fill:none;stroke:#FFFFFF;stroke-width:10;stroke-linecap:round;stroke-linejoin:round;}
	.st33{fill:#FFFFFF;}
	.st34{fill:none;stroke:#000000;stroke-width:10;stroke-linecap:round;stroke-linejoin:round;}
	.st35{fill:none;stroke:#494949;stroke-width:10;stroke-linecap:round;stroke-miterlimit:10;}
	.st36{fill:none;stroke:#494949;stroke-width:12;stroke-linecap:round;stroke-miterlimit:10;}
	.st37{fill:none;stroke:#494949;stroke-width:12.9013;stroke-miterlimit:10;}
	.st38{fill:none;stroke:#494949;stroke-width:10;stroke-miterlimit:10;}
	.st39{fill:none;stroke:#00F9F2;stroke-width:5;stroke-miterlimit:10;}
	.st40{fill:#00F9F2;}
	.st41{fill:none;stroke:#494949;stroke-width:11;stroke-miterlimit:10;}
	.st42{fill:none;stroke:#494949;stroke-width:10;stroke-linejoin:round;stroke-miterlimit:10;}
	.st43{fill:none;stroke:#494949;stroke-width:12.8445;stroke-linecap:round;stroke-linejoin:round;stroke-miterlimit:10;}
	.st44{fill:none;stroke:#000000;stroke-width:9.9006;stroke-linecap:round;stroke-linejoin:round;}
	
		.st45{fill:none;stroke:#000000;stroke-width:9.9006;stroke-linecap:round;stroke-linejoin:round;stroke-dasharray:25.9068,25.9068;}
	
		.st46{fill:none;stroke:#000000;stroke-width:9.9006;stroke-linecap:round;stroke-linejoin:round;stroke-dasharray:39.7013,39.7013;}
	
		.st47{fill:none;stroke:#000000;stroke-width:9.9006;stroke-linecap:round;stroke-linejoin:round;stroke-dasharray:39.6982,39.6982;}
	.st48{fill:none;}
	.st49{fill:none;stroke:#494949;stroke-width:10;stroke-linecap:round;stroke-linejoin:round;}
	.st50{fill:none;stroke:#494949;stroke-width:10;stroke-linecap:round;stroke-linejoin:round;stroke-dasharray:29.277,27.7361;}
	.st51{fill:none;stroke:#494949;stroke-width:10;stroke-linecap:round;stroke-linejoin:round;stroke-dasharray:20.9682,19.8646;}
	.st52{fill:none;stroke:#494949;stroke-width:10;stroke-linecap:round;stroke-linejoin:round;stroke-dasharray:18.011,17.0631;}
	.st53{fill:none;stroke:#494949;stroke-width:13;stroke-linecap:round;stroke-miterlimit:10;}
	.st54{fill:none;stroke:#494949;stroke-width:10;stroke-linecap:round;stroke-linejoin:round;stroke-miterlimit:10;}
	.st55{fill:none;stroke:#494949;stroke-width:11.2762;stroke-linecap:round;stroke-linejoin:round;stroke-miterlimit:10;}
	.st56{fill:none;stroke:#494949;stroke-width:12.901;stroke-linecap:round;stroke-miterlimit:10;}
	.st57{fill:none;stroke:#494949;stroke-width:11.2103;stroke-linejoin:round;stroke-miterlimit:10;}
	.st58{fill:none;stroke:#494949;stroke-width:13;stroke-linecap:round;stroke-linejoin:round;}
	.st59{fill:none;stroke:#494949;stroke-width:9;stroke-linecap:round;stroke-miterlimit:10;}
	.st60{fill:none;stroke:#494949;stroke-width:12.5238;stroke-linecap:round;stroke-linejoin:round;stroke-miterlimit:10;}
	.st61{fill:none;stroke:#494949;stroke-width:13;stroke-linecap:round;stroke-linejoin:round;stroke-dasharray:0,24.2514,0,0,0,0;}
	.st62{fill:none;stroke:#494949;stroke-width:13;stroke-linecap:round;stroke-linejoin:round;stroke-dasharray:0,24.2003,0,0,0,0;}
	.st63{filter:url(#Adobe_OpacityMaskFilter_4_);}
	.st64{mask:url(#SVGID_5_);}
	.st65{filter:url(#Adobe_OpacityMaskFilter_5_);}
	.st66{mask:url(#SVGID_6_);}
	.st67{filter:url(#Adobe_OpacityMaskFilter_6_);}
	.st68{mask:url(#SVGID_7_);}
	.st69{filter:url(#Adobe_OpacityMaskFilter_7_);}
	.st70{fill:none;stroke:#494949;stroke-width:13.7883;stroke-linecap:round;stroke-linejoin:round;stroke-miterlimit:10;}
	.st71{fill:#494949;stroke:#494949;stroke-width:5;stroke-linecap:round;stroke-linejoin:round;stroke-miterlimit:10;}
	.st72{fill:#494949;stroke:#494949;stroke-width:10;stroke-linecap:round;stroke-linejoin:round;stroke-miterlimit:10;}
	.st73{fill:none;stroke:#494949;stroke-width:13.4738;stroke-linecap:round;stroke-linejoin:round;stroke-miterlimit:10;}
	.st74{fill:none;stroke:#494949;stroke-width:13.3712;stroke-linecap:round;stroke-miterlimit:10;}
	.st75{filter:url(#Adobe_OpacityMaskFilter_8_);}
	.st76{fill:none;stroke:#000000;stroke-width:11.6846;stroke-linecap:round;stroke-miterlimit:10;}
	.st77{fill:none;stroke:#000000;stroke-width:11.6846;stroke-linejoin:round;stroke-miterlimit:10;}
	.st78{mask:url(#SVGID_8_);fill:#494949;stroke:#494949;stroke-width:13;stroke-linejoin:round;stroke-miterlimit:10;}
	.st79{filter:url(#Adobe_OpacityMaskFilter_9_);}
	.st80{mask:url(#SVGID_9_);fill:#494949;stroke:#494949;stroke-width:13;stroke-linejoin:round;stroke-miterlimit:10;}
	.st81{fill:none;stroke:#494949;stroke-width:12.2229;stroke-linecap:round;stroke-linejoin:round;stroke-miterlimit:10;}
	.st82{filter:url(#Adobe_OpacityMaskFilter_10_);}
	.st83{mask:url(#SVGID_10_);}
	.st84{filter:url(#Adobe_OpacityMaskFilter_11_);}
	.st85{filter:url(#Adobe_OpacityMaskFilter_12_);}
	.st86{mask:url(#SVGID_11_);}
	.st87{filter:url(#Adobe_OpacityMaskFilter_13_);}
	.st88{mask:url(#SVGID_12_);}
	.st89{filter:url(#Adobe_OpacityMaskFilter_14_);}
	
		.st90{mask:url(#SVGID_13_);fill:none;stroke:#494949;stroke-width:13;stroke-linecap:round;stroke-linejoin:round;stroke-miterlimit:10;}
	.st91{filter:url(#Adobe_OpacityMaskFilter_15_);}
	
		.st92{mask:url(#SVGID_14_);fill:none;stroke:#494949;stroke-width:13;stroke-linecap:round;stroke-linejoin:round;stroke-miterlimit:10;}
	.st93{fill:none;stroke:#494949;stroke-width:13.54;stroke-linecap:round;stroke-linejoin:round;stroke-miterlimit:10;}
	.st94{fill:none;stroke:#494949;stroke-width:11.8606;stroke-linecap:round;stroke-linejoin:round;stroke-miterlimit:10;}
	.st95{fill:none;stroke:#494949;stroke-width:9.856;stroke-linecap:round;stroke-miterlimit:10;}
	.st96{fill:none;stroke:#494949;stroke-width:9.9275;stroke-linecap:round;stroke-miterlimit:10;}
	.st97{fill:none;stroke:#494949;stroke-width:10.0726;stroke-linecap:round;stroke-miterlimit:10;}
	.st98{fill:none;stroke:#494949;stroke-width:14.2824;stroke-linecap:round;stroke-linejoin:round;stroke-miterlimit:10;}
	.st99{fill:none;stroke:#494949;stroke-width:14.3433;stroke-linecap:round;stroke-linejoin:round;stroke-miterlimit:10;}
	.st100{fill:none;stroke:#494949;stroke-width:13;stroke-miterlimit:10;}
	.st101{filter:url(#Adobe_OpacityMaskFilter_16_);}
	
		.st102{mask:url(#SVGID_15_);fill:none;stroke:#494949;stroke-width:13;stroke-linecap:round;stroke-linejoin:round;stroke-miterlimit:10;}
	.st103{filter:url(#Adobe_OpacityMaskFilter_17_);}
	.st104{mask:url(#SVGID_16_);}
	.st105{fill:none;stroke:#494949;stroke-width:8;stroke-linecap:round;stroke-linejoin:round;stroke-miterlimit:10;}
	.st106{fill:none;stroke:#FFCB00;stroke-width:10;stroke-linecap:round;stroke-miterlimit:10;}
	.st107{fill:none;stroke:#038057;stroke-width:10;stroke-linecap:round;stroke-linejoin:round;stroke-miterlimit:10;}
	.st108{fill:none;stroke:#038057;stroke-width:9;stroke-linecap:round;stroke-linejoin:round;stroke-miterlimit:10;}
	.st109{fill:none;stroke:#FFCB00;stroke-width:10;stroke-linecap:round;stroke-linejoin:round;stroke-miterlimit:10;}
	.st110{filter:url(#Adobe_OpacityMaskFilter_18_);}
	
		.st111{mask:url(#SVGID_17_);fill:none;stroke:#038057;stroke-width:9;stroke-linecap:round;stroke-linejoin:round;stroke-miterlimit:10;}
	.st112{filter:url(#Adobe_OpacityMaskFilter_19_);}
	
		.st113{mask:url(#SVGID_18_);fill:none;stroke:#038057;stroke-width:9;stroke-linecap:round;stroke-linejoin:round;stroke-miterlimit:10;}
	.st114{fill:none;stroke:#FFCB00;stroke-width:9;stroke-linecap:round;stroke-linejoin:round;stroke-miterlimit:10;}
	.st115{filter:url(#Adobe_OpacityMaskFilter_20_);}
	.st116{mask:url(#SVGID_19_);}
	.st117{filter:url(#Adobe_OpacityMaskFilter_21_);}
	.st118{filter:url(#Adobe_OpacityMaskFilter_22_);}
	.st119{filter:url(#Adobe_OpacityMaskFilter_23_);}
	
		.st120{mask:url(#SVGID_20_);fill:none;stroke:#038057;stroke-width:9;stroke-linecap:round;stroke-linejoin:round;stroke-miterlimit:10;}
	.st121{fill:#FCFCFC;}
	.st122{fill:none;stroke:#FFCB00;stroke-width:8;stroke-linecap:round;stroke-linejoin:round;stroke-miterlimit:10;}
	.st123{fill:none;stroke:#FFCB00;stroke-width:7;stroke-linecap:round;stroke-linejoin:round;stroke-miterlimit:10;}
	.st124{fill:none;stroke:#FFCB00;stroke-width:5;stroke-linecap:round;stroke-miterlimit:10;}
	.st125{filter:url(#Adobe_OpacityMaskFilter_24_);}
	.st126{mask:url(#SVGID_21_);}
	.st127{filter:url(#Adobe_OpacityMaskFilter_25_);}
	.st128{filter:url(#Adobe_OpacityMaskFilter_26_);}
	.st129{fill:none;stroke:#038057;stroke-width:11;stroke-linecap:round;stroke-linejoin:round;stroke-miterlimit:10;}
	.st130{filter:url(#Adobe_OpacityMaskFilter_27_);}
	
		.st131{mask:url(#SVGID_22_);fill:none;stroke:#038057;stroke-width:11;stroke-linecap:round;stroke-linejoin:round;stroke-miterlimit:10;}
	.st132{fill:none;stroke:#FFCB00;stroke-width:11;stroke-linecap:round;stroke-linejoin:round;stroke-miterlimit:10;}
	.st133{fill:none;stroke:#038057;stroke-width:8;stroke-linecap:round;stroke-linejoin:round;stroke-miterlimit:10;}
	.st134{fill:#038057;}
	.st135{fill:#FFCB00;}
	.st136{fill:none;stroke:#494949;stroke-width:13;stroke-linecap:round;stroke-linejoin:round;stroke-dasharray:22.6216,22.6216;}
	.st137{fill:none;stroke:#494949;stroke-width:13;stroke-linecap:round;stroke-linejoin:round;stroke-dasharray:26.985,26.985;}
	.st138{fill:none;stroke:#494949;stroke-width:13;stroke-linecap:round;stroke-linejoin:round;stroke-dasharray:26.9622,26.9622;}
	.st139{fill:none;stroke:#494949;stroke-width:11.0534;stroke-linecap:round;stroke-linejoin:round;stroke-miterlimit:10;}
	.st140{fill:none;stroke:#494949;stroke-width:11.7237;stroke-linecap:round;stroke-linejoin:round;stroke-miterlimit:10;}
	.st141{fill:none;stroke:#494949;stroke-width:8.8696;stroke-linecap:round;stroke-linejoin:round;stroke-miterlimit:10;}
	.st142{filter:url(#Adobe_OpacityMaskFilter_28_);}
	.st143{mask:url(#SVGID_23_);fill:none;stroke:#494949;stroke-width:13;stroke-miterlimit:10;}
	.st144{filter:url(#Adobe_OpacityMaskFilter_29_);}
	.st145{mask:url(#SVGID_24_);}
	.st146{filter:url(#Adobe_OpacityMaskFilter_30_);}
	.st147{mask:url(#SVGID_25_);}
	.st148{filter:url(#Adobe_OpacityMaskFilter_31_);}
	.st149{fill:#494949;stroke:#494949;stroke-width:13;stroke-linejoin:round;stroke-miterlimit:10;}
	.st150{filter:url(#Adobe_OpacityMaskFilter_32_);}
	.st151{mask:url(#SVGID_26_);fill:#494949;stroke:#494949;stroke-width:13;stroke-linejoin:round;stroke-miterlimit:10;}
	.st152{fill:none;stroke:#FFFFFF;stroke-width:11.6846;stroke-linecap:round;stroke-miterlimit:10;}
	.st153{filter:url(#Adobe_OpacityMaskFilter_33_);}
	.st154{mask:url(#SVGID_27_);}
	.st155{fill:none;stroke:#494949;stroke-width:11.6846;stroke-linecap:round;stroke-miterlimit:10;}
</style>
<g id="Слой_1">
	<path class="st2" d="M108.4,292.6c-3.4-1-6.7-1.9-10-2.8c-3.3-0.8-6.6-1.6-10-2.2c-3.3-0.6-6.7-1.2-10.1-1.5
		c-1.7-0.2-3.3-0.3-5-0.4c-1.7-0.1-3.5-0.2-5.3-0.4l0.4,0c-0.5,0-0.4,0-0.5,0l-0.2,0l-0.3,0l-0.7-0.1l-1.3-0.1l-2.7-0.3
		c-1.8-0.2-3.5-0.4-5.3-0.6c-3.5-0.5-7-1-10.7-1.8c-3.6-0.8-7.3-2-10.8-3.7c-3.6-1.8-7-4.4-9.6-7.8l3.7,1.9c-6-2.2-3.1-2.3-3.9-2.1
		l-0.1-0.2l-0.3-0.4l-0.5-0.7c-0.3-0.5-0.6-1-0.8-1.4c-0.5-1-1-1.9-1.4-3c-0.8-2-1.4-4.1-1.9-6.3c-0.1-1.1-0.3-2.2-0.4-3.3
		c-0.1-0.6-0.1-1.1-0.1-1.6l0-1.6l0-1.6c0-0.5,0.1-1,0.1-1.5l0.3-3c1.1-8,3.4-15.5,6.2-22.6c5.7-14.4,13.5-27.6,22.3-40
		c2.3-3.1,4.6-6.1,6.9-9.1l7.2-8.8c2.5-2.8,5.1-5.6,7.6-8.4c2.6-2.8,5.3-5.4,7.9-8.1c1.3-1.4,2.6-2.7,4-4l4-3.9
		c2.7-2.6,5.4-5.2,8.2-7.7c5.5-5.1,11.3-10.1,17.4-14.8c12.1-9.3,25.5-17.3,39.7-23.2c6.9-2.9,14.1-5.7,21.5-7.9
		c7.4-2.2,15-3.9,22.7-4.8l2.9-0.3l2.9-0.3c1.9-0.2,3.9-0.2,5.8-0.4c1.9-0.1,3.9-0.1,5.8-0.1c1.9,0,3.7,0,5.7,0.1
		c7.6,0.1,15.3,0.7,23,2c7.7,1.3,15.3,3.3,22.7,6.2c7.3,2.9,14.4,6.8,20.8,11.6l4.7,3.8l4.3,4.2c2.8,2.9,5.5,6.1,7.7,9.5
		c4.5,6.9,7.4,14.5,9.6,21.9c2.2,7.4,3.7,14.8,5.2,22.2l2.1,11l1,5.3l0.2,1.3c0,0.3,0.1,0.3,0.1,0.5l0.2,0.7c0.2,1,0.4,1.9,0.6,2.9
		c1.5,7.7,2.5,15.4,2.4,23.4c-0.1,4-0.3,8-1,12c-0.7,4-1.7,8.1-3.3,12c-0.8,2-1.8,3.9-2.8,5.8c-1.2,1.9-2.2,3.5-3.5,5.2
		c-2.6,3.4-5.9,6.6-9.7,9.1l-1.4,0.9c-0.4,0.2-0.8,0.5-1.4,0.8c-1,0.6-2.2,1.1-3.3,1.5c-2.2,0.8-4.2,1.3-6.2,1.7
		c-3.9,0.8-7.7,1.3-11.5,1.8l-5.5,0.6c-1.8,0.2-3.5,0.5-5.2,0.8c-3.4,0.6-6.7,1.4-9.9,2.5c-3.2,1.1-6.4,2.4-9.4,4
		c-1.5,0.8-3,1.6-4.6,2.6c-1.7,1-3.4,2-5.1,2.8c-6.8,3.6-13.8,6.5-20.8,9.3c-7,2.7-14.1,5.2-21.3,7.4c-3.6,1.1-7.2,2.1-11,3
		c-3.7,0.9-7.4,1.5-11.2,2.2c-7.5,1.2-15,2.1-22.5,2.5c-1.9,0.1-3.8,0.2-5.7,0.3l-5.7,0.1l-5.7-0.1c-1.9-0.1-3.8-0.2-5.7-0.3
		C123.4,295.8,115.9,294.7,108.4,292.6z M110.3,286.1c13.8,3.7,28.4,4.5,42.9,3.2c7.2-0.6,14.5-1.7,21.6-3.1
		c3.6-0.7,7.1-1.5,10.6-2.5c3.4-0.9,6.9-2.1,10.3-3.3c6.9-2.4,13.7-5.2,20.3-8.1c6.7-2.9,13.2-6.1,19.4-9.7c1.5-0.9,3-1.8,4.5-2.7
		c1.5-1,3.3-2.1,5-3.1c3.5-2,7.1-3.7,10.9-5.1c3.8-1.4,7.7-2.4,11.5-3.2c1.9-0.4,3.9-0.7,5.8-1l5.6-0.8c3.6-0.5,7.2-1.1,10.5-1.8
		c1.6-0.4,3.2-0.8,4.5-1.3c0.6-0.2,1.1-0.5,1.7-0.8l1.1-0.6l1-0.6c2.4-1.6,4.5-3.6,6.4-6.1c0.5-0.6,0.9-1.3,1.4-2l0.4-0.6l0.3-0.5
		l0.6-1c0.8-1.3,1.5-2.7,2.1-4.2c2.4-5.8,3.4-12.6,3.6-19.5c0.1-6.9-0.6-13.9-1.9-20.8c-0.2-0.9-0.4-1.7-0.5-2.5l-0.1-0.6
		c-0.1-0.2-0.2-0.6-0.2-0.8l-0.3-1.4l-1-5.6c-0.7-3.6-1.3-7.3-2-10.9c-1.4-7.2-2.9-14.3-4.9-21.1c-2-6.8-4.5-13.2-8.2-18.7
		c-1.8-2.8-3.9-5.3-6.3-7.7l-3.7-3.6l-4-3.2c-10.9-8.3-24.2-13.1-38.1-15.4c-7-1.1-14-1.7-21.3-1.8c-1.8,0-3.6,0-5.5-0.1
		c-1.8,0-3.5,0-5.3,0.1c-1.8,0.1-3.5,0.1-5.3,0.3l-2.6,0.2l-2.6,0.3c-7,0.9-13.9,2.4-20.7,4.4c-6.8,2-13.5,4.6-20.2,7.5
		c-13.2,5.6-25.5,12.8-36.8,21.7c-11.3,8.8-21.6,19.1-31.9,29.7c-2.5,2.6-5.1,5.2-7.5,7.9c-2.4,2.7-4.8,5.4-7.3,8.1l-7,8.3
		c-2.2,2.9-4.4,5.7-6.6,8.6l-3.2,4.4c-1,1.5-2.2,2.9-3.1,4.4c-2,3-4,6-5.8,9.1c-3.8,6.1-7.1,12.4-10,18.9
		c-2.9,6.5-5.3,13.2-6.6,19.8l-0.4,2.5c-0.1,0.4-0.1,0.8-0.2,1.2l-0.1,1.2l-0.1,1.2c0,0.4-0.1,0.8,0,1.2l0.1,2.2
		c0.2,1.5,0.5,3,1.1,4.4c0.2,0.7,0.5,1.4,0.9,2.1c0.2,0.3,0.3,0.7,0.5,1l0.3,0.5l0.1,0.2l0.1,0.1c-0.7,0.2,2.2,0.2-3.7-1.9l3.7,1.9
		c1.6,2.2,3.6,4.1,6.3,5.5c2.6,1.5,5.6,2.6,8.7,3.4c3.1,0.9,6.5,1.5,9.9,2.1c1.7,0.3,3.4,0.6,5,0.8c0.8,0.1,1.7,0.2,2.5,0.3l1.3,0.1
		l0.6,0.1l0.3,0l0.2,0c0,0,0.2,0-0.2,0l0.4,0c1.7,0.2,3.4,0.3,5.1,0.5c1.7,0.2,3.6,0.3,5.4,0.6c3.6,0.5,7,1.2,10.5,1.8
		c3.5,0.7,6.9,1.5,10.4,2.4C103.6,284.1,107,285.1,110.3,286.1z"/>
	<path class="st2" d="M291.8,215c-5.5,2-10.6,4.7-15.2,8c-2.3,1.7-4.5,3.5-6.5,5.5c-1,1-1.9,2-3,3.1c-1.1,1.1-2.2,2.1-3.3,3.2
		c-4.4,4.1-9,8-13.8,11.6c-4.8,3.6-9.7,7.1-14.8,10.3c-10.1,6.5-20.8,12-32,16.6c-1.4,0.6-2.8,1.1-4.2,1.6l-4.3,1.5
		c-1.4,0.5-2.9,0.9-4.3,1.4l-4.3,1.3c-1.4,0.5-2.9,0.8-4.4,1.2l-4.4,1.1c-1.5,0.4-2.9,0.7-4.4,1l-4.4,0.9
		c-11.8,2.2-23.9,3.5-36.2,2.8c-1.5-0.1-3.1-0.2-4.6-0.4l-2.3-0.3c-0.8-0.1-1.5-0.3-2.3-0.4l-2.3-0.4l-2.3-0.5l-2.2-0.5l-2.1-0.5
		c-5.7-1.4-11.4-2.7-17.1-3.8c-2.9-0.6-5.8-1.1-8.6-1.7l-2.2-0.4c-0.7-0.1-1.4-0.2-2.1-0.3c-1.4-0.2-2.9-0.4-4.3-0.5
		c-5.9-0.6-11.8-1.4-17.6-2.1c-2.9-0.4-5.9-0.7-8.8-1.1c-3-0.4-6-1-8.9-1.7c-5.9-1.4-11.6-3.4-17.1-5.8c-0.8-0.3-1.1-1.2-0.7-2
		c0.3-0.7,1.1-1.1,1.9-0.8l0,0c5.4,2,11.1,3.5,16.8,4.5c2.9,0.5,5.7,0.9,8.6,1.1c2.9,0.2,5.9,0.4,8.8,0.6l17.7,1.3
		c1.5,0.1,3,0.2,4.5,0.4c0.8,0.1,1.6,0.2,2.3,0.3l2.2,0.3c2.9,0.4,5.9,0.9,8.8,1.4c5.9,1,11.7,2.1,17.6,3.4l2.2,0.5
		c0.7,0.2,1.4,0.3,2.1,0.4l2.1,0.4l2.1,0.3l2.1,0.3l2.1,0.2c1.4,0.2,2.8,0.2,4.2,0.3c11.4,0.5,22.9-1,34.3-3.2l4.3-0.9
		c1.4-0.3,2.9-0.6,4.3-1l4.2-1c1.4-0.4,2.8-0.7,4.2-1.1l4.1-1.3c1.4-0.4,2.8-0.8,4.1-1.3l4.1-1.5c1.4-0.5,2.7-1,4-1.5
		c10.8-4.2,21.1-9.6,31.1-15.4c10-5.9,19.7-12.5,28.7-19.8c1.1-0.9,2.2-1.8,3.3-2.8c1-0.9,2.2-2,3.4-3c2.4-2,4.9-3.7,7.5-5.3
		c5.3-3.1,11-5.4,16.9-6.6c0.6-0.1,1.2,0.2,1.3,0.8C292.6,214.3,292.3,214.8,291.8,215z"/>
</g>
<g id="Слой_2">
</g>
</svg>
