<?xml version="1.0" encoding="utf-8"?>
<!-- Generator: Adobe Illustrator 21.1.0, SVG Export Plug-In . SVG Version: 6.00 Build 0)  -->
<svg version="1.1" xmlns="http://www.w3.org/2000/svg" xmlns:xlink="http://www.w3.org/1999/xlink" x="0px" y="0px"
	 viewBox="0 0 337.3 338" style="enable-background:new 0 0 337.3 338;" xml:space="preserve">
<style type="text/css">
	.st0{fill:none;stroke:#494949;stroke-width:13;stroke-linecap:round;stroke-linejoin:round;stroke-miterlimit:10;}
	.st1{fill:none;stroke:#494949;stroke-width:14.6363;stroke-linejoin:round;stroke-miterlimit:10;}
	.st2{fill:#494949;}
	.st3{fill:none;stroke:#494949;stroke-width:13;stroke-linejoin:round;stroke-miterlimit:10;}
	.st4{fill:none;stroke:#494949;stroke-width:13.34;stroke-linejoin:round;stroke-miterlimit:10;}
	.st5{fill:none;stroke:#000000;stroke-width:13;stroke-linejoin:round;stroke-miterlimit:10;}
	.st6{fill:none;stroke:#000000;stroke-width:14.6363;stroke-linejoin:round;stroke-miterlimit:10;}
	.st7{fill:none;stroke:#000000;stroke-width:13;stroke-linecap:round;stroke-linejoin:round;stroke-miterlimit:10;}
	.st8{fill:none;stroke:#000000;stroke-width:14.636;stroke-linecap:round;stroke-linejoin:round;stroke-miterlimit:10;}
	.st9{fill:none;stroke:#000000;stroke-width:12.4844;stroke-linejoin:round;stroke-miterlimit:10;}
	.st10{fill:none;stroke:#494949;stroke-width:12.1445;stroke-linejoin:round;stroke-miterlimit:10;}
	.st11{fill:none;stroke:#000000;stroke-width:12.1445;stroke-linejoin:round;stroke-miterlimit:10;}
	.st12{fill:none;stroke:#000000;stroke-width:11.2103;stroke-linejoin:round;stroke-miterlimit:10;}
	.st13{fill:none;stroke:#000000;stroke-width:12.3133;stroke-linecap:round;stroke-linejoin:round;stroke-miterlimit:10;}
	.st14{fill:none;stroke:#000000;stroke-width:10.2152;stroke-linejoin:round;stroke-miterlimit:10;}
	.st15{fill:none;stroke:#494949;stroke-width:14.636;stroke-linecap:round;stroke-linejoin:round;stroke-miterlimit:10;}
	.st16{fill:none;stroke:#000000;stroke-width:10;stroke-linecap:round;stroke-miterlimit:10;}
	.st17{filter:url(#Adobe_OpacityMaskFilter);}
	.st18{mask:url(#SVGID_1_);}
	.st19{filter:url(#Adobe_OpacityMaskFilter_1_);}
	.st20{mask:url(#SVGID_2_);}
	.st21{fill:none;stroke:#000000;stroke-width:13;stroke-linecap:round;stroke-miterlimit:10;}
	.st22{fill:none;stroke:#000000;stroke-width:11.0297;stroke-linecap:round;stroke-linejoin:round;stroke-miterlimit:10;}
	.st23{filter:url(#Adobe_OpacityMaskFilter_2_);}
	.st24{mask:url(#SVGID_3_);fill:none;stroke:#000000;stroke-width:11.0297;stroke-linecap:round;stroke-miterlimit:10;}
	.st25{fill:none;stroke:#000000;stroke-width:11.0297;stroke-linecap:round;stroke-miterlimit:10;}
	.st26{fill:none;stroke:#000000;stroke-width:11.9488;stroke-linecap:round;stroke-miterlimit:10;}
	.st27{filter:url(#Adobe_OpacityMaskFilter_3_);}
	.st28{fill:none;stroke:#FFFFFF;stroke-width:13;stroke-linejoin:round;stroke-miterlimit:10;}
	.st29{fill:none;stroke:#FFFFFF;stroke-width:10;stroke-linejoin:round;stroke-miterlimit:10;}
	.st30{mask:url(#SVGID_4_);fill:#020202;}
	.st31{fill:none;stroke:#000000;stroke-width:10;stroke-linecap:round;stroke-linejoin:round;stroke-miterlimit:10;}
	.st32{fill:none;stroke:#FFFFFF;stroke-width:10;stroke-linecap:round;stroke-linejoin:round;}
	.st33{fill:#FFFFFF;}
	.st34{fill:none;stroke:#000000;stroke-width:10;stroke-linecap:round;stroke-linejoin:round;}
	.st35{fill:none;stroke:#494949;stroke-width:10;stroke-linecap:round;stroke-miterlimit:10;}
	.st36{fill:none;stroke:#494949;stroke-width:12;stroke-linecap:round;stroke-miterlimit:10;}
	.st37{fill:none;stroke:#494949;stroke-width:12.9013;stroke-miterlimit:10;}
	.st38{fill:none;stroke:#494949;stroke-width:10;stroke-miterlimit:10;}
	.st39{fill:none;stroke:#00F9F2;stroke-width:5;stroke-miterlimit:10;}
	.st40{fill:#00F9F2;}
	.st41{fill:none;stroke:#494949;stroke-width:11;stroke-miterlimit:10;}
	.st42{fill:none;stroke:#494949;stroke-width:10;stroke-linejoin:round;stroke-miterlimit:10;}
	.st43{fill:none;stroke:#494949;stroke-width:12.8445;stroke-linecap:round;stroke-linejoin:round;stroke-miterlimit:10;}
	.st44{fill:none;stroke:#000000;stroke-width:9.9006;stroke-linecap:round;stroke-linejoin:round;}
	
		.st45{fill:none;stroke:#000000;stroke-width:9.9006;stroke-linecap:round;stroke-linejoin:round;stroke-dasharray:25.9068,25.9068;}
	
		.st46{fill:none;stroke:#000000;stroke-width:9.9006;stroke-linecap:round;stroke-linejoin:round;stroke-dasharray:39.7013,39.7013;}
	
		.st47{fill:none;stroke:#000000;stroke-width:9.9006;stroke-linecap:round;stroke-linejoin:round;stroke-dasharray:39.6982,39.6982;}
	.st48{fill:none;}
	.st49{fill:none;stroke:#494949;stroke-width:10;stroke-linecap:round;stroke-linejoin:round;}
	.st50{fill:none;stroke:#494949;stroke-width:10;stroke-linecap:round;stroke-linejoin:round;stroke-dasharray:29.277,27.7361;}
	.st51{fill:none;stroke:#494949;stroke-width:10;stroke-linecap:round;stroke-linejoin:round;stroke-dasharray:20.9682,19.8646;}
	.st52{fill:none;stroke:#494949;stroke-width:10;stroke-linecap:round;stroke-linejoin:round;stroke-dasharray:18.011,17.0631;}
	.st53{fill:none;stroke:#494949;stroke-width:13;stroke-linecap:round;stroke-miterlimit:10;}
	.st54{fill:none;stroke:#494949;stroke-width:10;stroke-linecap:round;stroke-linejoin:round;stroke-miterlimit:10;}
	.st55{fill:none;stroke:#494949;stroke-width:11.2762;stroke-linecap:round;stroke-linejoin:round;stroke-miterlimit:10;}
	.st56{fill:none;stroke:#494949;stroke-width:12.901;stroke-linecap:round;stroke-miterlimit:10;}
	.st57{fill:none;stroke:#494949;stroke-width:11.2103;stroke-linejoin:round;stroke-miterlimit:10;}
	.st58{fill:none;stroke:#494949;stroke-width:13;stroke-linecap:round;stroke-linejoin:round;}
	.st59{fill:none;stroke:#494949;stroke-width:9;stroke-linecap:round;stroke-miterlimit:10;}
	.st60{fill:none;stroke:#494949;stroke-width:12.5238;stroke-linecap:round;stroke-linejoin:round;stroke-miterlimit:10;}
	.st61{fill:none;stroke:#494949;stroke-width:13;stroke-linecap:round;stroke-linejoin:round;stroke-dasharray:0,24.2514,0,0,0,0;}
	.st62{fill:none;stroke:#494949;stroke-width:13;stroke-linecap:round;stroke-linejoin:round;stroke-dasharray:0,24.2003,0,0,0,0;}
	.st63{filter:url(#Adobe_OpacityMaskFilter_4_);}
	.st64{mask:url(#SVGID_5_);}
	.st65{filter:url(#Adobe_OpacityMaskFilter_5_);}
	.st66{mask:url(#SVGID_6_);}
	.st67{filter:url(#Adobe_OpacityMaskFilter_6_);}
	.st68{mask:url(#SVGID_7_);}
	.st69{filter:url(#Adobe_OpacityMaskFilter_7_);}
	.st70{fill:none;stroke:#494949;stroke-width:13.7883;stroke-linecap:round;stroke-linejoin:round;stroke-miterlimit:10;}
	.st71{fill:#494949;stroke:#494949;stroke-width:5;stroke-linecap:round;stroke-linejoin:round;stroke-miterlimit:10;}
	.st72{fill:#494949;stroke:#494949;stroke-width:10;stroke-linecap:round;stroke-linejoin:round;stroke-miterlimit:10;}
	.st73{fill:none;stroke:#494949;stroke-width:13.4738;stroke-linecap:round;stroke-linejoin:round;stroke-miterlimit:10;}
	.st74{fill:none;stroke:#494949;stroke-width:13.3712;stroke-linecap:round;stroke-miterlimit:10;}
	.st75{filter:url(#Adobe_OpacityMaskFilter_8_);}
	.st76{fill:none;stroke:#000000;stroke-width:11.6846;stroke-linecap:round;stroke-miterlimit:10;}
	.st77{fill:none;stroke:#000000;stroke-width:11.6846;stroke-linejoin:round;stroke-miterlimit:10;}
	.st78{mask:url(#SVGID_8_);fill:#494949;stroke:#494949;stroke-width:13;stroke-linejoin:round;stroke-miterlimit:10;}
	.st79{filter:url(#Adobe_OpacityMaskFilter_9_);}
	.st80{mask:url(#SVGID_9_);fill:#494949;stroke:#494949;stroke-width:13;stroke-linejoin:round;stroke-miterlimit:10;}
	.st81{fill:none;stroke:#494949;stroke-width:12.2229;stroke-linecap:round;stroke-linejoin:round;stroke-miterlimit:10;}
	.st82{filter:url(#Adobe_OpacityMaskFilter_10_);}
	.st83{mask:url(#SVGID_10_);}
	.st84{filter:url(#Adobe_OpacityMaskFilter_11_);}
	.st85{filter:url(#Adobe_OpacityMaskFilter_12_);}
	.st86{mask:url(#SVGID_11_);}
	.st87{filter:url(#Adobe_OpacityMaskFilter_13_);}
	.st88{mask:url(#SVGID_12_);}
	.st89{filter:url(#Adobe_OpacityMaskFilter_14_);}
	
		.st90{mask:url(#SVGID_13_);fill:none;stroke:#494949;stroke-width:13;stroke-linecap:round;stroke-linejoin:round;stroke-miterlimit:10;}
	.st91{filter:url(#Adobe_OpacityMaskFilter_15_);}
	
		.st92{mask:url(#SVGID_14_);fill:none;stroke:#494949;stroke-width:13;stroke-linecap:round;stroke-linejoin:round;stroke-miterlimit:10;}
	.st93{fill:none;stroke:#494949;stroke-width:13.54;stroke-linecap:round;stroke-linejoin:round;stroke-miterlimit:10;}
	.st94{fill:none;stroke:#494949;stroke-width:11.8606;stroke-linecap:round;stroke-linejoin:round;stroke-miterlimit:10;}
	.st95{fill:none;stroke:#494949;stroke-width:9.856;stroke-linecap:round;stroke-miterlimit:10;}
	.st96{fill:none;stroke:#494949;stroke-width:9.9275;stroke-linecap:round;stroke-miterlimit:10;}
	.st97{fill:none;stroke:#494949;stroke-width:10.0726;stroke-linecap:round;stroke-miterlimit:10;}
	.st98{fill:none;stroke:#494949;stroke-width:14.2824;stroke-linecap:round;stroke-linejoin:round;stroke-miterlimit:10;}
	.st99{fill:none;stroke:#494949;stroke-width:14.3433;stroke-linecap:round;stroke-linejoin:round;stroke-miterlimit:10;}
	.st100{fill:none;stroke:#494949;stroke-width:13;stroke-miterlimit:10;}
	.st101{filter:url(#Adobe_OpacityMaskFilter_16_);}
	
		.st102{mask:url(#SVGID_15_);fill:none;stroke:#494949;stroke-width:13;stroke-linecap:round;stroke-linejoin:round;stroke-miterlimit:10;}
	.st103{filter:url(#Adobe_OpacityMaskFilter_17_);}
	.st104{mask:url(#SVGID_16_);}
	.st105{fill:none;stroke:#494949;stroke-width:8;stroke-linecap:round;stroke-linejoin:round;stroke-miterlimit:10;}
	.st106{fill:none;stroke:#FFCB00;stroke-width:10;stroke-linecap:round;stroke-miterlimit:10;}
	.st107{fill:none;stroke:#038057;stroke-width:10;stroke-linecap:round;stroke-linejoin:round;stroke-miterlimit:10;}
	.st108{fill:none;stroke:#038057;stroke-width:9;stroke-linecap:round;stroke-linejoin:round;stroke-miterlimit:10;}
	.st109{fill:none;stroke:#FFCB00;stroke-width:10;stroke-linecap:round;stroke-linejoin:round;stroke-miterlimit:10;}
	.st110{filter:url(#Adobe_OpacityMaskFilter_18_);}
	
		.st111{mask:url(#SVGID_17_);fill:none;stroke:#038057;stroke-width:9;stroke-linecap:round;stroke-linejoin:round;stroke-miterlimit:10;}
	.st112{filter:url(#Adobe_OpacityMaskFilter_19_);}
	
		.st113{mask:url(#SVGID_18_);fill:none;stroke:#038057;stroke-width:9;stroke-linecap:round;stroke-linejoin:round;stroke-miterlimit:10;}
	.st114{fill:none;stroke:#FFCB00;stroke-width:9;stroke-linecap:round;stroke-linejoin:round;stroke-miterlimit:10;}
	.st115{filter:url(#Adobe_OpacityMaskFilter_20_);}
	.st116{mask:url(#SVGID_19_);}
	.st117{filter:url(#Adobe_OpacityMaskFilter_21_);}
	.st118{filter:url(#Adobe_OpacityMaskFilter_22_);}
	.st119{filter:url(#Adobe_OpacityMaskFilter_23_);}
	
		.st120{mask:url(#SVGID_20_);fill:none;stroke:#038057;stroke-width:9;stroke-linecap:round;stroke-linejoin:round;stroke-miterlimit:10;}
	.st121{fill:#FCFCFC;}
	.st122{fill:none;stroke:#FFCB00;stroke-width:8;stroke-linecap:round;stroke-linejoin:round;stroke-miterlimit:10;}
	.st123{fill:none;stroke:#FFCB00;stroke-width:7;stroke-linecap:round;stroke-linejoin:round;stroke-miterlimit:10;}
	.st124{fill:none;stroke:#FFCB00;stroke-width:5;stroke-linecap:round;stroke-miterlimit:10;}
	.st125{filter:url(#Adobe_OpacityMaskFilter_24_);}
	.st126{mask:url(#SVGID_21_);}
	.st127{filter:url(#Adobe_OpacityMaskFilter_25_);}
	.st128{filter:url(#Adobe_OpacityMaskFilter_26_);}
	.st129{fill:none;stroke:#038057;stroke-width:11;stroke-linecap:round;stroke-linejoin:round;stroke-miterlimit:10;}
	.st130{filter:url(#Adobe_OpacityMaskFilter_27_);}
	
		.st131{mask:url(#SVGID_22_);fill:none;stroke:#038057;stroke-width:11;stroke-linecap:round;stroke-linejoin:round;stroke-miterlimit:10;}
	.st132{fill:none;stroke:#FFCB00;stroke-width:11;stroke-linecap:round;stroke-linejoin:round;stroke-miterlimit:10;}
	.st133{fill:none;stroke:#038057;stroke-width:8;stroke-linecap:round;stroke-linejoin:round;stroke-miterlimit:10;}
	.st134{fill:#038057;}
	.st135{fill:#FFCB00;}
	.st136{fill:none;stroke:#494949;stroke-width:13;stroke-linecap:round;stroke-linejoin:round;stroke-dasharray:22.6216,22.6216;}
	.st137{fill:none;stroke:#494949;stroke-width:13;stroke-linecap:round;stroke-linejoin:round;stroke-dasharray:26.985,26.985;}
	.st138{fill:none;stroke:#494949;stroke-width:13;stroke-linecap:round;stroke-linejoin:round;stroke-dasharray:26.9622,26.9622;}
	.st139{fill:none;stroke:#494949;stroke-width:11.0534;stroke-linecap:round;stroke-linejoin:round;stroke-miterlimit:10;}
	.st140{fill:none;stroke:#494949;stroke-width:11.7237;stroke-linecap:round;stroke-linejoin:round;stroke-miterlimit:10;}
	.st141{fill:none;stroke:#494949;stroke-width:8.8696;stroke-linecap:round;stroke-linejoin:round;stroke-miterlimit:10;}
	.st142{filter:url(#Adobe_OpacityMaskFilter_28_);}
	.st143{mask:url(#SVGID_23_);fill:none;stroke:#494949;stroke-width:13;stroke-miterlimit:10;}
	.st144{filter:url(#Adobe_OpacityMaskFilter_29_);}
	.st145{mask:url(#SVGID_24_);}
	.st146{filter:url(#Adobe_OpacityMaskFilter_30_);}
	.st147{mask:url(#SVGID_25_);}
	.st148{filter:url(#Adobe_OpacityMaskFilter_31_);}
	.st149{fill:#494949;stroke:#494949;stroke-width:13;stroke-linejoin:round;stroke-miterlimit:10;}
	.st150{filter:url(#Adobe_OpacityMaskFilter_32_);}
	.st151{mask:url(#SVGID_26_);fill:#494949;stroke:#494949;stroke-width:13;stroke-linejoin:round;stroke-miterlimit:10;}
	.st152{fill:none;stroke:#FFFFFF;stroke-width:11.6846;stroke-linecap:round;stroke-miterlimit:10;}
	.st153{filter:url(#Adobe_OpacityMaskFilter_33_);}
	.st154{mask:url(#SVGID_27_);}
	.st155{fill:none;stroke:#494949;stroke-width:11.6846;stroke-linecap:round;stroke-miterlimit:10;}
</style>
<g id="Слой_1">
	<g>
		<path class="st2" d="M161.2,167.5c-1.7,0-3.3-0.6-4.6-1.9L55.3,64.2c-2.5-2.5-2.5-6.7,0-9.2s6.7-2.5,9.2,0l101.3,101.3
			c2.5,2.5,2.5,6.7,0,9.2C164.6,166.8,162.9,167.5,161.2,167.5z"/>
	</g>
	<g>
		<path class="st2" d="M67.4,110.5c-3.5,0-6.4-2.8-6.5-6.3c-0.1-3.6,2.7-6.6,6.3-6.7l29.4-0.8l0-29.2c0-3.6,2.9-6.5,6.5-6.5
			s6.5,2.9,6.5,6.5l0,35.6c0,3.5-2.8,6.4-6.3,6.5l-35.7,1C67.5,110.5,67.4,110.5,67.4,110.5z"/>
	</g>
	<g>
		<path class="st2" d="M131.8,174.4c-1.7,0-3.4-0.7-4.7-2l-25-25.7c-1.8-1.9-2.3-4.7-1.3-7.1s3.4-4,6-4H136l1.2-29.7
			c0.1-2.6,1.7-4.8,4.1-5.8c2.4-0.9,5.1-0.4,6.9,1.4l25.4,25c2.6,2.5,2.6,6.6,0.1,9.2c-2.5,2.6-6.6,2.6-9.2,0.1l-15-14.7l-0.9,21.3
			c-0.1,3.5-3,6.2-6.5,6.2h-20.1l14.2,14.6c2.5,2.6,2.4,6.7-0.1,9.2C135,173.8,133.4,174.4,131.8,174.4z"/>
	</g>
	<g>
		<path class="st2" d="M278.8,283.6c-1.6,0-3.3-0.6-4.6-1.9L156.7,165.6c-2.6-2.5-2.6-6.6-0.1-9.2c2.5-2.6,6.6-2.6,9.2-0.1
			l117.6,116.2c2.6,2.5,2.6,6.6,0.1,9.2C282.2,283,280.5,283.6,278.8,283.6z"/>
	</g>
	<g>
		<path class="st2" d="M235.7,275.8c-3.6,0-6.5-2.9-6.5-6.5l0-35.6c0-3.5,2.8-6.4,6.3-6.5l35.7-1c3.6-0.1,6.6,2.7,6.7,6.3
			c0.1,3.6-2.7,6.6-6.3,6.7l-29.4,0.8l0,29.2C242.2,272.9,239.3,275.8,235.7,275.8z"/>
	</g>
	<g>
		<path class="st2" d="M195.1,237c-1.7,0-3.3-0.6-4.6-1.9l-25.4-25c-2.6-2.5-2.6-6.6-0.1-9.2c2.5-2.6,6.6-2.6,9.2-0.1l15,14.7
			l0.9-21.3c0.1-3.5,3-6.2,6.5-6.2h20.1l-14.2-14.6c-2.5-2.6-2.4-6.7,0.1-9.2c2.6-2.5,6.7-2.4,9.2,0.1l25,25.7
			c1.8,1.9,2.3,4.7,1.3,7.1s-3.4,4-6,4h-29.2l-1.2,29.7c-0.1,2.6-1.7,4.8-4.1,5.8C196.7,236.8,195.9,237,195.1,237z"/>
	</g>
	<g>
		<path class="st2" d="M169.2,186.1c-3.6,0-6.5-2.9-6.5-6.5V14.7c0-3.6,2.9-6.5,6.5-6.5s6.5,2.9,6.5,6.5v164.9
			C175.7,183.2,172.8,186.1,169.2,186.1z"/>
	</g>
	<g>
		<path class="st2" d="M169.1,82.5c-1.6,0-3.2-0.6-4.5-1.8l-25.9-24.6c-2.6-2.5-2.7-6.6-0.2-9.2c2.5-2.6,6.6-2.7,9.2-0.2L169,66.9
			l20.7-20.7c2.5-2.5,6.7-2.5,9.2,0c2.5,2.5,2.5,6.7,0,9.2l-25.2,25.2C172.4,81.8,170.7,82.5,169.1,82.5z"/>
	</g>
	<g>
		<path class="st2" d="M195.8,149.1c-3.6,0-6.5-2.9-6.5-6.4l-0.2-21l-15.7,14.4c-2.6,2.4-6.5,2.3-9-0.2l-14.2-14.2l-0.3,20.4
			c0,3.6-3,6.4-6.5,6.4c0,0-0.1,0-0.1,0c-3.6,0-6.5-3-6.4-6.6l0.5-35.8c0-2.6,1.6-4.9,4.1-5.9c2.4-1,5.2-0.4,7,1.4l20.7,20.7
			l21.8-20.1c1.9-1.7,4.6-2.2,7-1.2c2.4,1,3.9,3.3,3.9,5.9l0.3,35.6C202.4,146.2,199.5,149.1,195.8,149.1
			C195.9,149.1,195.9,149.1,195.8,149.1z"/>
	</g>
	<g>
		<path class="st2" d="M323.3,175.2H158.2c-3.6,0-6.5-2.9-6.5-6.5s2.9-6.5,6.5-6.5h165.1c3.6,0,6.5,2.9,6.5,6.5
			S326.9,175.2,323.3,175.2z"/>
	</g>
	<g>
		<path class="st2" d="M287.3,200.2c-1.7,0-3.3-0.6-4.6-1.9l-25.2-25.2c-2.5-2.5-2.5-6.5-0.1-9.1l24.6-25.9c2.5-2.6,6.6-2.7,9.2-0.2
			c2.6,2.5,2.7,6.6,0.2,9.2l-20.2,21.3l20.7,20.7c2.5,2.5,2.5,6.7,0,9.2C290.6,199.5,288.9,200.2,287.3,200.2z"/>
	</g>
	<g>
		<path class="st2" d="M195.5,201.8c-3.6,0-6.5-2.9-6.5-6.4c0-3.6,2.8-6.5,6.4-6.6l21-0.2l-14.4-15.7c-2.4-2.6-2.3-6.5,0.2-9
			l14.2-14.2l-20.4-0.3c-3.6,0-6.5-3-6.4-6.6c0.1-3.6,3-6.4,6.6-6.4l35.8,0.5c2.6,0,4.9,1.6,5.9,4.1c1,2.4,0.4,5.2-1.4,7l-20.7,20.7
			l20.1,21.8c1.7,1.9,2.2,4.6,1.2,7c-1,2.4-3.3,3.9-5.9,3.9L195.5,201.8C195.5,201.8,195.5,201.8,195.5,201.8z"/>
	</g>
	<g>
		<path class="st2" d="M158.6,175H15.4c-3.6,0-6.5-2.9-6.5-6.5s2.9-6.5,6.5-6.5h143.3c3.6,0,6.5,2.9,6.5,6.5S162.2,175,158.6,175z"
			/>
	</g>
	<g>
		<path class="st2" d="M51.4,200c-1.7,0-3.3-0.6-4.6-1.9c-2.5-2.5-2.5-6.7,0-9.2l20.7-20.7l-20.2-21.3c-2.5-2.6-2.4-6.7,0.2-9.2
			c2.6-2.5,6.7-2.4,9.2,0.2l24.6,25.9c2.4,2.6,2.4,6.6-0.1,9.1L56,198.1C54.7,199.4,53.1,200,51.4,200z"/>
	</g>
	<g>
		<path class="st2" d="M143.2,201.6C143.2,201.6,143.2,201.6,143.2,201.6l-35.7-0.3c-2.6,0-4.9-1.6-5.9-3.9c-1-2.4-0.6-5.1,1.2-7
			l20.1-21.8l-20.7-20.7c-1.8-1.8-2.4-4.6-1.4-7c1-2.4,3.3-4,5.9-4.1l35.8-0.5c3.6,0,6.5,2.8,6.6,6.4c0,3.6-2.8,6.5-6.4,6.6
			l-20.4,0.3l14.2,14.2c2.5,2.5,2.5,6.4,0.2,9l-14.4,15.7l21,0.2c3.6,0,6.5,3,6.4,6.6C149.7,198.7,146.8,201.6,143.2,201.6z"/>
	</g>
	<g>
		<path class="st2" d="M169.3,329.1c-3.6,0-6.5-2.9-6.5-6.5V179.3c0-3.6,2.9-6.5,6.5-6.5s6.5,2.9,6.5,6.5v143.3
			C175.8,326.2,172.9,329.1,169.3,329.1z"/>
	</g>
	<g>
		<path class="st2" d="M194.3,293.1c-1.7,0-3.3-0.6-4.6-1.9L169,270.5l-21.3,20.2c-2.6,2.5-6.7,2.4-9.2-0.2
			c-2.5-2.6-2.4-6.7,0.2-9.2l25.9-24.6c2.6-2.4,6.6-2.4,9.1,0.1l25.2,25.2c2.5,2.5,2.5,6.7,0,9.2
			C197.6,292.4,195.9,293.1,194.3,293.1z"/>
	</g>
	<g>
		<path class="st2" d="M161.4,183.3c-1.7,0-3.3-0.6-4.6-1.9c-2.5-2.5-2.5-6.7,0-9.2L273.3,55.6c2.5-2.5,6.7-2.5,9.2,0
			c2.5,2.5,2.5,6.7,0,9.2L166,181.4C164.7,182.6,163,183.3,161.4,183.3z"/>
	</g>
	<g>
		<path class="st2" d="M270.1,109.9h-35.6c-3.5,0-6.4-2.8-6.5-6.3l-1-35.7c-0.1-3.6,2.7-6.6,6.3-6.7c3.6-0.1,6.6,2.7,6.7,6.3
			l0.8,29.4h29.2c3.6,0,6.5,2.9,6.5,6.5S273.7,109.9,270.1,109.9z"/>
	</g>
	<g>
		<path class="st2" d="M60.3,284.4c-1.7,0-3.3-0.6-4.6-1.9c-2.5-2.5-2.5-6.7,0-9.2L157,172c2.5-2.5,6.7-2.5,9.2,0
			c2.5,2.5,2.5,6.7,0,9.2L64.9,282.5C63.6,283.8,61.9,284.4,60.3,284.4z"/>
	</g>
	<g>
		<path class="st2" d="M103.4,276.6C103.4,276.6,103.4,276.6,103.4,276.6c-3.6,0-6.5-2.9-6.5-6.5l0-29.2l-29.4-0.8
			c-3.6-0.1-6.4-3.1-6.3-6.7c0.1-3.6,3.1-6.4,6.7-6.3l35.7,1c3.5,0.1,6.3,3,6.3,6.5l0,35.6C109.9,273.7,107,276.6,103.4,276.6z"/>
	</g>
	<g>
		<path class="st2" d="M144,237.6c-0.8,0-1.7-0.2-2.4-0.5c-2.4-1-4-3.3-4.1-5.9l-0.5-35.8c0-3.6,2.8-6.5,6.4-6.6
			c3.6-0.1,6.5,2.8,6.6,6.4l0.3,20.4l14.2-14.2c2.5-2.5,6.4-2.5,9-0.2l15.7,14.4l0.2-21c0-3.6,3-6.5,6.6-6.4c3.6,0,6.5,3,6.4,6.6
			l-0.3,35.6c0,2.6-1.6,4.9-3.9,5.9c-2.4,1-5.1,0.6-7-1.2L169.3,215l-20.7,20.7C147.4,236.9,145.7,237.6,144,237.6z"/>
	</g>
</g>
<g id="Слой_2">
</g>
</svg>
