<?xml version="1.0" encoding="utf-8"?>
<!-- Generator: Adobe Illustrator 21.1.0, SVG Export Plug-In . SVG Version: 6.00 Build 0)  -->
<svg version="1.1" xmlns="http://www.w3.org/2000/svg" xmlns:xlink="http://www.w3.org/1999/xlink" x="0px" y="0px"
	 viewBox="0 0 337.3 338" style="enable-background:new 0 0 337.3 338;" xml:space="preserve">
<style type="text/css">
	.st0{fill:none;stroke:#494949;stroke-width:13;stroke-linecap:round;stroke-linejoin:round;stroke-miterlimit:10;}
	.st1{fill:none;stroke:#494949;stroke-width:14.6363;stroke-linejoin:round;stroke-miterlimit:10;}
	.st2{fill:#494949;}
	.st3{fill:none;stroke:#494949;stroke-width:13;stroke-linejoin:round;stroke-miterlimit:10;}
	.st4{fill:none;stroke:#494949;stroke-width:13.34;stroke-linejoin:round;stroke-miterlimit:10;}
	.st5{fill:none;stroke:#000000;stroke-width:13;stroke-linejoin:round;stroke-miterlimit:10;}
	.st6{fill:none;stroke:#000000;stroke-width:14.6363;stroke-linejoin:round;stroke-miterlimit:10;}
	.st7{fill:none;stroke:#000000;stroke-width:13;stroke-linecap:round;stroke-linejoin:round;stroke-miterlimit:10;}
	.st8{fill:none;stroke:#000000;stroke-width:14.636;stroke-linecap:round;stroke-linejoin:round;stroke-miterlimit:10;}
	.st9{fill:none;stroke:#000000;stroke-width:12.4844;stroke-linejoin:round;stroke-miterlimit:10;}
	.st10{fill:none;stroke:#494949;stroke-width:12.1445;stroke-linejoin:round;stroke-miterlimit:10;}
	.st11{fill:none;stroke:#000000;stroke-width:12.1445;stroke-linejoin:round;stroke-miterlimit:10;}
	.st12{fill:none;stroke:#000000;stroke-width:11.2103;stroke-linejoin:round;stroke-miterlimit:10;}
	.st13{fill:none;stroke:#000000;stroke-width:12.3133;stroke-linecap:round;stroke-linejoin:round;stroke-miterlimit:10;}
	.st14{fill:none;stroke:#000000;stroke-width:10.2152;stroke-linejoin:round;stroke-miterlimit:10;}
	.st15{fill:none;stroke:#494949;stroke-width:14.636;stroke-linecap:round;stroke-linejoin:round;stroke-miterlimit:10;}
	.st16{fill:none;stroke:#000000;stroke-width:10;stroke-linecap:round;stroke-miterlimit:10;}
	.st17{filter:url(#Adobe_OpacityMaskFilter);}
	.st18{mask:url(#SVGID_1_);}
	.st19{filter:url(#Adobe_OpacityMaskFilter_1_);}
	.st20{mask:url(#SVGID_2_);}
	.st21{fill:none;stroke:#000000;stroke-width:13;stroke-linecap:round;stroke-miterlimit:10;}
	.st22{fill:none;stroke:#000000;stroke-width:11.0297;stroke-linecap:round;stroke-linejoin:round;stroke-miterlimit:10;}
	.st23{filter:url(#Adobe_OpacityMaskFilter_2_);}
	.st24{mask:url(#SVGID_3_);fill:none;stroke:#000000;stroke-width:11.0297;stroke-linecap:round;stroke-miterlimit:10;}
	.st25{fill:none;stroke:#000000;stroke-width:11.0297;stroke-linecap:round;stroke-miterlimit:10;}
	.st26{fill:none;stroke:#000000;stroke-width:11.9488;stroke-linecap:round;stroke-miterlimit:10;}
	.st27{filter:url(#Adobe_OpacityMaskFilter_3_);}
	.st28{fill:none;stroke:#FFFFFF;stroke-width:13;stroke-linejoin:round;stroke-miterlimit:10;}
	.st29{fill:none;stroke:#FFFFFF;stroke-width:10;stroke-linejoin:round;stroke-miterlimit:10;}
	.st30{mask:url(#SVGID_4_);fill:#020202;}
	.st31{fill:none;stroke:#000000;stroke-width:10;stroke-linecap:round;stroke-linejoin:round;stroke-miterlimit:10;}
	.st32{fill:none;stroke:#FFFFFF;stroke-width:10;stroke-linecap:round;stroke-linejoin:round;}
	.st33{fill:#FFFFFF;}
	.st34{fill:none;stroke:#000000;stroke-width:10;stroke-linecap:round;stroke-linejoin:round;}
	.st35{fill:none;stroke:#494949;stroke-width:10;stroke-linecap:round;stroke-miterlimit:10;}
	.st36{fill:none;stroke:#494949;stroke-width:12;stroke-linecap:round;stroke-miterlimit:10;}
	.st37{fill:none;stroke:#494949;stroke-width:12.9013;stroke-miterlimit:10;}
	.st38{fill:none;stroke:#494949;stroke-width:10;stroke-miterlimit:10;}
	.st39{fill:none;stroke:#00F9F2;stroke-width:5;stroke-miterlimit:10;}
	.st40{fill:#00F9F2;}
	.st41{fill:none;stroke:#494949;stroke-width:11;stroke-miterlimit:10;}
	.st42{fill:none;stroke:#494949;stroke-width:10;stroke-linejoin:round;stroke-miterlimit:10;}
	.st43{fill:none;stroke:#494949;stroke-width:12.8445;stroke-linecap:round;stroke-linejoin:round;stroke-miterlimit:10;}
	.st44{fill:none;stroke:#000000;stroke-width:9.9006;stroke-linecap:round;stroke-linejoin:round;}
	
		.st45{fill:none;stroke:#000000;stroke-width:9.9006;stroke-linecap:round;stroke-linejoin:round;stroke-dasharray:25.9068,25.9068;}
	
		.st46{fill:none;stroke:#000000;stroke-width:9.9006;stroke-linecap:round;stroke-linejoin:round;stroke-dasharray:39.7013,39.7013;}
	
		.st47{fill:none;stroke:#000000;stroke-width:9.9006;stroke-linecap:round;stroke-linejoin:round;stroke-dasharray:39.6982,39.6982;}
	.st48{fill:none;}
	.st49{fill:none;stroke:#494949;stroke-width:10;stroke-linecap:round;stroke-linejoin:round;}
	.st50{fill:none;stroke:#494949;stroke-width:10;stroke-linecap:round;stroke-linejoin:round;stroke-dasharray:29.277,27.7361;}
	.st51{fill:none;stroke:#494949;stroke-width:10;stroke-linecap:round;stroke-linejoin:round;stroke-dasharray:20.9682,19.8646;}
	.st52{fill:none;stroke:#494949;stroke-width:10;stroke-linecap:round;stroke-linejoin:round;stroke-dasharray:18.011,17.0631;}
	.st53{fill:none;stroke:#494949;stroke-width:13;stroke-linecap:round;stroke-miterlimit:10;}
	.st54{fill:none;stroke:#494949;stroke-width:10;stroke-linecap:round;stroke-linejoin:round;stroke-miterlimit:10;}
	.st55{fill:none;stroke:#494949;stroke-width:11.2762;stroke-linecap:round;stroke-linejoin:round;stroke-miterlimit:10;}
	.st56{fill:none;stroke:#494949;stroke-width:12.901;stroke-linecap:round;stroke-miterlimit:10;}
	.st57{fill:none;stroke:#494949;stroke-width:11.2103;stroke-linejoin:round;stroke-miterlimit:10;}
	.st58{fill:none;stroke:#494949;stroke-width:13;stroke-linecap:round;stroke-linejoin:round;}
	.st59{fill:none;stroke:#494949;stroke-width:9;stroke-linecap:round;stroke-miterlimit:10;}
	.st60{fill:none;stroke:#494949;stroke-width:12.5238;stroke-linecap:round;stroke-linejoin:round;stroke-miterlimit:10;}
	.st61{fill:none;stroke:#494949;stroke-width:13;stroke-linecap:round;stroke-linejoin:round;stroke-dasharray:0,24.2514,0,0,0,0;}
	.st62{fill:none;stroke:#494949;stroke-width:13;stroke-linecap:round;stroke-linejoin:round;stroke-dasharray:0,24.2003,0,0,0,0;}
	.st63{filter:url(#Adobe_OpacityMaskFilter_4_);}
	.st64{mask:url(#SVGID_5_);}
	.st65{filter:url(#Adobe_OpacityMaskFilter_5_);}
	.st66{mask:url(#SVGID_6_);}
	.st67{filter:url(#Adobe_OpacityMaskFilter_6_);}
	.st68{mask:url(#SVGID_7_);}
	.st69{filter:url(#Adobe_OpacityMaskFilter_7_);}
	.st70{fill:none;stroke:#494949;stroke-width:13.7883;stroke-linecap:round;stroke-linejoin:round;stroke-miterlimit:10;}
	.st71{fill:#494949;stroke:#494949;stroke-width:5;stroke-linecap:round;stroke-linejoin:round;stroke-miterlimit:10;}
	.st72{fill:#494949;stroke:#494949;stroke-width:10;stroke-linecap:round;stroke-linejoin:round;stroke-miterlimit:10;}
	.st73{fill:none;stroke:#494949;stroke-width:13.4738;stroke-linecap:round;stroke-linejoin:round;stroke-miterlimit:10;}
	.st74{fill:none;stroke:#494949;stroke-width:13.3712;stroke-linecap:round;stroke-miterlimit:10;}
	.st75{filter:url(#Adobe_OpacityMaskFilter_8_);}
	.st76{fill:none;stroke:#000000;stroke-width:11.6846;stroke-linecap:round;stroke-miterlimit:10;}
	.st77{fill:none;stroke:#000000;stroke-width:11.6846;stroke-linejoin:round;stroke-miterlimit:10;}
	.st78{mask:url(#SVGID_8_);fill:#494949;stroke:#494949;stroke-width:13;stroke-linejoin:round;stroke-miterlimit:10;}
	.st79{filter:url(#Adobe_OpacityMaskFilter_9_);}
	.st80{mask:url(#SVGID_9_);fill:#494949;stroke:#494949;stroke-width:13;stroke-linejoin:round;stroke-miterlimit:10;}
	.st81{fill:none;stroke:#494949;stroke-width:12.2229;stroke-linecap:round;stroke-linejoin:round;stroke-miterlimit:10;}
	.st82{filter:url(#Adobe_OpacityMaskFilter_10_);}
	.st83{mask:url(#SVGID_10_);}
	.st84{filter:url(#Adobe_OpacityMaskFilter_11_);}
	.st85{filter:url(#Adobe_OpacityMaskFilter_12_);}
	.st86{mask:url(#SVGID_11_);}
	.st87{filter:url(#Adobe_OpacityMaskFilter_13_);}
	.st88{mask:url(#SVGID_12_);}
	.st89{filter:url(#Adobe_OpacityMaskFilter_14_);}
	
		.st90{mask:url(#SVGID_13_);fill:none;stroke:#494949;stroke-width:13;stroke-linecap:round;stroke-linejoin:round;stroke-miterlimit:10;}
	.st91{filter:url(#Adobe_OpacityMaskFilter_15_);}
	
		.st92{mask:url(#SVGID_14_);fill:none;stroke:#494949;stroke-width:13;stroke-linecap:round;stroke-linejoin:round;stroke-miterlimit:10;}
	.st93{fill:none;stroke:#494949;stroke-width:13.54;stroke-linecap:round;stroke-linejoin:round;stroke-miterlimit:10;}
	.st94{fill:none;stroke:#494949;stroke-width:11.8606;stroke-linecap:round;stroke-linejoin:round;stroke-miterlimit:10;}
	.st95{fill:none;stroke:#494949;stroke-width:9.856;stroke-linecap:round;stroke-miterlimit:10;}
	.st96{fill:none;stroke:#494949;stroke-width:9.9275;stroke-linecap:round;stroke-miterlimit:10;}
	.st97{fill:none;stroke:#494949;stroke-width:10.0726;stroke-linecap:round;stroke-miterlimit:10;}
	.st98{fill:none;stroke:#494949;stroke-width:14.2824;stroke-linecap:round;stroke-linejoin:round;stroke-miterlimit:10;}
	.st99{fill:none;stroke:#494949;stroke-width:14.3433;stroke-linecap:round;stroke-linejoin:round;stroke-miterlimit:10;}
	.st100{fill:none;stroke:#494949;stroke-width:13;stroke-miterlimit:10;}
	.st101{filter:url(#Adobe_OpacityMaskFilter_16_);}
	
		.st102{mask:url(#SVGID_15_);fill:none;stroke:#494949;stroke-width:13;stroke-linecap:round;stroke-linejoin:round;stroke-miterlimit:10;}
	.st103{filter:url(#Adobe_OpacityMaskFilter_17_);}
	.st104{mask:url(#SVGID_16_);}
	.st105{fill:none;stroke:#494949;stroke-width:8;stroke-linecap:round;stroke-linejoin:round;stroke-miterlimit:10;}
	.st106{fill:none;stroke:#FFCB00;stroke-width:10;stroke-linecap:round;stroke-miterlimit:10;}
	.st107{fill:none;stroke:#038057;stroke-width:10;stroke-linecap:round;stroke-linejoin:round;stroke-miterlimit:10;}
	.st108{fill:none;stroke:#038057;stroke-width:9;stroke-linecap:round;stroke-linejoin:round;stroke-miterlimit:10;}
	.st109{fill:none;stroke:#FFCB00;stroke-width:10;stroke-linecap:round;stroke-linejoin:round;stroke-miterlimit:10;}
	.st110{filter:url(#Adobe_OpacityMaskFilter_18_);}
	
		.st111{mask:url(#SVGID_17_);fill:none;stroke:#038057;stroke-width:9;stroke-linecap:round;stroke-linejoin:round;stroke-miterlimit:10;}
	.st112{filter:url(#Adobe_OpacityMaskFilter_19_);}
	
		.st113{mask:url(#SVGID_18_);fill:none;stroke:#038057;stroke-width:9;stroke-linecap:round;stroke-linejoin:round;stroke-miterlimit:10;}
	.st114{fill:none;stroke:#FFCB00;stroke-width:9;stroke-linecap:round;stroke-linejoin:round;stroke-miterlimit:10;}
	.st115{filter:url(#Adobe_OpacityMaskFilter_20_);}
	.st116{mask:url(#SVGID_19_);}
	.st117{filter:url(#Adobe_OpacityMaskFilter_21_);}
	.st118{filter:url(#Adobe_OpacityMaskFilter_22_);}
	.st119{filter:url(#Adobe_OpacityMaskFilter_23_);}
	
		.st120{mask:url(#SVGID_20_);fill:none;stroke:#038057;stroke-width:9;stroke-linecap:round;stroke-linejoin:round;stroke-miterlimit:10;}
	.st121{fill:#FCFCFC;}
	.st122{fill:none;stroke:#FFCB00;stroke-width:8;stroke-linecap:round;stroke-linejoin:round;stroke-miterlimit:10;}
	.st123{fill:none;stroke:#FFCB00;stroke-width:7;stroke-linecap:round;stroke-linejoin:round;stroke-miterlimit:10;}
	.st124{fill:none;stroke:#FFCB00;stroke-width:5;stroke-linecap:round;stroke-miterlimit:10;}
	.st125{filter:url(#Adobe_OpacityMaskFilter_24_);}
	.st126{mask:url(#SVGID_21_);}
	.st127{filter:url(#Adobe_OpacityMaskFilter_25_);}
	.st128{filter:url(#Adobe_OpacityMaskFilter_26_);}
	.st129{fill:none;stroke:#038057;stroke-width:11;stroke-linecap:round;stroke-linejoin:round;stroke-miterlimit:10;}
	.st130{filter:url(#Adobe_OpacityMaskFilter_27_);}
	
		.st131{mask:url(#SVGID_22_);fill:none;stroke:#038057;stroke-width:11;stroke-linecap:round;stroke-linejoin:round;stroke-miterlimit:10;}
	.st132{fill:none;stroke:#FFCB00;stroke-width:11;stroke-linecap:round;stroke-linejoin:round;stroke-miterlimit:10;}
	.st133{fill:none;stroke:#038057;stroke-width:8;stroke-linecap:round;stroke-linejoin:round;stroke-miterlimit:10;}
	.st134{fill:#038057;}
	.st135{fill:#FFCB00;}
	.st136{fill:none;stroke:#494949;stroke-width:13;stroke-linecap:round;stroke-linejoin:round;stroke-dasharray:22.6216,22.6216;}
	.st137{fill:none;stroke:#494949;stroke-width:13;stroke-linecap:round;stroke-linejoin:round;stroke-dasharray:26.985,26.985;}
	.st138{fill:none;stroke:#494949;stroke-width:13;stroke-linecap:round;stroke-linejoin:round;stroke-dasharray:26.9622,26.9622;}
	.st139{fill:none;stroke:#494949;stroke-width:11.0534;stroke-linecap:round;stroke-linejoin:round;stroke-miterlimit:10;}
	.st140{fill:none;stroke:#494949;stroke-width:11.7237;stroke-linecap:round;stroke-linejoin:round;stroke-miterlimit:10;}
	.st141{fill:none;stroke:#494949;stroke-width:8.8696;stroke-linecap:round;stroke-linejoin:round;stroke-miterlimit:10;}
	.st142{filter:url(#Adobe_OpacityMaskFilter_28_);}
	.st143{mask:url(#SVGID_23_);fill:none;stroke:#494949;stroke-width:13;stroke-miterlimit:10;}
	.st144{filter:url(#Adobe_OpacityMaskFilter_29_);}
	.st145{mask:url(#SVGID_24_);}
	.st146{filter:url(#Adobe_OpacityMaskFilter_30_);}
	.st147{mask:url(#SVGID_25_);}
	.st148{filter:url(#Adobe_OpacityMaskFilter_31_);}
	.st149{fill:#494949;stroke:#494949;stroke-width:13;stroke-linejoin:round;stroke-miterlimit:10;}
	.st150{filter:url(#Adobe_OpacityMaskFilter_32_);}
	.st151{mask:url(#SVGID_26_);fill:#494949;stroke:#494949;stroke-width:13;stroke-linejoin:round;stroke-miterlimit:10;}
	.st152{fill:none;stroke:#FFFFFF;stroke-width:11.6846;stroke-linecap:round;stroke-miterlimit:10;}
	.st153{filter:url(#Adobe_OpacityMaskFilter_33_);}
	.st154{mask:url(#SVGID_27_);}
	.st155{fill:none;stroke:#494949;stroke-width:11.6846;stroke-linecap:round;stroke-miterlimit:10;}
</style>
<g id="Слой_1">
	<g>
		<g>
			<path class="st2" d="M232.2,274.3c-3.5,0-6.4-2.9-6.5-6.4c0-3.6,2.8-6.5,6.4-6.6c12.8-0.2,25.6-2.2,37.8-6.2
				c12.2-3.9,23.7-9.5,34.2-16.8c3-2,7-1.3,9,1.7c2,3,1.3,7-1.7,9c-11.6,8-24.2,14.2-37.6,18.5C260.5,271.9,246.5,274.1,232.2,274.3
				C232.3,274.3,232.3,274.3,232.2,274.3z"/>
		</g>
		<g>
			<g>
				<polygon class="st2" points="190,268.4 249.2,243.3 235.4,267.8 249.9,291.9 				"/>
			</g>
		</g>
	</g>
	<g>
		<path class="st2" d="M176.8,238.7c-1.4,0-2.7,0-4.1,0c-53.1-0.7-111.1-14.8-126.6-30.8c-3.4-3.5-5.1-7.3-5.1-11.3
			c0.2-12.5,17.8-21.7,58.9-30.9l2.8,12.7c-46.3,10.4-48.6,18.2-48.7,18.5c0.2,1.6,7.1,9.4,36.9,17.6c24.4,6.7,55,10.9,82,11.2
			c29.3,0.4,61.6-3.4,88.6-10.5c31.8-8.2,39.4-16.5,39.8-18.4c-0.2-0.7-3.8-8.4-49.2-18.3l2.8-12.7c41.4,9,59.2,18.2,59.4,30.8
			c0.1,4-1.7,7.9-5.3,11.5C292.6,224.7,231.5,238.7,176.8,238.7z"/>
	</g>
	<g>
		<path class="st2" d="M91,194.5c0,0-0.1,0-0.1,0c-3.6-0.1-6.4-3-6.4-6.6c0.3-15.2,1.6-30.5,4-45.5C91.1,126,95,109.7,100,94
			c1.1-3.4,4.7-5.3,8.2-4.2c3.4,1.1,5.3,4.7,4.2,8.2c-4.8,15.1-8.5,30.8-11,46.5c-2.3,14.4-3.6,29.1-3.9,43.8
			C97.5,191.7,94.6,194.5,91,194.5z"/>
	</g>
	<g>
		<path class="st2" d="M264.4,193.8c-3.5,0-6.4-2.7-6.5-6.2c-0.6-15.8-2.4-31.7-5.3-47.2c-2.9-15.4-6.9-30.8-11.9-45.7
			c-1.2-3.4,0.7-7.1,4.1-8.2c3.4-1.2,7.1,0.7,8.2,4.1c5.2,15.5,9.4,31.4,12.4,47.5c3,16.2,4.8,32.7,5.5,49.1
			c0.1,3.6-2.7,6.6-6.2,6.8C264.6,193.8,264.5,193.8,264.4,193.8z"/>
	</g>
	<g>
		<path class="st2" d="M106.2,102.4c-0.7,0-1.4-0.1-2.1-0.4c-3.4-1.2-5.2-4.9-4-8.3c6.7-19.2,16.1-30.9,27.9-34.7
			c10.6-3.5,18.5,0.7,26,4.7c6.3,3.3,12.8,6.8,22.3,6.9c10.1,0.2,17.1-3.4,23.9-6.9c8.1-4.1,16.6-8.4,27.5-4.3
			c10.7,4,19.2,14.4,25.2,30.9c1.2,3.4-0.5,7.1-3.9,8.3c-3.4,1.2-7.1-0.5-8.3-3.9c-4.6-12.8-10.5-20.6-17.4-23.2
			c-5.4-2-9.6-0.1-17.1,3.7c-7.5,3.8-16.8,8.5-30.1,8.3c-12.7-0.2-21.3-4.8-28.2-8.4c-7.1-3.8-10.8-5.5-15.9-3.8
			c-7.7,2.5-14.5,11.7-19.7,26.7C111.4,100.7,108.9,102.4,106.2,102.4z"/>
	</g>
	<g>
		<path class="st2" d="M92.4,164.9c20.9,5.4,49,10.4,82.4,10.4c35.9,0,65.9-5.8,87.6-11.8c1.2,9.9,2.4,19.8,3.6,29.7
			c-20.9,6.8-52.3,14.4-91,14.2c-35.9-0.2-65.4-7.2-85.5-13.6C90.4,184.2,91.4,174.6,92.4,164.9z"/>
	</g>
	<g>
		<g>
			<path class="st2" d="M123.9,272.5C123.9,272.5,123.9,272.5,123.9,272.5c-14.2-0.2-28.2-2.5-41.7-6.8
				c-13.4-4.3-26.1-10.5-37.6-18.5c-3-2-3.7-6.1-1.7-9c2-3,6.1-3.7,9-1.7c10.5,7.3,22,12.9,34.2,16.8c12.2,3.9,25,6,37.8,6.2
				c3.6,0,6.5,3,6.4,6.6C130.4,269.6,127.5,272.5,123.9,272.5z"/>
		</g>
		<g>
			<g>
				<polygon class="st2" points="166.1,266.6 106.3,290.1 120.8,266 107,241.5 				"/>
			</g>
		</g>
	</g>
</g>
<g id="Слой_2">
</g>
</svg>
