<?xml version="1.0" encoding="utf-8"?>
<!-- Generator: Adobe Illustrator 21.1.0, SVG Export Plug-In . SVG Version: 6.00 Build 0)  -->
<svg version="1.1" xmlns="http://www.w3.org/2000/svg" xmlns:xlink="http://www.w3.org/1999/xlink" x="0px" y="0px"
	 viewBox="0 0 337.3 338" style="enable-background:new 0 0 337.3 338;" xml:space="preserve">
<style type="text/css">
	.st0{fill:none;stroke:#494949;stroke-width:13;stroke-linecap:round;stroke-linejoin:round;stroke-miterlimit:10;}
	.st1{fill:none;stroke:#494949;stroke-width:14.6363;stroke-linejoin:round;stroke-miterlimit:10;}
	.st2{fill:#494949;}
	.st3{fill:none;stroke:#494949;stroke-width:13;stroke-linejoin:round;stroke-miterlimit:10;}
	.st4{fill:none;stroke:#494949;stroke-width:13.34;stroke-linejoin:round;stroke-miterlimit:10;}
	.st5{fill:none;stroke:#000000;stroke-width:13;stroke-linejoin:round;stroke-miterlimit:10;}
	.st6{fill:none;stroke:#000000;stroke-width:14.6363;stroke-linejoin:round;stroke-miterlimit:10;}
	.st7{fill:none;stroke:#000000;stroke-width:13;stroke-linecap:round;stroke-linejoin:round;stroke-miterlimit:10;}
	.st8{fill:none;stroke:#000000;stroke-width:14.636;stroke-linecap:round;stroke-linejoin:round;stroke-miterlimit:10;}
	.st9{fill:none;stroke:#000000;stroke-width:12.4844;stroke-linejoin:round;stroke-miterlimit:10;}
	.st10{fill:none;stroke:#494949;stroke-width:12.1445;stroke-linejoin:round;stroke-miterlimit:10;}
	.st11{fill:none;stroke:#000000;stroke-width:12.1445;stroke-linejoin:round;stroke-miterlimit:10;}
	.st12{fill:none;stroke:#000000;stroke-width:11.2103;stroke-linejoin:round;stroke-miterlimit:10;}
	.st13{fill:none;stroke:#000000;stroke-width:12.3133;stroke-linecap:round;stroke-linejoin:round;stroke-miterlimit:10;}
	.st14{fill:none;stroke:#000000;stroke-width:10.2152;stroke-linejoin:round;stroke-miterlimit:10;}
	.st15{fill:none;stroke:#494949;stroke-width:14.636;stroke-linecap:round;stroke-linejoin:round;stroke-miterlimit:10;}
	.st16{fill:none;stroke:#000000;stroke-width:10;stroke-linecap:round;stroke-miterlimit:10;}
	.st17{filter:url(#Adobe_OpacityMaskFilter);}
	.st18{mask:url(#SVGID_1_);}
	.st19{filter:url(#Adobe_OpacityMaskFilter_1_);}
	.st20{mask:url(#SVGID_2_);}
	.st21{fill:none;stroke:#000000;stroke-width:13;stroke-linecap:round;stroke-miterlimit:10;}
	.st22{fill:none;stroke:#000000;stroke-width:11.0297;stroke-linecap:round;stroke-linejoin:round;stroke-miterlimit:10;}
	.st23{filter:url(#Adobe_OpacityMaskFilter_2_);}
	.st24{mask:url(#SVGID_3_);fill:none;stroke:#000000;stroke-width:11.0297;stroke-linecap:round;stroke-miterlimit:10;}
	.st25{fill:none;stroke:#000000;stroke-width:11.0297;stroke-linecap:round;stroke-miterlimit:10;}
	.st26{fill:none;stroke:#000000;stroke-width:11.9488;stroke-linecap:round;stroke-miterlimit:10;}
	.st27{filter:url(#Adobe_OpacityMaskFilter_3_);}
	.st28{fill:none;stroke:#FFFFFF;stroke-width:13;stroke-linejoin:round;stroke-miterlimit:10;}
	.st29{fill:none;stroke:#FFFFFF;stroke-width:10;stroke-linejoin:round;stroke-miterlimit:10;}
	.st30{mask:url(#SVGID_4_);fill:#020202;}
	.st31{fill:none;stroke:#000000;stroke-width:10;stroke-linecap:round;stroke-linejoin:round;stroke-miterlimit:10;}
	.st32{fill:none;stroke:#FFFFFF;stroke-width:10;stroke-linecap:round;stroke-linejoin:round;}
	.st33{fill:#FFFFFF;}
	.st34{fill:none;stroke:#000000;stroke-width:10;stroke-linecap:round;stroke-linejoin:round;}
	.st35{fill:none;stroke:#494949;stroke-width:10;stroke-linecap:round;stroke-miterlimit:10;}
	.st36{fill:none;stroke:#494949;stroke-width:12;stroke-linecap:round;stroke-miterlimit:10;}
	.st37{fill:none;stroke:#494949;stroke-width:12.9013;stroke-miterlimit:10;}
	.st38{fill:none;stroke:#494949;stroke-width:10;stroke-miterlimit:10;}
	.st39{fill:none;stroke:#00F9F2;stroke-width:5;stroke-miterlimit:10;}
	.st40{fill:#00F9F2;}
	.st41{fill:none;stroke:#494949;stroke-width:11;stroke-miterlimit:10;}
	.st42{fill:none;stroke:#494949;stroke-width:10;stroke-linejoin:round;stroke-miterlimit:10;}
	.st43{fill:none;stroke:#494949;stroke-width:12.8445;stroke-linecap:round;stroke-linejoin:round;stroke-miterlimit:10;}
	.st44{fill:none;stroke:#000000;stroke-width:9.9006;stroke-linecap:round;stroke-linejoin:round;}
	
		.st45{fill:none;stroke:#000000;stroke-width:9.9006;stroke-linecap:round;stroke-linejoin:round;stroke-dasharray:25.9068,25.9068;}
	
		.st46{fill:none;stroke:#000000;stroke-width:9.9006;stroke-linecap:round;stroke-linejoin:round;stroke-dasharray:39.7013,39.7013;}
	
		.st47{fill:none;stroke:#000000;stroke-width:9.9006;stroke-linecap:round;stroke-linejoin:round;stroke-dasharray:39.6982,39.6982;}
	.st48{fill:none;}
	.st49{fill:none;stroke:#494949;stroke-width:10;stroke-linecap:round;stroke-linejoin:round;}
	.st50{fill:none;stroke:#494949;stroke-width:10;stroke-linecap:round;stroke-linejoin:round;stroke-dasharray:29.277,27.7361;}
	.st51{fill:none;stroke:#494949;stroke-width:10;stroke-linecap:round;stroke-linejoin:round;stroke-dasharray:20.9682,19.8646;}
	.st52{fill:none;stroke:#494949;stroke-width:10;stroke-linecap:round;stroke-linejoin:round;stroke-dasharray:18.011,17.0631;}
	.st53{fill:none;stroke:#494949;stroke-width:13;stroke-linecap:round;stroke-miterlimit:10;}
	.st54{fill:none;stroke:#494949;stroke-width:10;stroke-linecap:round;stroke-linejoin:round;stroke-miterlimit:10;}
	.st55{fill:none;stroke:#494949;stroke-width:11.2762;stroke-linecap:round;stroke-linejoin:round;stroke-miterlimit:10;}
	.st56{fill:none;stroke:#494949;stroke-width:12.901;stroke-linecap:round;stroke-miterlimit:10;}
	.st57{fill:none;stroke:#494949;stroke-width:11.2103;stroke-linejoin:round;stroke-miterlimit:10;}
	.st58{fill:none;stroke:#494949;stroke-width:13;stroke-linecap:round;stroke-linejoin:round;}
	.st59{fill:none;stroke:#494949;stroke-width:9;stroke-linecap:round;stroke-miterlimit:10;}
	.st60{fill:none;stroke:#494949;stroke-width:12.5238;stroke-linecap:round;stroke-linejoin:round;stroke-miterlimit:10;}
	.st61{fill:none;stroke:#494949;stroke-width:13;stroke-linecap:round;stroke-linejoin:round;stroke-dasharray:0,24.2514,0,0,0,0;}
	.st62{fill:none;stroke:#494949;stroke-width:13;stroke-linecap:round;stroke-linejoin:round;stroke-dasharray:0,24.2003,0,0,0,0;}
	.st63{filter:url(#Adobe_OpacityMaskFilter_4_);}
	.st64{mask:url(#SVGID_5_);}
	.st65{filter:url(#Adobe_OpacityMaskFilter_5_);}
	.st66{mask:url(#SVGID_6_);}
	.st67{filter:url(#Adobe_OpacityMaskFilter_6_);}
	.st68{mask:url(#SVGID_7_);}
	.st69{filter:url(#Adobe_OpacityMaskFilter_7_);}
	.st70{fill:none;stroke:#494949;stroke-width:13.7883;stroke-linecap:round;stroke-linejoin:round;stroke-miterlimit:10;}
	.st71{fill:#494949;stroke:#494949;stroke-width:5;stroke-linecap:round;stroke-linejoin:round;stroke-miterlimit:10;}
	.st72{fill:#494949;stroke:#494949;stroke-width:10;stroke-linecap:round;stroke-linejoin:round;stroke-miterlimit:10;}
	.st73{fill:none;stroke:#494949;stroke-width:13.4738;stroke-linecap:round;stroke-linejoin:round;stroke-miterlimit:10;}
	.st74{fill:none;stroke:#494949;stroke-width:13.3712;stroke-linecap:round;stroke-miterlimit:10;}
	.st75{filter:url(#Adobe_OpacityMaskFilter_8_);}
	.st76{fill:none;stroke:#000000;stroke-width:11.6846;stroke-linecap:round;stroke-miterlimit:10;}
	.st77{fill:none;stroke:#000000;stroke-width:11.6846;stroke-linejoin:round;stroke-miterlimit:10;}
	.st78{mask:url(#SVGID_8_);fill:#494949;stroke:#494949;stroke-width:13;stroke-linejoin:round;stroke-miterlimit:10;}
	.st79{filter:url(#Adobe_OpacityMaskFilter_9_);}
	.st80{mask:url(#SVGID_9_);fill:#494949;stroke:#494949;stroke-width:13;stroke-linejoin:round;stroke-miterlimit:10;}
	.st81{fill:none;stroke:#494949;stroke-width:12.2229;stroke-linecap:round;stroke-linejoin:round;stroke-miterlimit:10;}
	.st82{filter:url(#Adobe_OpacityMaskFilter_10_);}
	.st83{mask:url(#SVGID_10_);}
	.st84{filter:url(#Adobe_OpacityMaskFilter_11_);}
	.st85{filter:url(#Adobe_OpacityMaskFilter_12_);}
	.st86{mask:url(#SVGID_11_);}
	.st87{filter:url(#Adobe_OpacityMaskFilter_13_);}
	.st88{mask:url(#SVGID_12_);}
	.st89{filter:url(#Adobe_OpacityMaskFilter_14_);}
	
		.st90{mask:url(#SVGID_13_);fill:none;stroke:#494949;stroke-width:13;stroke-linecap:round;stroke-linejoin:round;stroke-miterlimit:10;}
	.st91{filter:url(#Adobe_OpacityMaskFilter_15_);}
	
		.st92{mask:url(#SVGID_14_);fill:none;stroke:#494949;stroke-width:13;stroke-linecap:round;stroke-linejoin:round;stroke-miterlimit:10;}
	.st93{fill:none;stroke:#494949;stroke-width:13.54;stroke-linecap:round;stroke-linejoin:round;stroke-miterlimit:10;}
	.st94{fill:none;stroke:#494949;stroke-width:11.8606;stroke-linecap:round;stroke-linejoin:round;stroke-miterlimit:10;}
	.st95{fill:none;stroke:#494949;stroke-width:9.856;stroke-linecap:round;stroke-miterlimit:10;}
	.st96{fill:none;stroke:#494949;stroke-width:9.9275;stroke-linecap:round;stroke-miterlimit:10;}
	.st97{fill:none;stroke:#494949;stroke-width:10.0726;stroke-linecap:round;stroke-miterlimit:10;}
	.st98{fill:none;stroke:#494949;stroke-width:14.2824;stroke-linecap:round;stroke-linejoin:round;stroke-miterlimit:10;}
	.st99{fill:none;stroke:#494949;stroke-width:14.3433;stroke-linecap:round;stroke-linejoin:round;stroke-miterlimit:10;}
	.st100{fill:none;stroke:#494949;stroke-width:13;stroke-miterlimit:10;}
	.st101{filter:url(#Adobe_OpacityMaskFilter_16_);}
	
		.st102{mask:url(#SVGID_15_);fill:none;stroke:#494949;stroke-width:13;stroke-linecap:round;stroke-linejoin:round;stroke-miterlimit:10;}
	.st103{filter:url(#Adobe_OpacityMaskFilter_17_);}
	.st104{mask:url(#SVGID_16_);}
	.st105{fill:none;stroke:#494949;stroke-width:8;stroke-linecap:round;stroke-linejoin:round;stroke-miterlimit:10;}
	.st106{fill:none;stroke:#FFCB00;stroke-width:10;stroke-linecap:round;stroke-miterlimit:10;}
	.st107{fill:none;stroke:#038057;stroke-width:10;stroke-linecap:round;stroke-linejoin:round;stroke-miterlimit:10;}
	.st108{fill:none;stroke:#038057;stroke-width:9;stroke-linecap:round;stroke-linejoin:round;stroke-miterlimit:10;}
	.st109{fill:none;stroke:#FFCB00;stroke-width:10;stroke-linecap:round;stroke-linejoin:round;stroke-miterlimit:10;}
	.st110{filter:url(#Adobe_OpacityMaskFilter_18_);}
	
		.st111{mask:url(#SVGID_17_);fill:none;stroke:#038057;stroke-width:9;stroke-linecap:round;stroke-linejoin:round;stroke-miterlimit:10;}
	.st112{filter:url(#Adobe_OpacityMaskFilter_19_);}
	
		.st113{mask:url(#SVGID_18_);fill:none;stroke:#038057;stroke-width:9;stroke-linecap:round;stroke-linejoin:round;stroke-miterlimit:10;}
	.st114{fill:none;stroke:#FFCB00;stroke-width:9;stroke-linecap:round;stroke-linejoin:round;stroke-miterlimit:10;}
	.st115{filter:url(#Adobe_OpacityMaskFilter_20_);}
	.st116{mask:url(#SVGID_19_);}
	.st117{filter:url(#Adobe_OpacityMaskFilter_21_);}
	.st118{filter:url(#Adobe_OpacityMaskFilter_22_);}
	.st119{filter:url(#Adobe_OpacityMaskFilter_23_);}
	
		.st120{mask:url(#SVGID_20_);fill:none;stroke:#038057;stroke-width:9;stroke-linecap:round;stroke-linejoin:round;stroke-miterlimit:10;}
	.st121{fill:#FCFCFC;}
	.st122{fill:none;stroke:#FFCB00;stroke-width:8;stroke-linecap:round;stroke-linejoin:round;stroke-miterlimit:10;}
	.st123{fill:none;stroke:#FFCB00;stroke-width:7;stroke-linecap:round;stroke-linejoin:round;stroke-miterlimit:10;}
	.st124{fill:none;stroke:#FFCB00;stroke-width:5;stroke-linecap:round;stroke-miterlimit:10;}
	.st125{filter:url(#Adobe_OpacityMaskFilter_24_);}
	.st126{mask:url(#SVGID_21_);}
	.st127{filter:url(#Adobe_OpacityMaskFilter_25_);}
	.st128{filter:url(#Adobe_OpacityMaskFilter_26_);}
	.st129{fill:none;stroke:#038057;stroke-width:11;stroke-linecap:round;stroke-linejoin:round;stroke-miterlimit:10;}
	.st130{filter:url(#Adobe_OpacityMaskFilter_27_);}
	
		.st131{mask:url(#SVGID_22_);fill:none;stroke:#038057;stroke-width:11;stroke-linecap:round;stroke-linejoin:round;stroke-miterlimit:10;}
	.st132{fill:none;stroke:#FFCB00;stroke-width:11;stroke-linecap:round;stroke-linejoin:round;stroke-miterlimit:10;}
	.st133{fill:none;stroke:#038057;stroke-width:8;stroke-linecap:round;stroke-linejoin:round;stroke-miterlimit:10;}
	.st134{fill:#038057;}
	.st135{fill:#FFCB00;}
	.st136{fill:none;stroke:#494949;stroke-width:13;stroke-linecap:round;stroke-linejoin:round;stroke-dasharray:22.6216,22.6216;}
	.st137{fill:none;stroke:#494949;stroke-width:13;stroke-linecap:round;stroke-linejoin:round;stroke-dasharray:26.985,26.985;}
	.st138{fill:none;stroke:#494949;stroke-width:13;stroke-linecap:round;stroke-linejoin:round;stroke-dasharray:26.9622,26.9622;}
	.st139{fill:none;stroke:#494949;stroke-width:11.0534;stroke-linecap:round;stroke-linejoin:round;stroke-miterlimit:10;}
	.st140{fill:none;stroke:#494949;stroke-width:11.7237;stroke-linecap:round;stroke-linejoin:round;stroke-miterlimit:10;}
	.st141{fill:none;stroke:#494949;stroke-width:8.8696;stroke-linecap:round;stroke-linejoin:round;stroke-miterlimit:10;}
	.st142{filter:url(#Adobe_OpacityMaskFilter_28_);}
	.st143{mask:url(#SVGID_23_);fill:none;stroke:#494949;stroke-width:13;stroke-miterlimit:10;}
	.st144{filter:url(#Adobe_OpacityMaskFilter_29_);}
	.st145{mask:url(#SVGID_24_);}
	.st146{filter:url(#Adobe_OpacityMaskFilter_30_);}
	.st147{mask:url(#SVGID_25_);}
	.st148{filter:url(#Adobe_OpacityMaskFilter_31_);}
	.st149{fill:#494949;stroke:#494949;stroke-width:13;stroke-linejoin:round;stroke-miterlimit:10;}
	.st150{filter:url(#Adobe_OpacityMaskFilter_32_);}
	.st151{mask:url(#SVGID_26_);fill:#494949;stroke:#494949;stroke-width:13;stroke-linejoin:round;stroke-miterlimit:10;}
	.st152{fill:none;stroke:#FFFFFF;stroke-width:11.6846;stroke-linecap:round;stroke-miterlimit:10;}
	.st153{filter:url(#Adobe_OpacityMaskFilter_33_);}
	.st154{mask:url(#SVGID_27_);}
	.st155{fill:none;stroke:#494949;stroke-width:11.6846;stroke-linecap:round;stroke-miterlimit:10;}
</style>
<g id="Слой_1">
	<g>
		<path class="st2" d="M158.1,291.8c-15.4,0-32.1-1.3-49.6-4.5c-29.5-5.3-52.6-14.8-72.7-29.7c-12.6-9.3-29.8-22-29.5-40.9
			c0.3-18.8,17.6-31.9,26.9-39c9.3-7,19.8-12.1,31.3-15.1l3.3,12.6c-9.9,2.6-18.9,6.9-26.8,12.9c-7.5,5.7-21.6,16.3-21.8,28.8
			c-0.2,11.3,10.9,20.4,24.2,30.3c18.5,13.7,39.9,22.4,67.3,27.3c59.7,10.8,108.5-1.5,132.2-9.7c30.2-10.5,51.9-24.7,66.4-43.2
			c5-6.4,15.3-19.6,11.8-30.5c-2-6.4-8.1-10.4-14.7-14.7c-9.6-6.3-20.6-10-32.7-11l1.1-13c14.4,1.2,27.4,5.6,38.8,13.1
			c7.4,4.8,16.5,10.9,19.9,21.6c5.5,17.4-7.7,34.3-14,42.4c-16,20.6-39.7,36.1-72.4,47.5C229.3,283.3,197.8,291.8,158.1,291.8z"/>
	</g>
	<g>
		<path class="st2" d="M158.4,256.9c-4.7,0-9.7-0.1-14.9-0.5c-2.2-0.1-55.1-3.6-80.9-27.8c-3.9-3.6-6-7.8-6.3-8.3
			c-3.9-7.8-3-15.2-2.7-18.1c1-9.2,2.5-16.5,4-23.6c0.8-3.8,1.5-7.3,2.1-11c0.5-3.2,1-6.4,1.4-9.5c1.1-7.7,2.2-15.6,4.8-24.2
			c0.8-2.8,2.3-7.1,5.5-11.8c0.4-0.6,4.3-6.2,10.6-10.6c26.4-18.7,80.9-23.6,83.2-23.8c2.1-0.2,51-4.3,81.5,7.9
			c7.9,3.1,12.9,8.1,13.4,8.6c3.4,3.5,5.5,7.1,6.4,8.6c2.8,4.8,4.1,8.9,4.5,10.2c3.8,11.7,6.3,21.5,9.2,32.9
			c2.4,9.6,5.2,20.5,9.3,34.4c0.9,3.2,3.3,11.5-0.1,20.2c-2.2,5.5-5.8,8.8-7,9.9c-28.3,26.2-84.5,33.4-86.8,33.7
			C186.7,255.4,174.3,256.9,158.4,256.9z M68,214.6c0,0,1.3,2.5,3.5,4.6c22.4,21,72.3,24.3,72.8,24.3c21.9,1.3,38.7-0.7,49.8-2.1
			c0.5-0.1,54.4-7,79.6-30.4c0.8-0.7,2.6-2.4,3.7-5.2c1.8-4.6,0.4-9.4-0.3-11.8c-4.1-14.1-6.9-25.1-9.4-34.8
			c-2.9-11.2-5.3-20.9-9-32.1c-0.4-1.2-1.3-4.2-3.4-7.7c-0.7-1.2-2.2-3.8-4.5-6.1c0,0-3.6-3.5-9-5.7c-27.6-11-75.1-7-75.5-7
			c-0.5,0-53.3,4.8-76.8,21.5c-4.5,3.2-7.4,7.3-7.4,7.4c0,0,0,0,0,0c-2.4,3.5-3.4,6.8-3.8,8.2c-2.3,7.7-3.3,14.8-4.3,22.3
			c-0.4,3.2-0.9,6.5-1.5,9.9c-0.7,3.9-1.4,7.6-2.2,11.5c-1.4,6.8-2.8,13.8-3.8,22.4C66.4,205.8,65.8,210.3,68,214.6L68,214.6z
			 M76.9,125.9L76.9,125.9L76.9,125.9z"/>
	</g>
	<g>
		<path class="st2" d="M159,164c-0.7,0-1.5,0-2.2,0c-33.5-0.3-50.3-8.4-60-14.4c-11.4-7-17.2-14.3-17.1-21.6
			c0.2-12,13.6-19.1,16.3-20.4c2.5-1.2,5.5-0.2,6.7,2.3c1.2,2.5,0.2,5.5-2.3,6.7c-3.7,1.8-10.6,6.5-10.7,11.6
			c0,1.2,0.8,5.8,12.3,12.9c8.7,5.4,23.9,12.6,54.9,12.9c26,0.3,49.9-4.4,70.9-13.9c10.8-4.9,25.6-11.6,25.6-18.8
			c0.1-5.7-8.3-11.9-15.5-15.4c-2.5-1.2-3.5-4.2-2.3-6.7c1.2-2.5,4.2-3.5,6.7-2.3c6.4,3.1,21.2,11.8,21.1,24.5
			c-0.1,13.6-16.8,21.2-31.5,27.8C210.2,159,185.6,164,159,164z"/>
	</g>
	<g>
		<path class="st2" d="M104.5,127.6c4,0.9,7.8,1.8,11.7,2.7c3.9,0.9,7.7,1.7,11.6,2.5c3.9,0.8,7.7,1.5,11.6,2.1
			c3.9,0.6,7.7,1.1,11.6,1.5c3.9,0.4,7.8,0.6,11.7,0.7c3.9,0.1,7.8,0,11.7-0.1c7.8-0.3,15.7-1.1,23.4-2.3c7.8-1.3,15.5-2.9,22.9-5.2
			c3.7-1.2,7.3-2.5,10.7-4.1c1.7-0.8,3.3-1.6,4.7-2.6c0.7-0.5,1.4-0.9,1.9-1.4c0.5-0.5,1-0.9,1.2-1.2c0.2-0.3,0.1-0.3,0.2,0.1
			c0.1,0.2,0.1,0.2,0.1,0.2c-0.1-0.1,0-0.1-0.2-0.3c-0.1-0.1-0.1-0.2-0.2-0.3l-0.4-0.3c-0.2-0.2-0.5-0.4-0.8-0.6l-0.5-0.3l-0.5-0.3
			c-0.4-0.2-0.7-0.4-1.1-0.6c-3.2-1.6-6.9-2.9-10.6-4.1c-7.5-2.3-15.4-4.1-23.2-5.8l0,0c-1.5-0.3-2.5-1.8-2.1-3.3
			c0.3-1.4,1.6-2.3,3-2.2c2,0.2,4.1,0.4,6.1,0.7l6.1,0.8c4.1,0.6,8.1,1.3,12.2,2.2c4.1,1,8.1,2,12.3,3.8c0.5,0.2,1.1,0.5,1.6,0.8
			l0.8,0.4l0.8,0.5c0.5,0.3,1.1,0.6,1.6,1.1l0.8,0.6c0.3,0.2,0.6,0.5,0.8,0.8c0.5,0.5,1.1,1.3,1.6,2.1c0.5,0.9,0.9,1.9,1,3.1
			c0.2,1.1,0.1,2.3-0.2,3.3c-0.3,1-0.7,1.8-1.1,2.5c-0.8,1.4-1.8,2.5-2.7,3.4c-0.9,0.9-1.9,1.7-2.9,2.3c-1.9,1.4-3.8,2.5-5.8,3.5
			c-3.9,2-7.8,3.6-11.8,5c-8,2.8-16,4.9-24.2,6.4c-16.3,3.1-33.2,4.2-49.9,2.2c-8.3-1-16.6-2.6-24.5-5.1c-4-1.3-7.9-2.8-11.7-4.5
			c-3.8-1.7-7.5-3.7-11-6c-1.1-0.7-1.5-2.3-0.7-3.4C102.4,127.8,103.5,127.4,104.5,127.6L104.5,127.6z"/>
	</g>
	<g>
		<path class="st2" d="M164.8,213.6c-28.8,0-51.2-5.8-60.6-8.6c-15-4.6-29.6-11.1-43.4-19.2c-3.1-1.8-4.1-5.8-2.3-8.9
			c1.8-3.1,5.8-4.1,8.9-2.3c13,7.6,26.6,13.7,40.6,18c16.2,5,73.5,19,133.3-8c11.4-5.1,22.3-11.5,32.4-18.9c2.9-2.1,7-1.5,9.1,1.4
			c2.1,2.9,1.5,7-1.4,9.1c-10.8,7.9-22.5,14.7-34.7,20.3C217.5,209.5,188.9,213.6,164.8,213.6z"/>
	</g>
</g>
<g id="Слой_2">
</g>
</svg>
