<svg xmlns="http://www.w3.org/2000/svg" viewBox="0 0 314.68 245.1"><defs><style>.cls-1{fill:#494949;}</style></defs><title>задом наперёдРесурс 8</title><g id="Слой_2" data-name="Слой 2"><g id="Слой_1-2" data-name="Слой 1"><path class="cls-1" d="M29,158.75A61,61,0,0,1,10.42,141a59,59,0,0,1-6.06-11.6A64.74,64.74,0,0,1,1,116.76,82.19,82.19,0,0,1,1.06,91a101.79,101.79,0,0,1,7.12-24.6,107,107,0,0,1,5.74-11.51,91.58,91.58,0,0,1,7.31-10.74A95.52,95.52,0,0,1,40,26.26c1.73-1.25,3.49-2.47,5.25-3.61l2.63-1.7,2.67-1.68A113.49,113.49,0,0,1,61.9,13.2,144.55,144.55,0,0,1,85.84,4.59c4.08-1.12,8.22-2,12.37-2.8,2.1-.37,4.12-.7,6.3-1,1.24-.16,2.26-.25,3.36-.34S110,.27,111.09.21a183.3,183.3,0,0,1,25.27.57,230.69,230.69,0,0,1,49.06,10,264,264,0,0,1,87,48l4.81,4c.8.65,1.66,1.46,2.48,2.18s1.62,1.54,2.41,2.33a67.2,67.2,0,0,1,8.46,10.48A57.32,57.32,0,0,1,296.67,90a45.14,45.14,0,0,1,2.72,13.92,31.51,31.51,0,0,1-.71,7.55,34.1,34.1,0,0,1-2.34,7.1,41.47,41.47,0,0,1-3.55,6.26,64.37,64.37,0,0,1-4.07,5.32,108.47,108.47,0,0,1-18.92,17.66A117.17,117.17,0,0,1,259,154.91l-1.46.82-1.35.73-2.68,1.46-5.39,2.91c-7.21,3.87-14.58,7.62-22.15,11.06a226.39,226.39,0,0,1-47.47,15.58A249.32,249.32,0,0,1,129,192.87a241.17,241.17,0,0,1-24.86-1c-8.26-.76-16.43-2-24.49-3.31a220.21,220.21,0,0,1-24.31-5.27c-4-1.13-8-2.45-11.93-4s-7.61-3-11.44-4.72a96.5,96.5,0,0,1-11.31-5.77,49.39,49.39,0,0,1-5.4-3.77c-.88-.68-1.7-1.5-2.54-2.24s-1.6-1.66-2.33-2.59a22.37,22.37,0,0,1-2-3c-.29-.53-.61-1-.87-1.59l-.68-1.72-.33-.86-.22-.9-.41-1.81a19.49,19.49,0,0,1-.25-3.67A26.36,26.36,0,0,1,10,133.59a3.24,3.24,0,0,1,5.56,3.34v0a19.8,19.8,0,0,0-3.05,9.84,13.75,13.75,0,0,0,3.5,8.87,31.89,31.89,0,0,0,8.57,6.68,89.13,89.13,0,0,0,10.54,5c3.65,1.49,7.49,2.9,11.23,4.26s7.46,2.47,11.29,3.45a211.62,211.62,0,0,0,23.45,4.49c8,1.11,16,2.12,23.9,2.65a231.19,231.19,0,0,0,23.86.43A238.48,238.48,0,0,0,176,176.3a214.21,214.21,0,0,0,44.65-15.85c7.17-3.42,14.25-7.15,21.36-11l5.33-2.89,2.67-1.45,1.33-.72,1.2-.67a104.52,104.52,0,0,0,9.55-6.31,94.94,94.94,0,0,0,16.6-15.59,39,39,0,0,0,5.82-8.66,21.12,21.12,0,0,0,1.49-4.45,18.34,18.34,0,0,0,.44-4.55,32.39,32.39,0,0,0-2-9.91,44.46,44.46,0,0,0-4.73-9.54A54.37,54.37,0,0,0,273,76.24q-1-1-2-1.91c-.7-.62-1.32-1.21-2.09-1.85l-4.59-3.81a251.12,251.12,0,0,0-82.81-45.61,222.87,222.87,0,0,0-46.31-9.48A170.72,170.72,0,0,0,111.76,13c-1,.05-1.92.11-2.86.18s-1.93.17-2.7.26l-5.74.9C96.62,15,92.79,15.8,89,16.79a132.14,132.14,0,0,0-22,7.62,101.36,101.36,0,0,0-10.2,5.28l-2.51,1.54-2.51,1.58c-1.66,1.05-3.25,2.14-4.83,3.25A84.09,84.09,0,0,0,30.22,51.38a89.55,89.55,0,0,0-12,19.42A98.34,98.34,0,0,0,11,92.7a72.6,72.6,0,0,0-1,22.74,57.14,57.14,0,0,0,2.46,11,50.66,50.66,0,0,0,4.64,10.26,56.4,56.4,0,0,0,15.46,16.66A3.24,3.24,0,0,1,29,158.75Z"/><path class="cls-1" d="M142.31,164.3a202.53,202.53,0,0,0,22.82-.94,187.83,187.83,0,0,0,22.57-3.55A202.69,202.69,0,0,0,231,144.66a197.52,197.52,0,0,0,20.18-11.13A148.85,148.85,0,0,0,269.7,120a74.51,74.51,0,0,0,7.92-8,34.64,34.64,0,0,0,5.71-9.3,21.93,21.93,0,0,0,1.31-5.18,31.54,31.54,0,0,0,.27-5.48,37.1,37.1,0,0,0-2.16-10.89,1.79,1.79,0,0,1,3.36-1.26c3,7.53,4.11,16.13,1.44,24.33a39.23,39.23,0,0,1-6.05,10.84,79.55,79.55,0,0,1-8.16,9,154.47,154.47,0,0,1-18.75,14.78,204.27,204.27,0,0,1-20.38,12.29,210.75,210.75,0,0,1-44.38,17.48,197.22,197.22,0,0,1-23.54,4.64,212.91,212.91,0,0,1-23.93,1.92h0a5.42,5.42,0,0,1-.25-10.83Z"/><path class="cls-1" d="M125.66,235a277,277,0,0,1-76.95-11.23,6.5,6.5,0,1,1,3.63-12.48c37.51,10.92,94.93,19,155.49-4.42,36.36-14.07,69.34-38,95.36-69.11a6.5,6.5,0,1,1,10,8.34c-27.43,32.82-62.23,58-100.64,72.89A239.42,239.42,0,0,1,125.66,235Z"/><polygon class="cls-1" points="12.42 204.65 71.96 202.91 51.8 219.41 56.14 245.1 12.42 204.65"/></g></g></svg>