<svg xmlns="http://www.w3.org/2000/svg" viewBox="0 0 411.62 227.5"><defs><style>.cls-1,.cls-2,.cls-3,.cls-4{fill:none;stroke:#494949;stroke-linecap:round;stroke-linejoin:round;}.cls-1{stroke-width:12.52px;}.cls-2,.cls-3,.cls-4{stroke-width:13px;}.cls-3{stroke-dasharray:0 24.25 0 0 0 0;}.cls-4{stroke-dasharray:0 24.2 0 0 0 0;}</style></defs><title>Ресурс 15</title><g id="Слой_2" data-name="Слой 2"><g id="Слой_1-2" data-name="Слой 1"><rect class="cls-1" x="6.5" y="6.5" width="398.62" height="214.74"/><rect class="cls-2" x="6.5" y="6.5" width="162.99" height="107.16"/><rect class="cls-2" x="169.49" y="6.5" width="235.63" height="107.16"/><line class="cls-2" x1="405.12" y1="140.74" x2="6.5" y2="140.74"/><line class="cls-2" x1="405.12" y1="167.81" x2="6.5" y2="167.81"/><line class="cls-2" x1="405.12" y1="194.88" x2="6.5" y2="194.88"/><rect class="cls-2" x="169.49" y="6.5" width="235.63" height="27.74"/><rect class="cls-2" x="169.49" y="6.5" width="235.63" height="53.58"/><rect class="cls-2" x="169.49" y="6.5" width="235.63" height="81.07"/><line class="cls-2" x1="148.08" y1="34.24" x2="148.08" y2="34.24"/><path class="cls-3" d="M123.83,34.24h-97"/><line class="cls-2" x1="26.82" y1="34.24" x2="26.82" y2="34.24"/><line class="cls-2" x1="148.08" y1="60.08" x2="148.08" y2="60.08"/><path class="cls-4" d="M123.88,60.08H27.08"/><line class="cls-2" x1="27.08" y1="60.08" x2="27.08" y2="60.08"/><line class="cls-2" x1="148.08" y1="87.57" x2="148.08" y2="87.57"/><path class="cls-4" d="M123.88,87.57H27.08"/><line class="cls-2" x1="27.08" y1="87.57" x2="27.08" y2="87.57"/></g></g></svg>