<svg xmlns="http://www.w3.org/2000/svg" viewBox="0 0 260.02 245.1"><defs><style>.cls-1{fill:#494949;}</style></defs><title>Шапкаглубокая2Ресурс 23</title><g id="Слой_2" data-name="Слой 2"><g id="Слой_1-2" data-name="Слой 1"><path class="cls-1" d="M206.57,47.55A120.06,120.06,0,0,1,227,64.33c1.52,1.62,3.1,3.2,4.53,4.91l2.19,2.54,2.07,2.65a101.51,101.51,0,0,1,7.6,11.15,108.33,108.33,0,0,1,6.18,12.12,100.1,100.1,0,0,1,4.46,13,102.53,102.53,0,0,1,2.64,13.39c.61,4.43,1,8.78,1.45,13.09l1.08,12.91c.33,4.33.59,8.7.75,13.12A155.45,155.45,0,0,1,258.69,190,151.87,151.87,0,0,1,242,241l-1.74,3.25-3.66.19q-20.67,1.06-41.38.27c-6.9-.23-13.78-.71-20.66-1.25s-13.74-1.31-20.59-2.24-13.67-2-20.46-3.2c-3.4-.63-6.79-1.26-10.17-2-1.69-.34-3.38-.7-5.07-1.08l-2.53-.56-1.34-.31-1.3-.33C106.21,232,99.6,230,93,227.69c-3.29-1.12-6.54-2.36-9.79-3.58-1.62-.62-3.23-1.29-4.84-1.94s-3.23-1.29-4.81-2A278.83,278.83,0,0,1,36.49,201q-8.91-5.51-17.32-11.86a56.38,56.38,0,0,1-8.57-7.36,40.29,40.29,0,0,1-6.89-9.94A35.63,35.63,0,0,1,.25,160a43.52,43.52,0,0,1,.37-11.89,85,85,0,0,1,2.51-10.74c.5-1.7,1-3.37,1.52-5s1.15-3.36,1.72-5a148.48,148.48,0,0,1,8.52-19.55l2.55-4.64c.43-.77.84-1.55,1.29-2.31l1.37-2.26c.92-1.5,1.81-3,2.75-4.5l2.9-4.39A238.28,238.28,0,0,1,52.17,57.09c1.24-1.25,2.48-2.53,3.88-3.81s2.59-2.36,3.91-3.52Q63.9,46.3,68,43t8.36-6.36q2.12-1.55,4.29-3l4.27-2.91c11.41-7.79,23.83-15,37.1-20A158.7,158.7,0,0,1,163.28.79,146.42,146.42,0,0,1,184.61.13c1.79.08,3.59.2,5.4.37s3.56.36,5.34.62c3.55.48,7.11,1.12,10.64,1.94a91.59,91.59,0,0,1,20.62,7.41,81.26,81.26,0,0,1,9.55,5.7,52.2,52.2,0,0,1,8.78,7.62,38.12,38.12,0,0,1,3.76,4.9,32.45,32.45,0,0,1,2.88,5.64,45.33,45.33,0,0,1,2.7,11.46,60.16,60.16,0,0,1,.4,11.43A69.48,69.48,0,0,1,253,68.3c-.39,1.78-.83,3.44-1.11,4.88s-.57,3-.76,4.54a68.18,68.18,0,0,0-.54,9.3,93.61,93.61,0,0,0,2.22,18.9l-12.7,2.76a106.57,106.57,0,0,1-2.52-21.56,81.3,81.3,0,0,1,.65-11.05c.23-1.84.55-3.68.92-5.52s.82-3.52,1.15-5.06a56.42,56.42,0,0,0,1.34-9.07,47.18,47.18,0,0,0-.31-8.93c-.73-6.5-2.3-10.81-6.1-15s-9-7.59-14.57-10.45A78.6,78.6,0,0,0,203,15.72c-3.09-.72-6.24-1.28-9.43-1.72-1.59-.23-3.2-.39-4.8-.56s-3.17-.26-4.78-.33a133.5,133.5,0,0,0-19.42.6,145.75,145.75,0,0,0-37.88,9.06C114.55,27.45,103.24,34,92.19,41.48L88,44.32q-2,1.41-4,2.86-4,2.91-7.88,6t-7.58,6.36c-1.24,1.08-2.47,2.2-3.67,3.3s-2.25,2.18-3.4,3.34A225.46,225.46,0,0,0,36.54,96.91L33.81,101c-.87,1.39-1.71,2.8-2.57,4.21L30,107.34c-.42.7-.79,1.43-1.19,2.15l-2.36,4.3a135.53,135.53,0,0,0-7.77,17.82c-.52,1.54-1.09,3-1.58,4.61L15.61,141a72.36,72.36,0,0,0-2.14,9.11,30.59,30.59,0,0,0-.3,8.43,22.51,22.51,0,0,0,2.22,7.62,27.27,27.27,0,0,0,4.7,6.76A44.37,44.37,0,0,0,27,178.77q7.88,6,16.33,11.18a265.91,265.91,0,0,0,35.34,18.25c1.52.68,3.07,1.29,4.61,1.91s3.08,1.26,4.63,1.85c3.12,1.17,6.22,2.36,9.37,3.43,6.27,2.18,12.65,4.18,19,5.81l1.17.29,1.14.26,2.45.54c1.63.37,3.27.71,4.91,1,3.28.69,6.57,1.31,9.86,1.92,6.59,1.22,13.21,2.21,19.85,3.11s13.31,1.57,20,2.18,13.37,1,20.06,1.22q20.09.77,40.21-.26l-5.4,3.44a133.49,133.49,0,0,0,14.68-46.64,156.85,156.85,0,0,0,.79-24.63c-.14-4.17-.41-8.38-.69-12.62l-.85-12.81c-.55-8.54-1.15-16.8-2.78-24.57a94.59,94.59,0,0,0-3.29-11.61,96.78,96.78,0,0,0-4.7-11.23,124.3,124.3,0,0,0-13-21,171,171,0,0,0-16.85-18.79Z"/><path class="cls-1" d="M218.34,244.17c-46.08-26.23-85.59-46.35-117.43-59.79-62.62-26.44-77.5-19.43-81-15.18a9.29,9.29,0,0,0-1.87,4.53L5.24,171.64a22.2,22.2,0,0,1,4.65-10.69C22,146.21,52.53,149.85,106,172.41c32.31,13.64,72.28,34,118.8,60.47Z"/></g></g></svg>