<svg xmlns="http://www.w3.org/2000/svg" viewBox="0 0 206.58 296.13"><defs><style>.cls-1{fill:#494949;}</style></defs><title>ИталияРесурс 19</title><g id="Слой_2" data-name="Слой 2"><g id="Слой_1-2" data-name="Слой 1"><path class="cls-1" d="M133.76,251.78a12.85,12.85,0,0,1-3.54-.49,15.39,15.39,0,0,1-10.87-15c.38-7.32,7-12.76,9.54-14.24l.11-.06a2.78,2.78,0,0,0,.87-.72,38.18,38.18,0,0,0,.91-6,45.81,45.81,0,0,0,.37-6.73,13.76,13.76,0,0,0-1.39-.77,18.27,18.27,0,0,0-3.56-1.48,7.73,7.73,0,0,1-3.87-1.78c-4.3-3.69-4-9.1-3.79-12.33v-.22a10.07,10.07,0,0,1-3.85-1.64h0a10.64,10.64,0,0,1-4.33-8,3.48,3.48,0,0,0-.27-1.31c-.17-.08-.56-.21-.85-.31a11.76,11.76,0,0,1-7-5.41,11.9,11.9,0,0,1-1.53-5.62,13.17,13.17,0,0,1-2.46-.76,11.94,11.94,0,0,1-2.67-1.53c-3.67-2.81-5.85-7.07-7-9.36l-.21-.42c-.62-.29-1.81-.76-3-1.21-2.17-.85-5.15-2-9.39-3.88-10.87-4.78-13.67-6.92-15.82-9.9a24.82,24.82,0,0,1-4.64-14.06,23.37,23.37,0,0,1,.81-5.94,6.92,6.92,0,0,0,.29-3.23,6.82,6.82,0,0,0-.7-2.6,45.37,45.37,0,0,0-5.77-1.58c-1.49-.35-3.32-.79-4.06-.87-1.14.38-2.28,1.94-2.91,2.8a7.94,7.94,0,0,0-1.41,3.16,15.84,15.84,0,0,1-3.83,7.29c-3.5,3.8-9.7,7.4-15.67,5-4.07-1.61-5.69-5.11-6.76-7.43l-.13-.29a86.5,86.5,0,0,0-6.64-11.69l-.06-.1a51.22,51.22,0,0,1-4.51-8.74A51.8,51.8,0,0,1,.49,83.88L.55,81l2.21-1.89C7,75.45,8.11,73.41,8.38,72.75L8,72c-1.12-2.45-3.2-7-.65-11.76A11,11,0,0,1,8.18,59a20.8,20.8,0,0,1,8.61-6.78,29.17,29.17,0,0,1,6.3-2.08l.28-.06a12.29,12.29,0,0,1,2.44-.38c3.92-.13,6.89,1.86,9.21,3.8-.16-.22-.38-.5-.73-.91a15,15,0,0,1-3.85-8c-1-6.86,1.78-10.43,3.52-11.94A10.68,10.68,0,0,1,41.21,30c.08-.54.15-1.19.21-1.69.37-3.4.92-8.53,5.49-12a13,13,0,0,1,7.65-2.51,13.07,13.07,0,0,1,2-5.94C61.39.11,74.38-2.44,83.25,2.62a14.09,14.09,0,0,1,5.63,5.8A6.11,6.11,0,0,0,91,10.83c2.16,1.58,7.2,3.08,10,2.59a8.76,8.76,0,0,0,2.26-.74,10.86,10.86,0,0,1,7.67-.84c7,1.86,11.06,9.4,11.29,15.55A15.73,15.73,0,0,1,121,34c-.1.25-.22.59-.27.76l.15.19a16.75,16.75,0,0,1,2.63,4.65c.62,1.65,3.49,10.2-1.15,16.62a12,12,0,0,1-6.78,4.55,6.07,6.07,0,0,0-2.1.95c-2,1.49-2.79,4.08-3.41,6.15a18.74,18.74,0,0,0,1,12.73c1,2.16,1.84,2.92,3.88,4.75a61.76,61.76,0,0,1,7.51,7.82A67.74,67.74,0,0,1,132.19,109a69.69,69.69,0,0,1,4.88,17.73c.14.85.29,1.81.45,2.61l.53-.21c3-1.2,8-3.22,14-.85,1.74.68,5.7,2.24,7.85,6.54a14.07,14.07,0,0,1,.68,10,12.19,12.19,0,0,0-.3,1.59,1.35,1.35,0,0,0,.33.33c.32-.07.86-.24,1.28-.37a16,16,0,0,1,8-.81c5.91,1.08,8.34,5.59,9.95,8.58,1.25,2.31,2.32,4.31,4.85,6.08a11.64,11.64,0,0,0,4.56,1.9,14.35,14.35,0,0,1,9.21,5.73,14.56,14.56,0,0,1,2.64,6.75,19.53,19.53,0,0,0,1.74,5.57c.45,1,.84,1.74,1.23,2.47a18.17,18.17,0,0,1,2.37,6.91c1,8.45-2.19,12.34-5.07,14.13-4.89,3-10.86,1.33-14.34-1.52a12,12,0,0,1-4.17-7.34,8.35,8.35,0,0,0-1-2.85c-1.7-2.85-2.76-3.33-3.14-3.4a4.82,4.82,0,0,0-1,0,12.2,12.2,0,0,1-5-.45,17.41,17.41,0,0,1-1.89,2.14,14.49,14.49,0,0,1-5.15,3.22,6.48,6.48,0,0,0,.31,2.74h0c.12.14.25.28.41.45a37.22,37.22,0,0,1,2.79,3.35c3.3,4.45,6.71,9.06,6,15.16a15.94,15.94,0,0,1-7,11.12,14.87,14.87,0,0,1-4.74,2c-.11.48-.25,1-.44,1.61-1,3.06-8.25,16.43-24.12,21A18.4,18.4,0,0,1,133.76,251.78Zm7.09-23.59a15.49,15.49,0,0,1-5.34,5c-1.22.76-3.08,2.84-3.17,3.72a2.64,2.64,0,0,0,1.43,1.86,7,7,0,0,0,1.54-.34,25.66,25.66,0,0,0,15.35-12.54l0-.13v-.32l0,.21v0c0-.1,0-.18,0-.26a9.11,9.11,0,0,1,1.61-5.08,10.81,10.81,0,0,1,7.27-4.38,4.34,4.34,0,0,0,1.42-.42,3,3,0,0,0,1.19-1.79c.12-1-1.82-3.59-3.52-5.9a24.24,24.24,0,0,0-1.9-2.28,13.13,13.13,0,0,1-3-4.73c-.34-.89-3.21-9,1.55-15.35a11.39,11.39,0,0,1,5.52-4c.66-.25.68-.26,1-.54a8.19,8.19,0,0,0,1.68-2.87c.65-1.55,2.67-6.23,7.82-6.05a7.25,7.25,0,0,1,6,3.63,14.86,14.86,0,0,1,3.81.22,15.41,15.41,0,0,1,7.79,4.24c-.36-1.33-.54-2.38-.69-3.23-.19-1.1-.19-1.1-.38-1.36a1.67,1.67,0,0,0-.23-.28,12.46,12.46,0,0,0-1.52-.43,24.32,24.32,0,0,1-8.94-3.89,28,28,0,0,1-8.82-10.56c-.35-.64-.79-1.47-1.11-1.94a15.3,15.3,0,0,0-1.51.42c-2.35.73-6.28,2-10.85-.34a13.66,13.66,0,0,1-7-16.53c.09-.38.2-.86.25-1.2-.27-.13-.61-.26-.83-.35-1.1-.43-1.92-.22-4.41.79s-6.57,2.65-11,.87c-5.95-2.4-6.88-8.16-7.71-13.24a57.5,57.5,0,0,0-4-14.67,55.21,55.21,0,0,0-7.92-12.75A48.72,48.72,0,0,0,106.26,95a24.82,24.82,0,0,1-7-9,31.64,31.64,0,0,1-1.68-21.92c.92-3.08,2.64-8.81,8.13-12.87a18.54,18.54,0,0,1,5.94-2.9l.23-.07a9.37,9.37,0,0,0-.58-4.11,4,4,0,0,0-.77-1.31A12.34,12.34,0,0,1,108,37.41a13.51,13.51,0,0,1,.85-8,3.42,3.42,0,0,0,.39-1.53A5.53,5.53,0,0,0,108,24.8a20.71,20.71,0,0,1-4.72,1.42c-6.9,1.21-15.4-1.61-19.9-4.88a18.71,18.71,0,0,1-5.71-6.42,8.67,8.67,0,0,0-.48-.78,1.9,1.9,0,0,0-.34-.23c-3.13-1.79-8.4-.52-9.27.87a7.43,7.43,0,0,0-.07.81,11,11,0,0,1-3.28,7.86,12.27,12.27,0,0,1-8.72,3.33l-.67,0a20.35,20.35,0,0,0-.44,2.86c-.35,3.27-.94,8.75-6,11.72a11.44,11.44,0,0,1-4.95,1.53c.07.26.22.47.9,1.28a16.51,16.51,0,0,1,3.63,6.45,18.51,18.51,0,0,1-1.57,13.61,9.89,9.89,0,0,1-6.12,5,8.32,8.32,0,0,1-1.57.24c-4.82.29-8.24-2.76-10.74-5-.6-.54-1.44-1.29-2-1.69A16.26,16.26,0,0,0,22.31,64a10.29,10.29,0,0,0-2.84,1.75c.13.3.27.62.39.87a19.2,19.2,0,0,1,1.24,3.27c1.71,6.71-2.94,12.68-7.58,17a38.15,38.15,0,0,0,6,19,99.63,99.63,0,0,1,7.6,13.4l.14.3a7.14,7.14,0,0,0,1.08-.95c.46-.5.51-.65.85-1.91a20.68,20.68,0,0,1,3.43-7.36c1.49-2,4.92-6.76,11.13-8,2.74-.54,5.23,0,9.36,1,5.54,1.31,9.2,2.18,12,5a16.89,16.89,0,0,1,4.36,9.9,19.55,19.55,0,0,1-.52,8.22,10.88,10.88,0,0,0-.44,2.85,11.75,11.75,0,0,0,2.18,6.46c.69,1,4.23,2.85,10.51,5.61,4,1.76,6.83,2.87,8.9,3.68,4.59,1.8,7.37,2.89,9.48,6.78.16.29.34.65.55,1.05.68,1.32,1.91,3.75,3.19,4.83a4.64,4.64,0,0,0,.66,0,9.43,9.43,0,0,1,7.21,2.79,10.28,10.28,0,0,1,2.56,8.67v.07a13.42,13.42,0,0,1,6.87,4.87,13.85,13.85,0,0,1,2.45,5.87,9.23,9.23,0,0,1,4.45,1.79c4.51,3.36,4.2,8.73,4,11.95,0,.4-.05.9-.07,1.37a39.8,39.8,0,0,1,4.14,1.84,16.8,16.8,0,0,1,6.42,5.05c2.21,3,2.6,6.65,1.69,15.41-.7,6.71-1.41,9.07-2.4,10.88C141.13,227.74,140.95,228,140.85,228.18Zm9.76-2.12,0,.06Zm.08-.13Zm0-.26h0v0ZM130,221h0ZM25.47,62.55Zm95.21-27.83h0Z"/><path class="cls-1" d="M28.78,223.05a15.87,15.87,0,0,1-6.6-1.47c-3.79-1.78-5.28-4.53-6.59-7a43.91,43.91,0,0,0-2.87-4.74c-1.05-1.5-2-2.6-2.75-3.57-1.85-2.25-4.64-5.64-3-10.27a8.3,8.3,0,0,1,4.27-4.67l-.63-1-6-8.55-1.1-1.34C1.62,178.2-.54,175.6.12,171.58a9.59,9.59,0,0,1,4.65-6.49c.76-.51.88-.61,1-.87a7.55,7.55,0,0,0,.27-1.29c.37-5.07,7.21-13.62,17.06-15.4a22.19,22.19,0,0,1,21,7.57c3.7,4.58,4.1,9.43,4.64,16.15a43.64,43.64,0,0,1-.35,11,50,50,0,0,0-.57,8.83c0,2.12.14,4,.24,5.57.32,5.21.62,10.14-3.71,14a13.73,13.73,0,0,1-5,2.76,9.18,9.18,0,0,1-2.43,6.35A10.86,10.86,0,0,1,28.78,223.05ZM22.29,201q.51.69,1.07,1.48a56.38,56.38,0,0,1,3.63,6,11.17,11.17,0,0,1,.83-1.83A11.73,11.73,0,0,1,35,201.21l.3-.1c0-.92-.07-2.39-.15-3.63-.1-1.67-.23-3.75-.26-6.17a62.73,62.73,0,0,1,.69-10.81,31,31,0,0,0,.27-8.19c-.49-6.05-.76-7.75-1.8-9a9.27,9.27,0,0,0-8.58-2.95h0a10.31,10.31,0,0,0-6.5,4.48,21.55,21.55,0,0,1-.61,2.95,12.81,12.81,0,0,1-1.18,2.82,14.08,14.08,0,0,1-2.37,3.13l.11.13.26.34,6.44,9.17c3.25,5.2,5.81,9.31,3.7,14A8.76,8.76,0,0,1,22.29,201Zm-3.5-35.91Zm.23-1.13v0Z"/><path class="cls-1" d="M107.41,296.13a6.51,6.51,0,0,1-2.42-.47c-24.51-9.84-39.31-17.16-44-21.76-.83-.82-1.54-1.67-1.68-1.84-5.9-7.37-7.62-14.87-4.88-21.17h0c3-7,11.32-11.48,19.3-10.43a16,16,0,0,1,9.18,4.66c.34.31.79.72,1,.89.63-.08,2.32-1.79,3.15-2.63,2.52-2.55,6.33-6.4,12.06-5.53s7.65,5.07,11.26,13.41c.93,2.16,2.1,4.86,3.55,8.09.89,2,1.69,3.71,2.41,5.26,4.1,8.88,6.16,13.33,4.07,19.53-1.52,4.49-4.92,8.34-9.86,11.14A6.51,6.51,0,0,1,107.41,296.13Zm-41-40.06c-.67,1.55.56,4.69,3.05,7.81,0,.05.4.47.71.77,2.28,2.25,13.19,8.17,36.42,17.63a5.74,5.74,0,0,0,1.58-2.28c.39-1.17-.37-3-3.55-9.93-.73-1.58-1.55-3.35-2.46-5.37-1.5-3.33-2.69-6.07-3.64-8.28-.66-1.52-1.3-3-1.84-4.2l-.31.31c-2.74,2.77-6.88,7-13.43,6.44a14.05,14.05,0,0,1-8.76-4.26c-1.23-1.13-1.47-1.28-2.1-1.36-2.12-.28-5,1.09-5.68,2.71Z"/></g></g></svg>